<?xml version="1.0" encoding="UTF-8"?> <svg xmlns="http://www.w3.org/2000/svg" xmlns:xlink="http://www.w3.org/1999/xlink" xml:space="preserve" width="91.44mm" height="50.8mm" version="1.1" style="shape-rendering:geometricPrecision; text-rendering:geometricPrecision; image-rendering:optimizeQuality; fill-rule:evenodd; clip-rule:evenodd" viewBox="0 0 3048 1693"> <defs> <style type="text/css"> .fil0 {fill:none} .fil1 {fill:black;fill-rule:nonzero} </style> </defs> <g id="Layer_x0020_1"> <metadata id="CorelCorpID_0Corel-Layer"></metadata> <rect class="fil0" width="3048" height="1693"></rect> <g> <path id="path2405" class="fil1" d="M1718 979l-258 -449 185 -107 321 556 -248 0 0 0zm0 0l0 0 0 0zm-688 -63l186 -107 98 170 -248 0 -36 -63zm364 349l53 0 0 -214 -53 0 0 214zm662 5c-59,0 -95,-30 -97,-73l56 0c0,13 9,33 45,33 24,0 35,-14 35,-24 -2,-17 -23,-19 -45,-22 -23,-4 -42,-8 -56,-15 -18,-9 -30,-29 -30,-51 0,-39 33,-69 89,-69 53,0 87,28 91,70l-54 0c-1,-11 -3,-29 -35,-29 -21,0 -35,4 -36,19 0,22 44,21 79,30 33,8 54,29 54,58 0,53 -43,73 -96,73l0 0zm0 0l0 0 0 0zm-808 -545l185 -107 208 361 -194 0 0 52 -53 0 0 -53 -146 -253 0 0zm0 0l0 0 0 0zm4 545c-61,0 -111,-50 -111,-111 0,-61 50,-110 111,-110 24,0 45,6 63,19l0 -89 53 0 0 286 -53 0 0 -14c-18,12 -39,19 -63,19l0 0zm-60 -111c0,33 28,61 62,61 33,0 61,-28 61,-61 0,-33 -28,-61 -61,-61 -34,0 -62,28 -62,61zm451 -180l52 0 0 286 -52 0 0 -14c-18,12 -40,19 -64,19 -61,0 -111,-50 -111,-111 0,-61 50,-110 111,-110 24,0 45,6 64,19l0 -89 0 0zm-123 180c0,33 28,61 61,61 33,0 62,-28 62,-61 0,-33 -29,-61 -62,-61 -33,0 -61,28 -61,61zm303 111c-60,0 -110,-50 -110,-111 0,-61 50,-110 110,-110 23,0 45,6 63,19l0 -17 53 0 0 214 -53 0 0 -14c-18,12 -39,19 -63,19l0 0zm-59 -111c0,33 28,61 61,61 33,0 61,-28 61,-61 0,-33 -28,-61 -61,-61 -33,0 -61,28 -61,61zm-817 0c0,33 28,61 61,61 34,0 63,-28 63,-61 0,-33 -29,-61 -63,-61 -33,0 -61,28 -61,61zm60 111c-61,0 -111,-50 -111,-111 0,-61 50,-110 111,-110 23,0 45,6 64,19l0 -17 52 0 0 214 -52 0 0 -14c-18,12 -40,19 -64,19l0 0zm0 0l0 0 0 0z"></path> </g> </g> </svg> 