<?xml version="1.0" encoding="UTF-8"?> <svg xmlns="http://www.w3.org/2000/svg" xmlns:xlink="http://www.w3.org/1999/xlink" xml:space="preserve" width="172.206mm" height="45.1556mm" version="1.1" style="shape-rendering:geometricPrecision; text-rendering:geometricPrecision; image-rendering:optimizeQuality; fill-rule:evenodd; clip-rule:evenodd" viewBox="0 0 8346 2189"> <defs> <style type="text/css"> .fil0 {fill:none} .fil1 {fill:black;fill-rule:nonzero} </style> </defs> <rect class="fil0" width="8346" height="2189"></rect> <g> <path id="path2405" class="fil1" d="M4596 1382l-563 -979 405 -232 700 1211 -542 0 0 0zm0 0l0 0 0 0zm-1500 -137l405 -234 214 371 -540 0 -79 -137zm794 762l115 0 0 -466 -115 0 0 466zm1443 11c-128,0 -206,-67 -210,-161l121 0c0,30 19,73 97,74 53,0 77,-31 77,-54 -3,-36 -49,-39 -98,-47 -49,-8 -91,-17 -122,-33 -38,-20 -65,-63 -65,-112 0,-83 73,-149 193,-149 117,0 191,61 198,152l-117 0c-1,-24 -6,-63 -75,-63 -46,0 -77,9 -80,42 0,48 97,44 172,64 73,19 119,64 119,126 0,116 -94,161 -210,161l0 0zm0 0l0 0 0 0zm-1763 -1189l405 -233 454 786 -424 0 0 115 -115 0 0 -115 -320 -553 0 0zm0 0l0 0 0 0zm11 1189c-134,0 -243,-110 -243,-242 0,-134 109,-240 243,-240 51,0 97,14 137,41l0 -195 115 0 0 625 -115 0 0 -31c-40,26 -86,42 -137,42l0 0zm-132 -242c0,72 61,132 135,132 72,0 134,-60 134,-132 0,-72 -62,-134 -134,-134 -74,0 -135,62 -135,134zm983 -394l114 0 0 625 -114 0 0 -31c-39,26 -86,42 -139,42 -132,0 -241,-110 -241,-242 0,-134 109,-240 241,-240 53,0 99,14 139,41l0 -195 0 0zm-268 394c0,72 62,132 132,132 74,0 136,-60 136,-132 0,-72 -62,-134 -136,-134 -70,0 -132,62 -132,134zm662 242c-132,0 -242,-110 -242,-242 0,-134 110,-240 242,-240 50,0 98,14 137,41l0 -37 115 0 0 467 -115 0 0 -31c-39,26 -85,42 -137,42l0 0zm-130 -242c0,72 62,132 134,132 73,0 133,-60 133,-132 0,-72 -60,-134 -133,-134 -72,0 -134,62 -134,134zm-1781 0c0,72 61,132 134,132 73,0 135,-60 135,-132 0,-72 -62,-134 -135,-134 -73,0 -134,62 -134,134zm130 242c-132,0 -241,-110 -241,-242 0,-134 109,-240 241,-240 51,0 99,14 139,41l0 -37 114 0 0 467 -114 0 0 -31c-39,26 -86,42 -139,42l0 0zm0 0l0 0 0 0z"></path> </g> </svg> 