<?xml version="1.0" encoding="UTF-8"?> <svg xmlns="http://www.w3.org/2000/svg" xmlns:xlink="http://www.w3.org/1999/xlink" xml:space="preserve" width="91.44mm" height="50.8mm" version="1.1" style="shape-rendering:geometricPrecision; text-rendering:geometricPrecision; image-rendering:optimizeQuality; fill-rule:evenodd; clip-rule:evenodd" viewBox="0 0 3048 1693"> <defs> <style type="text/css"> .fil0 {fill:none} .fil1 {fill:#E2001A} </style> </defs> <g id="Layer_x0020_1"> <metadata id="CorelCorpID_0Corel-Layer"></metadata> <rect class="fil0" width="3048" height="1693"></rect> <path class="fil1" d="M1904 918c17,-93 126,-140 207,-135l0 0c31,2 58,11 73,29l0 -1c0,1 0,1 0,1 7,-7 13,-14 20,-21 3,-4 14,-2 24,-1 11,2 22,7 30,7 7,0 25,-6 42,-8 17,-3 33,-2 30,5l-15 37 0 0 -49 123c-10,24 28,18 82,-39 9,6 13,7 23,30 -46,39 -90,68 -151,88 -54,19 -94,-8 -107,-53 -78,72 -185,71 -216,-10 -51,24 -111,51 -136,58 -20,6 -38,10 -54,10 -27,0 -56,-25 -47,-62 -45,20 -80,33 -131,50 -54,19 -86,-1 -98,-46 -78,72 -186,71 -217,-11 -30,15 -72,37 -111,52 -63,28 -136,22 -190,-35l18 -28c25,27 57,26 81,4 26,-24 43,-70 31,-107 -5,-16 -24,-29 -58,-27l10 -28c36,-1 64,-6 79,-29 21,-31 22,-79 -24,-78 -8,0 -18,2 -29,6 -8,23 -22,51 -34,81 -25,67 -54,141 -88,189 -40,57 -83,68 -118,66 -36,-3 -64,-14 -104,-49 0,-16 2,-22 5,-41 13,20 61,40 77,18 34,-51 72,-149 101,-212 -26,8 -50,24 -83,47 0,-4 -12,-12 -11,-24 54,-62 149,-100 214,-114 98,-20 204,10 219,72 11,41 -38,80 -84,86 27,16 55,43 62,76 3,16 2,34 -3,51 15,-7 34,-16 46,-21 20,-133 225,-176 282,-112l20 -21c3,-4 14,-2 24,-1 10,2 22,7 29,7 8,0 26,-6 43,-8 17,-3 33,-2 30,5l-65 160c-14,36 93,-28 99,-32l46 -98 -47 1 8 -40 53 0c9,-12 11,-25 23,-34 15,-12 50,-5 67,-16 14,-9 25,-23 38,-44 11,-19 52,-14 44,3l-37 92 47 -1c22,2 3,38 -22,38l-38 1 -45 115c-14,37 42,4 85,-21l0 0zm-425 -79c-5,-17 -20,-22 -33,-20 -31,3 -61,38 -76,61 -25,39 -19,95 20,85 41,-11 97,-100 89,-126l0 0zm683 0c-5,-17 -21,-22 -34,-20 -31,3 -61,38 -76,61 -25,39 -19,95 20,85 42,-11 97,-100 90,-126l0 0z"></path> </g> </svg> 