<?xml version="1.0" encoding="UTF-8"?> <svg xmlns="http://www.w3.org/2000/svg" xmlns:xlink="http://www.w3.org/1999/xlink" xml:space="preserve" width="172.206mm" height="45.1556mm" version="1.1" style="shape-rendering:geometricPrecision; text-rendering:geometricPrecision; image-rendering:optimizeQuality; fill-rule:evenodd; clip-rule:evenodd" viewBox="0 0 8346 2189"> <defs> <style type="text/css"> .fil0 {fill:none} .fil1 {fill:#E2001A} </style> </defs> <rect class="fil0" width="8346" height="2189"></rect> <path class="fil1" d="M5184 1284c46,-246 336,-371 550,-359l0 0c83,4 154,29 196,76l0 0c0,0 0,0 0,0 17,-18 34,-36 52,-54 10,-10 38,-7 64,-2 28,5 59,17 79,17 20,0 67,-15 112,-22 45,-6 88,-5 81,13l-40 100 0 0 -132 326c-26,65 77,48 220,-103 24,16 35,19 60,79 -122,105 -239,181 -400,236 -145,50 -252,-22 -286,-143 -206,193 -493,191 -576,-27 -134,67 -294,137 -361,156 -52,15 -99,26 -144,26 -71,1 -149,-66 -124,-164 -118,53 -212,87 -348,133 -145,50 -229,-3 -262,-124 -206,193 -494,191 -576,-27 -81,39 -193,96 -296,137 -166,74 -361,59 -506,-93l47 -74c69,72 152,68 218,9 69,-63 113,-184 82,-283 -14,-44 -63,-77 -156,-71l29 -76c94,-4 168,-16 209,-76 57,-83 58,-211 -65,-208 -21,1 -47,5 -77,15 -21,63 -58,137 -89,215 -68,178 -145,376 -235,503 -107,152 -221,182 -313,176 -96,-7 -171,-36 -276,-131 -1,-40 3,-58 11,-108 37,52 164,107 205,47 92,-135 193,-396 269,-565 -68,23 -132,65 -221,127 1,-10 -30,-33 -29,-63 143,-166 398,-267 569,-303 262,-56 543,25 585,190 28,111 -102,214 -225,229 71,41 145,113 164,201 10,45 7,92 -7,138 41,-19 91,-44 124,-58 51,-353 598,-467 749,-298l52 -54c10,-10 38,-7 64,-2 29,5 59,17 79,17 20,0 67,-15 112,-22 46,-6 88,-5 81,13l-172 426c-39,96 247,-74 263,-83l123 -261 -126 2 22 -107 140 0c23,-31 30,-67 60,-90 41,-31 136,-15 179,-43 38,-24 66,-61 101,-118 30,-49 138,-37 118,10l-98 243 123 -1c59,3 9,100 -58,101l-101 2 -118 305c-39,100 112,12 225,-55l0 0zm-1130 -209c-13,-46 -54,-59 -88,-55 -83,9 -163,100 -204,164 -65,102 -50,253 54,225 111,-30 258,-267 238,-334l0 0zm1816 0c-14,-46 -54,-59 -89,-55 -83,9 -162,100 -203,164 -66,102 -50,253 54,225 110,-30 257,-267 238,-334l0 0z"></path> </svg> 