<?xml version="1.0" encoding="UTF-8"?> <svg xmlns="http://www.w3.org/2000/svg" xmlns:xlink="http://www.w3.org/1999/xlink" xml:space="preserve" width="500px" height="500px" version="1.1" style="shape-rendering:geometricPrecision; text-rendering:geometricPrecision; image-rendering:optimizeQuality; fill-rule:evenodd; clip-rule:evenodd" viewBox="0 0 87 87"> <defs> <style type="text/css"> .fil0 {fill:#B6292F} </style> </defs> <g id="Layer_x0020_1"> <metadata id="CorelCorpID_0Corel-Layer"></metadata> <path class="fil0" d="M48 55c1,-1 2,-2 3,-3 6,-5 7,-3 11,0 2,2 5,3 5,6 1,6 -9,13 -22,6 -8,-4 -18,-14 -22,-22 -3,-6 -4,-13 0,-18 1,-1 4,-4 7,-4 2,1 2,2 3,3 1,1 5,5 5,6 2,4 -4,9 -6,10 1,4 13,16 16,16zm-48 -11c0,3 1,7 1,9 6,24 29,39 52,33 17,-3 29,-16 33,-32 3,-14 0,-28 -9,-38 -2,-3 -5,-6 -8,-8 -8,-5 -16,-8 -25,-8 -7,0 -12,2 -18,4 -9,4 -18,13 -22,22 -2,6 -4,11 -4,18z"></path> </g> </svg> 