<?xml version="1.0" encoding="UTF-8"?> <svg xmlns="http://www.w3.org/2000/svg" xmlns:xlink="http://www.w3.org/1999/xlink" xml:space="preserve" width="172.206mm" height="45.1556mm" version="1.1" style="shape-rendering:geometricPrecision; text-rendering:geometricPrecision; image-rendering:optimizeQuality; fill-rule:evenodd; clip-rule:evenodd" viewBox="0 0 269839 70757"> <defs> <style type="text/css"> .fil0 {fill:none} .fil1 {fill:#75B709} </style> </defs> <rect class="fil0" width="269839" height="70757"></rect> <g id="_1745930303280"> <path id="path10" class="fil1" d="M79901 22138c-93,12 -427,53 -731,88 -4049,462 -7660,2592 -9761,5758 -1878,2826 -2563,6402 -1913,9948 1059,5752 5594,9848 11738,10597 931,117 2879,129 3822,30 2779,-299 4897,-1142 6858,-2733 597,-486 1474,-1334 1913,-1867 1463,-1755 948,-4436 -1059,-5489 -1094,-579 -2218,-585 -3347,-35 -410,205 -609,357 -1200,931 -1217,1182 -2159,1773 -3341,2089 -521,140 -685,152 -1633,158 -1258,5 -1755,-100 -2692,-551 -1263,-614 -2147,-1655 -2627,-3101 -304,-907 -404,-1574 -404,-2633 0,-1305 211,-2312 673,-3248 954,-1919 2680,-2926 4992,-2914 1931,12 3651,907 4880,2540 1375,1831 3968,2024 5565,409 773,-772 1083,-1539 1077,-2639 -12,-1240 -363,-1913 -1843,-3476 -1727,-1820 -3751,-3002 -6039,-3511 -1188,-269 -1803,-333 -3318,-357 -790,-12 -1510,-6 -1610,6z"></path> <path id="path12" class="fil1" d="M132070 22167c-5987,621 -10656,4459 -12026,9878 -468,1861 -538,3932 -205,5787 820,4483 3769,8023 8129,9755 3587,1422 8040,1399 11586,-64 4278,-1767 7162,-5325 7929,-9767 322,-1843 234,-3920 -234,-5787 -398,-1574 -1188,-3213 -2194,-4553 -504,-673 -1838,-1989 -2540,-2510 -2083,-1545 -4541,-2464 -7338,-2745 -708,-70 -2393,-64 -3107,6zm2896 6987c2288,439 3862,2154 4325,4717 275,1533 105,3341 -439,4628 -574,1346 -1592,2382 -2844,2897 -749,304 -1270,392 -2329,392 -854,0 -1071,-18 -1521,-135 -2259,-585 -3710,-2264 -4161,-4821 -129,-720 -129,-2113 0,-2844 515,-2868 2270,-4606 4980,-4922 503,-58 1439,-17 1989,88l0 0z"></path> <path id="path14" class="fil1" d="M164079 22191c-3330,415 -6057,1650 -8210,3716 -3189,3054 -4530,7607 -3605,12247 573,2879 2077,5442 4278,7280 1024,854 2469,1697 3762,2200 1978,767 4424,1129 6671,977 3066,-199 5173,-924 7315,-2510 714,-527 2218,-2013 2516,-2481 609,-972 749,-2130 380,-3184 -526,-1498 -2048,-2504 -3628,-2393 -1041,70 -1562,328 -2569,1288 -1521,1445 -2534,2013 -4002,2235 -1182,181 -2598,17 -3576,-415 -1585,-703 -2686,-2253 -3054,-4302 -123,-684 -141,-2229 -29,-2896 386,-2364 1814,-4044 3891,-4588 2446,-644 4944,216 6472,2224 462,602 860,948 1428,1223 1082,538 2206,538 3283,5 1269,-632 2024,-1837 2036,-3253 6,-972 -269,-1703 -936,-2522 -1967,-2405 -4038,-3810 -6619,-4477 -1193,-310 -2042,-409 -3669,-433 -1041,-18 -1656,0 -2135,59z"></path> <path id="path16" class="fil1" d="M190528 22144c-1872,175 -3142,491 -4365,1077 -2171,1035 -3458,2627 -4009,4968 -152,637 -216,2475 -117,3236 387,2914 2154,4997 5273,6232 743,292 1720,579 3365,977 3516,849 3967,1012 4242,1551 158,304 158,860 6,1158 -328,638 -1036,878 -2768,931 -2417,76 -3927,-398 -6062,-1920 -802,-573 -1165,-737 -1855,-825 -1434,-193 -2880,732 -3383,2165 -175,504 -175,1487 6,2013 129,363 445,907 696,1188 422,474 1815,1487 2739,1990 2651,1445 6332,2036 10123,1633 4138,-445 6765,-2242 7713,-5261 298,-954 451,-1972 451,-3055 0,-2101 -656,-3727 -2037,-5062 -1469,-1416 -3376,-2276 -6642,-3007 -2949,-656 -3575,-837 -4125,-1188 -474,-310 -620,-585 -626,-1153 0,-351 23,-445 164,-655 286,-439 790,-662 1737,-779 1920,-234 3956,427 5735,1861 749,603 1352,837 2165,837 1048,0 1937,-462 2552,-1323 673,-942 766,-2095 263,-3154 -252,-532 -644,-989 -1410,-1638 -1896,-1609 -4114,-2493 -6958,-2780 -550,-52 -2382,-70 -2873,-17l0 0z"></path> <path id="path18" class="fil1" d="M100570 22512c-1440,229 -2557,1060 -3178,2365 -398,836 -380,245 -362,10819l17 9550 176 498c439,1258 1463,2229 2779,2645 556,169 1574,187 2165,29 1136,-298 2160,-1141 2663,-2177 404,-837 398,-737 439,-4681 35,-3312 46,-3617 163,-4266 158,-837 264,-1252 463,-1808 819,-2277 2434,-3786 4541,-4231 585,-123 1100,-100 1919,76 1007,211 2066,222 2657,29 626,-210 1176,-561 1697,-1088 796,-808 1164,-1709 1164,-2844 -5,-743 -111,-1200 -433,-1843 -450,-902 -1006,-1434 -2019,-1937 -1006,-498 -1357,-574 -2721,-574 -1305,0 -1931,88 -2937,410 -1475,474 -2955,1346 -4096,2411 -211,199 -398,363 -422,363 -17,0 -35,-82 -35,-182 0,-526 -462,-1574 -948,-2147 -532,-627 -1316,-1118 -2106,-1323 -445,-111 -1171,-158 -1586,-93l0 -1z"></path> </g> </svg> 