<?xml version="1.0" encoding="UTF-8"?> <svg xmlns="http://www.w3.org/2000/svg" xmlns:xlink="http://www.w3.org/1999/xlink" xml:space="preserve" width="91.44mm" height="50.8mm" version="1.1" style="shape-rendering:geometricPrecision; text-rendering:geometricPrecision; image-rendering:optimizeQuality; fill-rule:evenodd; clip-rule:evenodd" viewBox="0 0 9144 5080"> <defs> <style type="text/css"> .fil0 {fill:none} .fil1 {fill:#75B709} </style> </defs> <g id="Layer_x0020_1"> <metadata id="CorelCorpID_0Corel-Layer"></metadata> <g id="_1746035550048"> <rect class="fil0" width="9144" height="5080"></rect> <path id="path10" class="fil1" d="M2507 2043c-4,0 -16,2 -28,3 -152,18 -287,98 -366,216 -71,107 -96,241 -72,374 40,216 210,370 441,398 35,4 108,5 143,1 104,-11 184,-43 258,-103 22,-18 55,-50 71,-70 55,-66 36,-166 -39,-206 -41,-22 -84,-22 -126,-1 -15,7 -23,13 -45,35 -46,44 -81,66 -126,78 -19,5 -25,6 -61,6 -47,0 -66,-4 -101,-21 -47,-23 -80,-62 -98,-116 -12,-34 -16,-59 -16,-99 0,-49 8,-87 26,-122 35,-72 100,-110 187,-109 72,0 137,34 183,95 52,69 149,76 209,16 29,-29 41,-58 41,-100 -1,-46 -14,-71 -70,-130 -64,-68 -140,-113 -226,-132 -45,-10 -68,-12 -125,-13 -30,-1 -57,0 -60,0z"></path> <path id="path12" class="fil1" d="M4465 2044c-225,23 -400,167 -451,371 -18,70 -21,147 -8,217 31,168 141,301 305,366 135,54 302,53 435,-2 161,-66 269,-200 298,-367 12,-69 8,-147 -9,-217 -15,-59 -45,-121 -83,-171 -18,-25 -69,-75 -95,-94 -78,-58 -170,-93 -275,-103 -27,-3 -90,-3 -117,0zm109 262c86,17 145,81 162,177 10,58 4,126 -16,174 -22,51 -60,90 -107,109 -28,11 -48,15 -88,15 -32,0 -40,-1 -57,-5 -84,-22 -139,-85 -156,-181 -5,-27 -5,-80 0,-107 19,-108 85,-173 187,-185 19,-2 54,-1 75,3l0 0z"></path> <path id="path14" class="fil1" d="M5667 2045c-125,16 -228,62 -309,139 -119,115 -170,286 -135,460 22,108 78,205 161,273 38,33 92,64 141,83 74,29 166,42 250,37 115,-8 195,-35 275,-94 27,-20 83,-76 94,-94 23,-36 28,-80 15,-119 -20,-56 -77,-94 -137,-90 -39,3 -58,12 -96,48 -57,55 -95,76 -150,84 -45,7 -98,1 -134,-15 -60,-27 -101,-85 -115,-162 -5,-25 -5,-83 -1,-109 14,-88 68,-151 146,-172 92,-24 185,8 243,84 17,22 32,35 53,46 41,20 83,20 124,0 47,-24 76,-69 76,-122 0,-37 -10,-64 -35,-95 -74,-90 -152,-143 -248,-168 -45,-12 -77,-15 -138,-16 -39,-1 -62,0 -80,2z"></path> <path id="path16" class="fil1" d="M6660 2043c-71,7 -118,19 -164,41 -82,38 -130,98 -151,186 -6,24 -8,93 -4,122 14,109 81,187 198,234 28,11 64,21 126,36 132,32 149,38 159,58 6,12 6,33 0,44 -12,24 -38,33 -103,35 -91,3 -148,-15 -228,-72 -30,-22 -44,-28 -70,-31 -53,-7 -108,27 -127,81 -6,19 -6,56 1,76 4,13 16,34 26,44 16,18 68,56 103,75 99,54 237,76 380,61 155,-16 254,-84 289,-197 11,-36 17,-74 17,-115 0,-79 -25,-140 -76,-190 -56,-53 -127,-85 -250,-113 -110,-24 -134,-31 -155,-44 -17,-12 -23,-22 -23,-44 0,-13 1,-16 6,-24 11,-17 30,-25 65,-30 72,-8 149,17 216,70 28,23 50,32 81,32 39,0 73,-18 96,-50 25,-35 28,-79 9,-118 -9,-20 -24,-37 -52,-62 -72,-60 -155,-93 -262,-104 -20,-2 -89,-3 -108,-1l1 0z"></path> <path id="path18" class="fil1" d="M3283 2057c-54,9 -96,40 -120,89 -15,31 -14,9 -13,406l0 358 7 19c16,47 55,84 104,99 21,7 59,7 82,2 42,-12 81,-43 99,-82 16,-32 15,-28 17,-176 1,-124 2,-136 6,-160 6,-31 10,-47 17,-68 31,-85 92,-142 171,-159 22,-4 41,-4 72,3 38,8 78,8 100,1 23,-8 44,-21 63,-41 30,-30 44,-64 44,-106 0,-28 -4,-45 -16,-70 -17,-33 -38,-53 -76,-72 -38,-19 -51,-22 -102,-22 -49,0 -73,3 -110,15 -56,18 -111,51 -154,91 -8,7 -15,14 -16,14 -1,0 -1,-3 -1,-7 0,-20 -18,-59 -36,-81 -20,-23 -49,-42 -79,-49 -17,-5 -44,-6 -59,-4l0 0z"></path> </g> </g> </svg> 