<?xml version="1.0" encoding="UTF-8"?> <svg xmlns="http://www.w3.org/2000/svg" xmlns:xlink="http://www.w3.org/1999/xlink" xml:space="preserve" width="91.44mm" height="50.8mm" version="1.1" style="shape-rendering:geometricPrecision; text-rendering:geometricPrecision; image-rendering:optimizeQuality; fill-rule:evenodd; clip-rule:evenodd" viewBox="0 0 9144 5080"> <defs> <style type="text/css"> .str0 {stroke:black;stroke-width:17.01} .fil0 {fill:none} .fil3 {fill:black} .fil1 {fill:black} .fil4 {fill:#FC0006} .fil2 {fill:#FEFDFD} .fil5 {fill:black;fill-rule:nonzero} </style> </defs> <g id="Layer_x0020_1"> <metadata id="CorelCorpID_0Corel-Layer"></metadata> <g id="_1746035538976"> <rect class="fil0" width="9144" height="5080"></rect> <path class="fil1" d="M5584 3166c74,-26 88,135 28,155 -43,15 -64,-23 -68,-59 -4,-40 0,-83 40,-96zm-17 -38c-63,23 -72,89 -63,149 9,56 55,106 122,83 109,-38 75,-282 -59,-232z"></path> <path class="fil1" d="M5802 3167c74,-31 90,130 31,154 -42,17 -66,-24 -70,-60 -4,-47 4,-80 39,-94zm-13 -41c-111,34 -83,275 52,236 110,-33 86,-278 -52,-236z"></path> <path class="fil2" d="M3348 2508c-83,14 -183,69 -218,146 -61,134 76,145 150,33 28,-42 59,-121 68,-179z"></path> <path class="fil2" d="M5702 2473l233 -55c36,-233 -215,-151 -233,55z"></path> <path class="fil2" d="M5584 3166c-40,13 -44,56 -40,96 4,36 25,74 68,59 60,-20 46,-181 -28,-155z"></path> <path class="fil2" d="M5802 3167c-35,14 -43,47 -39,94 4,36 28,77 70,60 59,-24 43,-185 -31,-154z"></path> <path class="fil3" d="M4125 2313c4,-46 8,-72 4,-120 -20,-4 -270,13 -293,19l-8 31c38,16 53,16 47,67 -4,39 -59,225 -72,270 -14,53 -51,219 -88,255 -12,12 -18,14 -38,19 -16,5 -15,-7 -24,38l385 0 9 -35c-69,-21 -52,-74 -36,-140 32,-124 88,-383 227,-387 81,-3 49,90 34,140 -19,67 -70,266 -93,315 -25,58 -47,57 -81,70 -18,6 -6,-4 -13,11 -2,3 -6,21 -7,26l397 0 9 -34c-64,-20 -56,-53 -40,-117 29,-124 94,-303 109,-417 8,-59 3,-105 -42,-127 -43,-22 -105,-20 -154,-10 -49,9 -88,27 -126,49 -50,29 -83,64 -106,77z"></path> <path class="fil3" d="M3348 2508c-9,58 -40,137 -68,179 -74,112 -211,101 -150,-33 35,-77 135,-132 218,-146zm-253 -307c-10,14 -89,222 -95,249 52,0 18,-8 106,-96 57,-57 186,-109 259,-71 46,24 23,90 9,135 -217,40 -434,105 -504,272 -107,255 209,263 353,161l57 -44c1,41 1,49 11,84l284 1c12,-7 4,5 11,-15 2,-5 4,-14 5,-20 -55,-25 -69,-43 -53,-121 24,-114 110,-347 113,-438 2,-111 -140,-129 -243,-128 -97,1 -152,22 -238,40 -39,9 -41,-2 -75,-9z"></path> <path class="fil3" d="M5702 2473c18,-206 269,-288 233,-55l-233 55zm280 426l158 -275 -36 -6c-18,35 -66,88 -96,110 -37,29 -80,57 -142,62 -145,12 -199,-89 -183,-228l504 -119c0,-38 -11,-89 -23,-122 -46,-130 -161,-161 -303,-148 -176,16 -313,121 -381,219 -63,91 -109,230 -60,344 18,43 35,60 62,87 122,124 310,82 500,76z"></path> <path class="fil3" d="M2228 2031c20,13 33,9 42,29 7,18 3,44 0,63 -7,41 -17,80 -26,120l-107 469c-52,225 -100,89 -105,186l588 0c41,0 44,1 76,13l183 -366 -30 -11c-38,77 -136,185 -210,230 -61,37 -224,84 -230,-11 -4,-61 78,-385 95,-459 16,-69 34,-205 83,-242 29,-22 56,-5 53,-57l-402 0 -10 36z"></path> <path class="fil3" d="M5166 2904c19,-48 143,-217 149,-246l-29 -8c-39,45 -43,63 -98,101 -137,95 -333,41 -272,-209 27,-108 81,-196 155,-238 40,-23 106,-38 154,-12 44,24 61,72 63,137l35 -1 14 -257c-42,7 -64,15 -110,13 -110,-5 -197,-33 -322,30 -273,137 -343,488 -166,639 103,87 282,45 427,51z"></path> <path class="fil3" d="M6622 2314c3,-38 15,-83 3,-121 -33,-6 -247,12 -291,18l-8 32c51,24 66,16 28,147 -16,58 -32,114 -48,173 -16,57 -32,115 -49,173 -19,71 -25,105 -98,122l-9 34 385 0 9 -36c-77,-17 -46,-100 -29,-163 24,-86 67,-275 135,-324 77,-56 139,-3 173,9l100 -192c-79,-10 -120,-3 -179,30 -68,39 -97,83 -122,98z"></path> <path class="fil3" d="M6158 3359c40,0 32,6 39,-37 2,-16 5,-31 8,-47 4,-21 9,-73 15,-90l24 132c8,47 -3,42 47,42l54 -230 -41 -1 -32 163 -29 -162 -44 -1 -27 163 -31 -162 -43 -1 40 174c5,18 6,47 20,57z"></path> <path class="fil3" d="M6811 3168c42,0 80,-7 80,31 0,38 -40,31 -80,30l0 -61zm95 81c11,-16 25,-24 26,-54 0,-81 -85,-72 -160,-66 -1,38 -5,205 2,230l37 0 1 -90c69,-1 73,-5 74,51 0,47 -2,39 49,39 -19,-46 7,-76 -29,-110z"></path> <polygon class="fil3" points="6418,3169 6521,3169 6521,3128 6378,3128 6378,3359 6526,3359 6526,3318 6418,3317 6418,3259 6513,3258 6511,3218 6418,3217 "></polygon> <polygon class="fil3" points="5336,3358 5378,3359 5378,3262 5463,3261 5463,3222 5378,3221 5377,3170 5475,3168 5476,3130 5337,3128 "></polygon> <polygon class="fil3" points="5922,3168 5981,3169 5983,3359 6022,3358 6022,3169 6081,3168 6081,3128 5922,3128 "></polygon> <path class="fil4" d="M3550 2969c6,8 9,17 18,28 99,123 209,223 345,306 141,87 302,162 497,197 305,55 589,-10 738,-272 34,-60 80,-182 83,-262 -28,-2 -226,-8 -234,6l-5 9c-12,26 -10,37 -35,81 -131,231 -414,249 -659,193 -133,-30 -264,-92 -362,-154 -57,-37 -101,-71 -147,-111 -15,-13 -18,-22 -47,-22l-192 1z"></path> <path class="fil4" d="M3215 2115l233 -3c27,-52 31,-103 92,-167 286,-298 869,-91 1113,142 36,34 35,25 107,25 45,0 90,-1 135,0 -16,-46 -131,-155 -164,-185 -174,-163 -440,-302 -692,-347 -303,-55 -590,9 -740,267 -30,53 -84,190 -84,268z"></path> <path class="fil1" d="M6551 3359l45 0 12 -47 71 0c5,10 5,16 8,25 7,28 7,23 50,22l-68 -230 -48 -1 -70 231zm95 -175c-10,26 -24,78 -24,78l46 0 -22 -78z"></path> <path class="fil0 str0" d="M7030 2115c45,0 82,37 82,82 0,46 -37,82 -82,82 -45,0 -82,-36 -82,-82 0,-45 37,-82 82,-82z"></path> <path class="fil5" d="M7000 2239l0 -83 35 0c9,0 16,0 20,2 4,1 7,4 9,8 3,4 4,8 4,13 0,6 -2,11 -5,15 -4,5 -10,7 -17,8 4,2 7,5 9,7 2,3 6,7 10,14l10 16 -20 0 -12 -18c-5,-7 -8,-11 -9,-13 -2,-1 -4,-2 -5,-3 -2,-1 -5,-1 -9,-1l-3 0 0 35 -17 0zm17 -48l12 0c8,0 13,0 15,-1 2,-1 4,-2 5,-4 1,-1 2,-3 2,-6 0,-3 -1,-5 -3,-7 -1,-1 -3,-3 -6,-3 -1,0 -5,0 -12,0l-13 0 0 21z"></path> </g> </g> </svg> 