<?xml version="1.0" encoding="UTF-8"?> <svg xmlns="http://www.w3.org/2000/svg" xmlns:xlink="http://www.w3.org/1999/xlink" xml:space="preserve" width="172.206mm" height="45.1556mm" version="1.1" style="shape-rendering:geometricPrecision; text-rendering:geometricPrecision; image-rendering:optimizeQuality; fill-rule:evenodd; clip-rule:evenodd" viewBox="0 0 269839 70757"> <defs> <style type="text/css"> .fil0 {fill:none} .fil3 {fill:black} .fil1 {fill:black} .fil4 {fill:#FC0006} .fil2 {fill:#FEFDFD} .fil6 {fill:black;fill-rule:nonzero} .fil5 {fill:black;fill-rule:nonzero} </style> </defs> <g id="Layer_x0020_1"> <metadata id="CorelCorpID_0Corel-Layer"></metadata> <rect class="fil0" width="269839" height="70757"></rect> <g id="_1747944777680"> <path class="fil1" d="M165796 54466c2273,-780 2682,4120 859,4745 -1325,455 -1964,-715 -2080,-1807 -131,-1229 7,-2521 1221,-2938zm-519 -1150c-1905,712 -2199,2725 -1908,4554 270,1690 1660,3240 3709,2529 3329,-1156 2290,-8613 -1801,-7083z"></path> <path class="fil1" d="M172447 54504c2265,-929 2754,3964 940,4694 -1280,516 -2015,-727 -2119,-1814 -135,-1428 103,-2439 1179,-2880zm-381 -1240c-3400,1034 -2550,8384 1567,7183 3371,-984 2630,-8459 -1567,-7183z"></path> <path class="fil2" d="M97560 34407c-2513,415 -5577,2088 -6644,4440 -1867,4112 2322,4419 4585,1021 849,-1275 1789,-3710 2059,-5461z"></path> <path class="fil2" d="M169411 33332l7101 -1684c1096,-7103 -6558,-4605 -7101,1684z"></path> <path class="fil2" d="M165796 54466c-1214,417 -1352,1709 -1221,2938 116,1092 755,2262 2080,1807 1823,-625 1414,-5525 -859,-4745z"></path> <path class="fil2" d="M172447 54504c-1076,441 -1314,1452 -1179,2880 104,1087 839,2330 2119,1814 1814,-730 1325,-5623 -940,-4694z"></path> <path class="fil3" d="M121270 28437c135,-1398 269,-2177 132,-3645 -610,-118 -8225,391 -8948,574l-232 961c1149,475 1614,481 1442,2044 -130,1180 -1815,6858 -2198,8241 -442,1596 -1560,6658 -2683,7755 -379,370 -575,437 -1175,598 -500,134 -465,-227 -736,1152l11751 -3 263 -1055c-2090,-638 -1576,-2279 -1072,-4270 959,-3787 2667,-11684 6928,-11833 2446,-86 1468,2758 1035,4276 -585,2055 -2160,8129 -2838,9633 -786,1744 -1447,1726 -2484,2110 -547,203 -194,-108 -407,335 -47,98 -162,667 -190,809l12098 -3 270 -1038c-1944,-609 -1686,-1615 -1224,-3568 895,-3788 2891,-9250 3351,-12718 241,-1816 78,-3197 -1305,-3887 -1304,-651 -3188,-591 -4686,-307 -1504,285 -2695,846 -3847,1509 -1515,871 -2526,1940 -3245,2330z"></path> <path class="fil3" d="M97560 34407c-270,1751 -1210,4186 -2059,5461 -2263,3398 -6452,3091 -4585,-1021 1067,-2352 4131,-4025 6644,-4440zm-7698 -9384c-316,436 -2729,6780 -2924,7600 1612,13 564,-222 3244,-2911 1739,-1745 5686,-3322 7896,-2173 1413,734 725,2739 291,4106 -6617,1226 -13240,3223 -15378,8316 -3268,7784 6367,8024 10777,4921l1723 -1356c30,1245 22,1496 344,2564l8667 28c370,-225 113,156 345,-470 54,-144 103,-425 140,-585 -1666,-778 -2105,-1332 -1608,-3690 737,-3488 3361,-10601 3429,-13381 82,-3397 -4249,-3929 -7398,-3894 -2966,33 -4660,665 -7270,1217 -1199,254 -1251,-70 -2278,-292z"></path> <path class="fil3" d="M169411 33332c543,-6289 8197,-8787 7101,-1684l-7101 1684zm8544 13006l4814 -8406 -1116 -183c-550,1082 -2016,2693 -2908,3380 -1148,885 -2459,1718 -4350,1879 -4403,377 -6052,-2728 -5570,-6964l15368 -3619c12,-1181 -337,-2717 -699,-3737 -1410,-3970 -4914,-4904 -9229,-4516 -5381,484 -9580,3690 -11650,6683 -1923,2779 -3302,7025 -1834,10490 565,1331 1071,1839 1905,2681 3737,3773 9446,2475 15269,2312z"></path> <path class="fil3" d="M63411 19838c610,402 1006,275 1258,889 229,559 88,1360 -4,1938 -200,1249 -510,2430 -786,3654l-3270 14311c-1573,6852 -3037,2723 -3192,5668l17933 1c1261,-2 1357,32 2325,413l5591 -11188 -914 -322c-1163,2330 -4156,5646 -6409,7003 -1876,1130 -6842,2559 -7028,-330 -120,-1860 2383,-11746 2898,-13991 482,-2104 1031,-6253 2528,-7393 890,-678 1725,-163 1616,-1739l-12265 -2 -281 1088z"></path> <path class="fil3" d="M153038 46470c586,-1440 4378,-6616 4546,-7506l-881 -222c-1177,1353 -1301,1910 -2984,3077 -4169,2892 -10164,1250 -8289,-6384 804,-3278 2452,-5971 4706,-7256 1227,-700 3259,-1161 4706,-370 1341,733 1855,2193 1930,4189l1077 -49 404 -7820c-1269,205 -1943,453 -3342,393 -3354,-146 -6019,-1017 -9822,901 -8326,4200 -10461,14893 -5067,19494 3128,2668 8606,1392 13016,1553z"></path> <path class="fil3" d="M197467 28483c98,-1150 464,-2523 93,-3695 -1010,-173 -7528,377 -8887,544l-244 999c1561,721 2019,467 876,4475 -507,1779 -974,3470 -1481,5280 -482,1718 -987,3500 -1476,5270 -597,2155 -780,3195 -3017,3724l-260 1035 11757 1 271 -1103c-2349,-501 -1403,-3039 -884,-4959 716,-2646 2022,-8406 4102,-9906 2344,-1691 4259,-79 5272,282l3056 -5847c-2404,-299 -3652,-100 -5459,924 -2058,1166 -2963,2504 -3719,2976z"></path> <path class="fil3" d="M183302 60371c1239,-1 975,186 1189,-1131 81,-502 163,-940 250,-1433 113,-640 292,-2230 470,-2756l715 4044c247,1440 -70,1283 1451,1259l1643 -7001 -1260 -40 -963 4971 -905 -4939 -1328 -30 -820 4969 -963 -4943 -1310 -27 1237 5313c133,553 179,1450 594,1744z"></path> <path class="fil3" d="M203248 54543c1269,-12 2426,-225 2425,940 -1,1155 -1202,945 -2429,929l4 -1869zm2873 2473c365,-501 783,-725 794,-1653 27,-2466 -2581,-2193 -4882,-2020 -19,1171 -143,6260 65,7030l1139 -14 20 -2744c2120,-26 2231,-156 2256,1563 21,1433 -34,1191 1511,1192 -584,-1420 198,-2324 -903,-3354z"></path> <polygon class="fil3" points="191257,54564 194387,54559 194394,53320 190016,53317 190015,60369 194546,60368 194546,59124 191248,59100 191254,57302 194156,57286 194080,56052 191243,56046 "></polygon> <polygon class="fil3" points="158246,60335 159499,60363 159499,57421 162118,57388 162117,56189 159501,56144 159495,54588 162482,54554 162500,53373 158259,53318 "></polygon> <polygon class="fil3" points="176110,54552 177908,54567 177967,60364 179158,60353 179171,54568 180957,54536 180960,53325 176119,53318 "></polygon> <path class="fil4" d="M103724 48459c192,239 279,519 567,877 3024,3748 6368,6791 10523,9335 4307,2636 9208,4932 15150,6006 9317,1683 17974,-315 22528,-8297 1051,-1843 2440,-5562 2524,-8005 -847,-55 -6873,-228 -7128,198l-145 254c-368,787 -316,1143 -1080,2488 -3998,7041 -12635,7583 -20090,5894 -4073,-923 -8058,-2807 -11055,-4718 -1746,-1112 -3084,-2167 -4502,-3389 -452,-389 -549,-664 -1414,-672l-5878 29z"></path> <path class="fil4" d="M93526 22397l7093 -72c821,-1584 945,-3153 2805,-5087 8744,-9093 26524,-2799 33982,4328 1082,1033 1058,749 3250,748 1373,0 2760,-19 4131,0 -495,-1397 -4019,-4721 -5021,-5655 -5312,-4951 -13416,-9192 -21110,-10582 -9230,-1666 -17991,294 -22565,8159 -943,1623 -2568,5806 -2565,8161z"></path> <path class="fil1" d="M195316 60372l1369 -3 372 -1433 2158 -8c149,319 161,501 234,780 222,841 233,678 1526,649l-2058 -6999 -1486 -53 -2115 7067zm2877 -5341c-285,798 -715,2386 -715,2386l1400 0 -685 -2386z"></path> <g> <path class="fil5" d="M212681 24920l-519 0 0 0 -3 -116 -8 -114 -14 -112 -20 -111 -25 -108 -31 -107 -35 -104 -40 -102 -45 -100 -50 -96 -54 -94 -58 -92 -63 -88 -66 -84 -71 -82 -75 -78 -78 -75 -81 -70 -85 -67 -88 -63 -91 -58 -94 -54 -97 -50 -100 -45 -102 -40 -104 -35 -107 -31 -108 -24 -111 -20 -112 -15 -115 -8 -115 -3 0 -519 142 3 140 11 138 18 137 24 134 31 131 37 129 44 125 49 123 56 119 61 116 66 112 72 109 77 104 82 100 87 96 92 92 96 87 100 82 104 77 109 72 112 66 116 62 119 55 123 50 125 43 129 37 131 31 134 25 136 17 139 11 140 3 142 0 0zm-2765 2766l0 -519 0 0 115 -3 115 -9 112 -14 111 -20 108 -25 107 -30 104 -35 102 -40 100 -45 97 -50 94 -54 91 -58 88 -63 85 -67 81 -71 78 -74 75 -78 71 -82 66 -84 63 -89 58 -91 54 -94 50 -97 45 -99 40 -102 35 -104 31 -107 25 -108 20 -111 14 -113 8 -114 3 -116 519 0 -3 142 -11 141 -17 138 -25 136 -31 134 -37 132 -43 128 -50 126 -55 122 -61 120 -67 116 -72 112 -77 108 -82 105 -87 100 -92 96 -96 92 -100 86 -104 83 -109 77 -112 72 -116 66 -119 61 -123 56 -125 49 -129 44 -131 37 -134 31 -137 24 -138 18 -140 11 -142 3 0 0zm-2766 -2766l519 0 0 0 3 116 9 114 14 113 20 111 25 108 30 107 35 104 40 102 45 99 50 97 54 94 58 91 63 89 67 84 71 82 74 78 78 74 82 71 85 67 88 63 91 58 94 54 96 50 100 45 102 40 104 35 107 30 109 25 110 20 112 14 115 9 116 3 0 519 -143 -3 -140 -11 -138 -18 -137 -24 -133 -31 -132 -37 -128 -44 -126 -49 -123 -56 -119 -61 -116 -66 -112 -72 -108 -77 -105 -83 -100 -86 -96 -92 -92 -96 -86 -100 -82 -105 -78 -108 -71 -112 -67 -116 -61 -120 -56 -122 -49 -126 -44 -128 -37 -132 -31 -134 -24 -136 -18 -138 -10 -141 -4 -142 0 0zm2766 -2765l0 519 0 0 -116 3 -115 8 -112 15 -110 20 -109 24 -107 31 -104 35 -102 40 -100 45 -96 50 -94 54 -91 58 -88 63 -85 67 -82 70 -78 75 -74 78 -71 82 -67 84 -63 88 -58 92 -54 94 -50 96 -45 100 -40 102 -35 104 -30 107 -25 108 -20 111 -14 112 -9 114 -3 116 -519 0 4 -142 10 -140 18 -139 24 -136 31 -134 37 -131 44 -129 49 -125 56 -123 61 -119 66 -116 72 -112 78 -109 82 -104 86 -100 92 -96 96 -92 100 -87 105 -82 108 -77 112 -72 116 -66 119 -61 123 -56 126 -49 128 -44 132 -37 133 -31 137 -24 138 -18 140 -11 143 -3 0 0z"></path> </g> <path class="fil6" d="M209000 26190l0 -2540 1081 0c271,0 469,23 592,68 123,46 221,127 295,244 74,117 112,250 112,400 0,191 -56,348 -168,473 -112,124 -279,202 -501,234 111,65 202,136 273,213 73,78 169,215 291,413l310 495 -613 0 -368 -554c-132,-197 -222,-321 -271,-373 -49,-51 -100,-86 -155,-105 -55,-19 -141,-28 -259,-28l-104 0 0 1060 -515 0zm515 -1465l379 0c246,0 400,-11 461,-31 61,-21 109,-57 144,-108 35,-51 52,-115 52,-191 0,-86 -23,-154 -69,-208 -45,-52 -110,-85 -193,-99 -41,-6 -166,-9 -374,-9l-400 0 0 646z"></path> </g> </g> </svg> 