<?xml version="1.0" encoding="UTF-8"?> <svg xmlns="http://www.w3.org/2000/svg" xmlns:xlink="http://www.w3.org/1999/xlink" xml:space="preserve" width="172.206mm" height="45.1556mm" version="1.1" style="shape-rendering:geometricPrecision; text-rendering:geometricPrecision; image-rendering:optimizeQuality; fill-rule:evenodd; clip-rule:evenodd" viewBox="0 0 8346 2189"> <defs> <style type="text/css"> .fil0 {fill:none} .fil1 {fill:#E2000F} </style> </defs> <g id="Layer_x0020_1"> <metadata id="CorelCorpID_0Corel-Layer"></metadata> <rect class="fil0" width="8346" height="2189"></rect> <path class="fil1" d="M6679 634l-280 0 -118 301 -110 -301 -287 0 268 574 0 347 250 0 -1 -350 278 -571 0 0zm-1576 250l200 0 0 671 249 0 0 -671 210 0 0 -249 -659 0 0 249 0 0zm-130 614c-1,-7 -3,-191 -3,-191 -2,-143 -101,-186 -101,-186l-3 0c34,-20 65,-50 84,-95l0 -1c16,-39 24,-81 24,-126 0,-47 -9,-93 -27,-133l1 0c-59,-142 -252,-133 -252,-133l-143 0 -249 0 0 919 249 0 0 -311 105 0c0,0 76,-2 75,113l4 107 0 70c0,0 0,24 25,22l213 0c18,-1 5,-17 5,-17 -7,-24 -7,-38 -7,-38l0 0zm-236 -513c-11,19 -33,32 -58,32 -3,0 -6,0 -9,-1l-116 0 0 -147 127 0 0 1c21,1 40,11 51,26 9,16 15,30 15,48 0,14 -3,30 -10,41l0 0zm-579 -124l-1 -227 -581 0 0 922 580 -1 0 -228 -347 0 0 -127 289 0 1 -230 -289 1 0 -110 348 0 0 0zm-759 290c-18,-43 -48,-72 -81,-92 26,-18 49,-42 64,-75l0 -1c15,-34 23,-72 23,-112 0,-42 -9,-82 -26,-118l0 0c-55,-127 -236,-120 -236,-120l-393 1 0 920 396 0c0,0 191,19 255,-143l1 -1c15,-38 24,-81 24,-126 0,-47 -9,-92 -27,-133l0 0 0 0zm-399 -296l110 0c0,0 27,-1 41,18 11,14 19,31 19,50 0,19 -8,37 -20,50l0 1c-14,19 -41,17 -41,17l-109 0 0 -136 0 0zm178 433c-11,19 -32,33 -58,33 -3,0 -5,-1 -8,-1l-112 0 0 -148 123 0 0 2c20,0 40,10 50,26 9,15 15,30 15,48 0,14 -3,29 -10,40l0 0zm-811 267l250 0 0 -921 -250 0 0 921 0 0zm-450 -920l-249 0 0 920 564 0 0 -249 -315 0 0 -671z"></path> </g> </svg> 