<?xml version="1.0" encoding="UTF-8"?> <svg xmlns="http://www.w3.org/2000/svg" xmlns:xlink="http://www.w3.org/1999/xlink" xml:space="preserve" width="91.44mm" height="50.8mm" version="1.1" style="shape-rendering:geometricPrecision; text-rendering:geometricPrecision; image-rendering:optimizeQuality; fill-rule:evenodd; clip-rule:evenodd" viewBox="0 0 3048 1693"> <defs> <style type="text/css"> .fil0 {fill:none} .fil1 {fill:#E2000F} </style> </defs> <g id="Layer_x0020_1"> <metadata id="CorelCorpID_0Corel-Layer"></metadata> <g id="_1745927565680"> <rect class="fil0" width="3048" height="1693"></rect> <path class="fil1" d="M2371 691l-95 0 -40 102 -37 -102 -97 0 91 194 0 117 84 0 0 -118 94 -193 0 0zm-533 85l68 0 0 226 84 0 0 -226 71 0 0 -85 -223 0 0 85 0 0zm-44 207c0,-2 -1,-65 -1,-65 0,-48 -34,-62 -34,-62l-1 0c12,-7 22,-17 28,-33l1 0c5,-13 8,-27 8,-42 0,-16 -4,-32 -9,-45l0 0c-20,-48 -85,-45 -85,-45l-49 0 -84 0 0 310 84 0 0 -105 36 0c0,0 26,0 25,39l2 36 0 23c0,0 -1,8 8,8l72 0c6,-1 2,-6 2,-6 -3,-8 -3,-13 -3,-13l0 0zm-80 -173c-3,6 -10,11 -19,11 -1,0 -2,0 -3,-1l-39 0 0 -49 43 0 0 0c7,0 13,4 17,9 3,5 5,10 5,16 0,5 -1,10 -4,14l0 0zm-195 -42l0 -77 -197 0 0 312 196 -1 0 -77 -117 0 0 -43 97 0 1 -77 -98 0 0 -37 118 0 0 0zm-256 98c-7,-15 -17,-25 -28,-31 9,-6 17,-14 22,-26l0 0c5,-12 7,-24 7,-38 0,-14 -3,-27 -8,-40l0 0c-19,-42 -80,-40 -80,-40l-133 0 0 311 134 0c0,0 64,7 86,-48l0 -1c6,-13 8,-27 8,-42 1,-16 -3,-31 -8,-45l0 0 0 0zm-135 -100l37 0c0,0 9,-1 13,6 4,4 7,10 7,17 0,6 -3,12 -7,17l0 0c-4,7 -13,6 -13,6l-38 0 0 -46 1 0zm60 146c-4,7 -11,11 -20,11 -1,0 -2,0 -3,0l-37 0 0 -50 41 0 0 0c7,1 14,4 17,9 3,6 5,10 5,17 0,4 -1,9 -3,13l0 0zm-274 90l84 0 0 -311 -84 0 0 311 0 0zm-152 -311l-85 0 0 311 191 0 0 -84 -106 0 0 -227z"></path> </g> </g> </svg> 