<?xml version="1.0" encoding="UTF-8"?> <svg xmlns="http://www.w3.org/2000/svg" xmlns:xlink="http://www.w3.org/1999/xlink" xml:space="preserve" width="500px" height="500px" version="1.1" style="shape-rendering:geometricPrecision; text-rendering:geometricPrecision; image-rendering:optimizeQuality; fill-rule:evenodd; clip-rule:evenodd" viewBox="0 0 92 92"> <defs> <style type="text/css"> .fil0 {fill:#B6292F} </style> </defs> <g id="Layer_x0020_1"> <metadata id="CorelCorpID_0Corel-Layer"></metadata> <path class="fil0" d="M26 42c-1,-10 5,-19 14,-22 9,-3 19,1 24,10 3,6 3,12 1,19 -2,7 -12,29 -22,23 -8,-4 -16,-21 -17,-30zm-26 4c0,3 1,8 1,11 6,24 31,40 56,34 17,-4 30,-17 34,-34 4,-14 0,-29 -9,-40 -3,-3 -6,-6 -9,-9 -8,-5 -17,-8 -27,-8 -7,0 -13,2 -19,4 -9,4 -19,14 -23,23 -2,6 -4,12 -4,19z"></path> <path class="fil0" d="M44 31c-11,3 -7,20 4,17 4,0 8,-5 7,-10 -1,-4 -5,-8 -11,-7z"></path> </g> </svg> 