<?xml version="1.0" encoding="UTF-8"?> <svg xmlns="http://www.w3.org/2000/svg" xmlns:xlink="http://www.w3.org/1999/xlink" xml:space="preserve" width="172.206mm" height="45.1556mm" version="1.1" style="shape-rendering:geometricPrecision; text-rendering:geometricPrecision; image-rendering:optimizeQuality; fill-rule:evenodd; clip-rule:evenodd" viewBox="0 0 8346 2189"> <defs> <style type="text/css"> .fil0 {fill:none} .fil1 {fill:#2B2A29;fill-rule:nonzero} </style> </defs> <g id="Layer_x0020_1"> <metadata id="CorelCorpID_0Corel-Layer"></metadata> <rect class="fil0" width="8346" height="2189"></rect> <g id="_1746035416992"> <path class="fil1" d="M3064 1368c-19,0 -33,-14 -33,-32 0,-19 14,-33 33,-33 18,0 33,14 33,33 0,18 -15,32 -33,32zm0 -78c-27,0 -48,18 -48,46 0,27 21,45 48,45 26,0 47,-18 47,-45 0,-28 -21,-46 -47,-46z"></path> <polygon class="fil1" points="3524,1130 3294,1130 3320,730 3170,1130 2956,1130 3296,225 3524,225 3497,631 3650,225 3864,225 "></polygon> <polygon class="fil1" points="3552,1130 3891,225 4105,225 3766,1130 "></polygon> <path class="fil1" d="M2932 818c-299,351 -581,818 -332,1034 98,84 206,114 313,114l1 0c157,0 313,-63 435,-112 205,-82 2479,-1069 2479,-1069 10,-5 14,-10 14,-14l0 0c0,-5 -8,-8 -23,-4 -11,3 -2476,670 -2476,670 -313,88 -669,-103 -411,-619z"></path> <path class="fil1" d="M3064 1331l-7 0 0 -12 6 0c3,0 8,1 8,6 0,5 -3,6 -7,6zm8 8c6,-1 12,-4 12,-13 0,-12 -8,-15 -21,-15l-19 0 0 49 13 0 0 -21 2 0 11 21 14 0 -12 -21z"></path> <path class="fil1" d="M5214 300c-19,0 -33,-13 -33,-32 0,-19 14,-33 33,-33 19,0 33,14 33,33 0,18 -14,32 -33,32zm0 -78c-26,0 -47,19 -47,46 0,27 21,46 47,46 27,0 48,-19 48,-46 0,-27 -21,-46 -48,-46z"></path> <path class="fil1" d="M5214 263l-7 0 0 -11 6 0c4,0 8,0 8,5 0,5 -2,6 -7,6zm8 8c7,0 12,-4 12,-13 0,-12 -8,-15 -20,-15l-19 0 0 50 12 0 0 -21 2 0 12 21 14 0 -13 -22z"></path> <path class="fil1" d="M4384 1070l-14 -472 324 -355 -310 827zm689 -694l58 -151 -653 0 -224 272 103 -272 -216 0 -337 905 214 0 144 -378 10 378 656 -1 62 -174 -249 0 82 -220 206 0 63 -168 -206 0 71 -191 216 0z"></path> </g> </g> </svg> 