<?xml version="1.0" encoding="UTF-8"?> <svg xmlns="http://www.w3.org/2000/svg" xmlns:xlink="http://www.w3.org/1999/xlink" xml:space="preserve" width="91.44mm" height="50.8mm" version="1.1" style="shape-rendering:geometricPrecision; text-rendering:geometricPrecision; image-rendering:optimizeQuality; fill-rule:evenodd; clip-rule:evenodd" viewBox="0 0 3048 1693"> <defs> <style type="text/css"> .fil0 {fill:none} .fil1 {fill:#2B2A29;fill-rule:nonzero} </style> </defs> <g id="Layer_x0020_1"> <metadata id="CorelCorpID_0Corel-Layer"></metadata> <g id="_1745933580016"> <rect class="fil0" width="3048" height="1693"></rect> <path class="fil1" d="M985 980c-9,0 -16,-7 -16,-16 0,-9 7,-16 16,-16 9,0 16,7 16,16 0,9 -7,16 -16,16zm0 -38c-13,0 -23,9 -23,22 0,13 11,22 23,22 13,0 23,-9 23,-22 0,-13 -10,-22 -23,-22z"></path> <polygon class="fil1" points="1209,864 1097,864 1110,670 1037,864 933,864 1098,425 1209,425 1196,622 1270,425 1374,425 "></polygon> <polygon class="fil1" points="1222,864 1387,425 1491,425 1326,864 "></polygon> <path class="fil1" d="M921 713c-145,170 -282,397 -161,501 48,41 100,56 152,56l1 0c76,0 151,-31 211,-54 100,-40 1203,-520 1203,-520 5,-2 7,-5 7,-6l0 0c0,-3 -4,-4 -11,-2 -6,1 -1202,325 -1202,325 -152,43 -325,-50 -200,-300z"></path> <path class="fil1" d="M985 961l-3 0 0 -5 3 0c2,0 4,0 4,2 0,3 -1,3 -4,3zm4 4c3,0 6,-1 6,-6 0,-6 -4,-7 -10,-7l-9 0 0 24 6 0 0 -10 1 0 5 10 7 0 -6 -11z"></path> <path class="fil1" d="M2029 461c-9,0 -16,-6 -16,-15 0,-10 7,-16 16,-16 10,0 16,7 16,16 0,8 -6,15 -16,15zm0 -38c-12,0 -23,9 -23,23 0,13 11,22 23,22 13,0 23,-9 23,-22 0,-14 -10,-23 -23,-23z"></path> <path class="fil1" d="M2029 443l-3 0 0 -5 3 0c2,0 4,0 4,2 0,3 -1,3 -4,3zm4 4c4,0 6,-2 6,-6 0,-6 -4,-7 -10,-7l-9 0 0 23 6 0 0 -10 1 0 6 10 6 0 -6 -10z"></path> <path class="fil1" d="M1626 835l-6 -229 157 -173 -151 402zm335 -337l28 -73 -317 0 -109 132 50 -132 -105 0 -163 439 104 0 69 -184 5 184 319 -1 30 -84 -121 0 40 -107 100 0 30 -82 -99 0 34 -92 105 0z"></path> </g> </g> </svg> 