<?xml version="1.0" encoding="UTF-8"?> <svg xmlns="http://www.w3.org/2000/svg" xmlns:xlink="http://www.w3.org/1999/xlink" xml:space="preserve" width="91.44mm" height="50.8mm" version="1.1" style="shape-rendering:geometricPrecision; text-rendering:geometricPrecision; image-rendering:optimizeQuality; fill-rule:evenodd; clip-rule:evenodd" viewBox="0 0 9144 5080"> <defs> <style type="text/css"> .fil0 {fill:none} .fil1 {fill:black} </style> </defs> <g id="Layer_x0020_1"> <metadata id="CorelCorpID_0Corel-Layer"></metadata> <rect class="fil0" width="9144" height="5080"></rect> <g> <path class="fil1" d="M4771 1279c-17,2 -33,64 -65,96 -24,23 -53,21 -69,50 -6,10 -4,29 -11,46 -13,35 -59,38 -59,76 0,41 38,49 72,78 26,24 29,40 61,52 27,9 67,-21 103,-11 30,9 59,16 65,46 6,29 0,72 -36,67 -12,-1 -65,-19 -130,-12 -78,9 -168,35 -177,122 -4,49 56,106 114,95 41,-8 22,-56 44,-79 28,-30 191,103 343,103 64,0 111,-16 158,-65 5,-4 10,-12 17,-13 6,1 18,7 21,10 122,98 215,295 663,297 64,0 135,31 194,84 52,49 83,124 113,200 45,115 125,226 247,351 7,6 107,84 115,90 2,1 9,19 6,28 -2,75 -13,291 148,301 39,2 29,-26 29,-45 0,-37 -7,-75 13,-113 27,-54 -58,-78 -55,-193 2,-85 -70,-71 -107,-136 -21,-38 -39,-58 -38,-104 8,-260 -55,-431 -87,-472 -25,-32 -45,-45 -23,-59 135,-89 166,-172 166,-172 71,-168 136,-322 224,-390 18,-14 64,-48 92,-61 83,-39 127,-63 151,-86 38,-38 68,-115 31,-162 -45,-58 -123,-12 -158,9 -248,147 -284,406 -370,555 -68,118 -179,206 -279,213 -74,5 -155,-10 -235,-45 -194,-85 -301,-195 -326,-215 -52,-40 -458,-438 -787,-455 0,0 -41,-81 -51,-83 -24,-3 -48,49 -66,55 -17,6 -45,-56 -61,-53l0 0zm-1448 2377c-31,0 -57,-26 -57,-57l0 -1026 -338 0 0 1131c0,55 45,100 100,100l591 0c55,0 100,-45 100,-100l0 -1131 -338 0 0 1026c0,31 -27,57 -58,57l0 0zm1132 -1083l-512 0c-60,0 -110,49 -110,111l0 1120 339 0 0 -1028c0,-31 26,-56 57,-56 32,0 57,24 58,55l0 1029 337 0 0 -1029c0,-31 25,-55 57,-55 31,0 57,25 57,56l0 1028 338 0 0 -1120c0,-62 -49,-111 -109,-111l-512 0zm-1979 205c0,-34 -28,-58 -58,-58l-57 0 0 623 57 0c30,0 58,-24 58,-58l0 -507zm226 717l-341 0 0 309 -338 0 0 -1231 682 0c61,0 108,50 108,111l0 700c0,61 -49,111 -111,111l0 0zm3534 34c-68,0 -125,59 -125,130 0,71 57,129 127,129 70,0 126,-58 126,-129 0,-71 -56,-130 -126,-130l-2 0zm152 129c0,84 -67,152 -150,152 -84,0 -151,-67 -151,-152 0,-82 67,-151 149,-151 85,0 152,67 152,151z"></path> </g> <path class="fil1" d="M6222 3649c24,0 36,-9 36,-25 0,-15 -12,-23 -35,-23l-6 0 0 48 5 0zm87 97l-40 0 -52 -69 0 69 -33 0 0 -174 34 0c47,0 72,17 72,51 0,23 -14,43 -35,49l-2 1 56 73zm-665 -403l0 -567c-1,-31 -26,-56 -58,-56 -31,0 -57,25 -57,57l0 566 115 0zm0 461l0 -309 -115 0 0 309 -338 0 0 -1120c0,-62 50,-111 110,-111l571 0c60,0 110,49 110,111l0 1120 -338 0z"></path> </g> </svg> 