<?xml version="1.0" encoding="UTF-8"?> <svg xmlns="http://www.w3.org/2000/svg" xmlns:xlink="http://www.w3.org/1999/xlink" xml:space="preserve" width="172.206mm" height="45.1556mm" version="1.1" style="shape-rendering:geometricPrecision; text-rendering:geometricPrecision; image-rendering:optimizeQuality; fill-rule:evenodd; clip-rule:evenodd" viewBox="0 0 269839 70757"> <defs> <style type="text/css"> .fil0 {fill:none} .fil1 {fill:black} </style> </defs> <rect class="fil0" width="269839" height="70757"></rect> <g id="_1747944775184"> <g> <path class="fil1" d="M150227 5731c-392,60 -769,1503 -1527,2255 -554,543 -1245,509 -1613,1180 -139,251 -94,678 -252,1089 -309,822 -1398,895 -1398,1790 -4,967 908,1152 1698,1838 616,552 676,932 1422,1200 637,217 1585,-492 2439,-237 701,209 1372,359 1530,1079 139,664 -10,1692 -859,1574 -287,-32 -1529,-450 -3055,-288 -1841,209 -3942,810 -4148,2862 -113,1148 1306,2501 2676,2225 948,-186 500,-1303 1016,-1846 676,-695 4509,2427 8073,2427 1500,0 2615,-379 3723,-1540 104,-88 230,-279 390,-290 151,11 415,160 502,224 2870,2307 5039,6933 15586,6988 1483,7 3173,716 4552,1975 1231,1138 1951,2907 2650,4703 1055,2695 2947,5316 5815,8233 157,156 2518,1992 2706,2130 30,18 204,433 143,665 -69,1748 -324,6834 3468,7064 927,47 684,-605 684,-1053 -2,-886 -164,-1766 303,-2672 639,-1248 -1355,-1822 -1296,-4519 41,-2011 -1647,-1668 -2505,-3200 -494,-887 -933,-1358 -900,-2444 192,-6109 -1301,-10123 -2045,-11108 -580,-745 -1061,-1041 -530,-1385 3164,-2090 3882,-4035 3882,-4035 1683,-3955 3196,-7568 5282,-9158 421,-328 1498,-1133 2160,-1449 1946,-918 2972,-1474 3537,-2024 895,-873 1602,-2691 744,-3794 -1066,-1360 -2911,-280 -3725,202 -5817,3452 -6675,9543 -8689,13040 -1608,2795 -4221,4847 -6558,5015 -1753,130 -3641,-225 -5521,-1050 -4574,-2005 -7076,-4594 -7666,-5052 -1229,-948 -10768,-10312 -18496,-10694 0,0 -959,-1920 -1200,-1952 -565,-72 -1144,1147 -1558,1289 -391,130 -1046,-1321 -1440,-1257l0 0zm-34021 55886c-728,-17 -1346,-615 -1346,-1353l2 -24106 -7945 0 0 26572c0,1303 1056,2365 2350,2365l13887 0c1303,0 2346,-1062 2346,-2365l0 -26572 -7937 0 -8 24106c0,738 -618,1336 -1349,1353l0 0zm26600 -25459l-12024 0c-1423,0 -2582,1157 -2582,2595l0 26342 7952 0 0 -24163c6,-741 605,-1327 1344,-1327 742,0 1338,573 1354,1306l0 24184 7921 0 0 -24184c9,-733 605,-1306 1345,-1306 735,0 1342,586 1348,1326l0 24164 7952 0 0 -26342c0,-1438 -1161,-2595 -2584,-2595l-12026 0zm-46520 4824c5,-804 -651,-1377 -1346,-1377l-1349 0 0 14636 1349 0c701,0 1351,-558 1346,-1358l0 -11901zm5331 16841l-8026 0 0 7272 -7941 0 0 -28937 16018 0c1433,0 2553,1165 2553,2607l0 16452c0,1444 -1163,2606 -2604,2606l0 0zm83049 801c-1596,0 -2936,1380 -2936,3051 0,1677 1340,3045 2987,3045 1634,0 2957,-1368 2957,-3045 0,-1675 -1323,-3051 -2957,-3051l-51 0zm3577 3042c0,1965 -1575,3563 -3526,3563 -1971,0 -3554,-1586 -3554,-3563 0,-1939 1583,-3560 3496,-3560 2009,0 3584,1572 3584,3560z"></path> </g> <path class="fil1" d="M184350 61440c552,0 842,-196 842,-588 0,-349 -281,-528 -818,-528l-158 0 0 1116 134 0zm2033 2287l-948 0 -1219 -1622 0 1622 -775 0 0 -4102 815 0c1106,0 1694,418 1694,1217 0,533 -347,1007 -831,1148l-57 21 1321 1716zm-15635 -9480l0 -13325c-19,-737 -612,-1302 -1353,-1302 -733,0 -1340,588 -1345,1323l0 13304 2698 0zm0 10848l0 -7264 -2698 0 0 7264 -7937 0 0 -26342c0,-1438 1158,-2595 2581,-2595l13410 0c1426,0 2585,1157 2585,2595l0 26342 -7941 0z"></path> </g> </svg> 