<?xml version="1.0" encoding="UTF-8"?> <svg xmlns="http://www.w3.org/2000/svg" xmlns:xlink="http://www.w3.org/1999/xlink" xml:space="preserve" width="91.44mm" height="50.8mm" version="1.1" style="shape-rendering:geometricPrecision; text-rendering:geometricPrecision; image-rendering:optimizeQuality; fill-rule:evenodd; clip-rule:evenodd" viewBox="0 0 9144 5080"> <defs> <style type="text/css"> .fil0 {fill:none} .fil2 {fill:#00A0E3} .fil4 {fill:#2B2A29} .fil13 {fill:#2E2F2C} .fil11 {fill:#30302E} .fil10 {fill:#31312E} .fil9 {fill:#35312E} .fil12 {fill:#35322F} .fil14 {fill:#353230} .fil1 {fill:#E31E24} .fil8 {fill:#FAFAFA} .fil5 {fill:#FBFBFB} .fil7 {fill:#FCFBFA} .fil6 {fill:#FCFCFC} .fil3 {fill:#FEFEFE} </style> </defs> <g id="Layer_x0020_1"> <metadata id="CorelCorpID_0Corel-Layer"></metadata> <g id="_1745934662480"> <rect class="fil0" width="9144" height="5080"></rect> <path class="fil1" d="M3416 847l2312 0 0 1280c-760,-563 -1531,-557 -2312,0l0 -1280z"></path> <path class="fil2" d="M3416 4233l2312 0 0 -1241c-760,546 -1531,540 -2312,0l0 1241z"></path> <path class="fil3" d="M3810 3742l145 -32 0 -111 -150 -93 -157 0 -151 94 0 382 156 99 154 0 151 -99 0 -122 -148 0c-34,111 -158,71 -161,12l0 -159c-6,-74 138,-93 161,-3l0 32zm214 -201l0 536 162 -38 0 -176 102 -33 0 245 158 -37 0 -538 -159 42 0 126 -101 41 -1 -207 -161 39zm510 0l0 536 162 -38c0,-179 0,-358 -1,-537l-161 39zm245 -34l0 575 361 0 38 -129 -241 0 0 -101 193 0 0 -124 -194 0 0 -97 200 0 40 -127 -397 3zm471 0l0 575 158 -45 0 -185 161 0 0 -124 -162 0 0 -97 200 0 40 -127 -397 3z"></path> <path class="fil3" d="M3726 1599l159 -36 0 -147 223 176 70 -120 -179 -142c298,41 280,-305 66,-305l-333 0c0,0 -8,573 -6,574zm151 -456l148 0c29,0 53,24 53,53l0 0c0,29 -24,53 -53,53l-148 0 0 -106zm459 -117l0 570 358 0 33 -122 -236 0 0 -101 192 0 0 -125 -190 0 0 -97 204 0 33 -123 -394 -2zm516 0l0 571 357 0c299,-35 268,-549 5,-570 0,0 -362,-3 -362,-1zm124 126l0 313 159 0c179,0 196,-315 9,-312l-168 -1z"></path> <path class="fil4" d="M5160 3081c-108,-27 -220,-76 -327,-116 -8,-46 -6,-90 -15,-136 -6,-31 -29,-97 -23,-122 88,-3 125,-17 190,30 13,9 21,17 33,27 13,9 16,16 29,25 25,16 51,23 73,40 1,46 2,94 10,137 8,38 26,84 30,115zm-493 -526c83,82 161,444 101,476 -80,15 -173,-117 -203,-166 -50,-82 -78,-187 -49,-297l151 -13zm566 -203c21,-52 -8,-38 38,-75l60 -50c18,-14 19,-19 41,-30 51,35 47,88 64,166 12,53 56,126 53,170 -31,34 -65,21 -118,21l-1 24c22,16 24,3 59,13l1 57c-51,8 -81,-20 -86,25 52,14 107,-9 87,83 -10,50 -72,49 -124,49 -105,0 -196,-8 -271,-69 -63,-52 -97,-230 42,-284 36,-13 28,-17 48,-38 15,-15 28,-25 50,-38 20,-11 43,-16 57,-24zm-645 101c42,11 77,25 68,66 -19,7 -35,14 -61,9l-7 -75zm569 -283l158 10c-1,12 7,0 -7,13l-278 211c-116,96 -94,91 -213,83 -5,-23 8,-61 16,-87l136 26 21 -141 150 17 17 -132zm-491 251c23,-33 43,-59 73,-85 13,-11 12,-11 25,-24 57,-57 349,-248 386,-235 18,14 59,50 72,74 -28,-2 -59,-11 -86,-5l-16 135 -155 -21 -18 131c-35,-2 -106,-28 -136,-22l-27 121 -91 3 -27 -72zm666 -263c-89,-5 -62,-2 -123,-63 -8,-8 -18,-23 -25,-32 30,8 54,24 78,39 25,16 58,33 70,56zm-743 176c22,-23 42,-38 64,-57 11,-10 19,-19 30,-30l131 -108c67,-51 91,-69 171,-116 43,-24 40,-27 94,-13 26,7 61,19 78,34 -44,10 -113,46 -155,66 -94,46 -251,164 -315,244 -12,15 -41,51 -54,56l-44 -76zm-713 -339c211,-65 578,-81 797,-65 52,4 106,9 157,19 28,5 114,17 135,37 -15,15 -40,30 -57,41 -69,46 -264,205 -315,260 -56,62 -59,34 -12,112l-32 7c-10,44 19,52 0,99 -15,39 -37,20 -67,24 -34,66 -17,197 5,272 7,24 21,51 26,70 -60,66 -407,250 -492,273 -4,-5 -1,1 -8,-10 -2,-3 -4,-7 -6,-11l-61 -127c-42,4 -92,16 -121,-11 -6,-44 24,-51 28,-87 -29,-27 -89,-27 -115,-54 6,-16 8,-14 33,-38 13,-14 22,-18 35,-40 -33,-6 -104,-43 -120,-63 21,-33 51,-35 74,-60 -31,-15 -79,-39 -91,-66l91 -47c-7,-17 -34,-42 -49,-55 -13,-12 -40,-31 -51,-49 29,-28 53,-29 92,-51 -12,-18 -55,-69 -62,-87l83 -34c-13,-35 -46,-60 -60,-95 7,-9 35,-30 49,-36l-19 -83 133 -45zm-182 18l21 93c-10,13 -44,39 -59,47 10,19 44,61 59,77 -16,23 -53,32 -76,50 10,32 34,55 45,86 -18,23 -50,33 -69,56 28,30 51,65 78,98 -13,11 -17,16 -34,28 -13,9 -26,21 -40,29 6,9 1,3 7,10 17,19 44,32 65,56 -15,26 -40,47 -47,73 25,12 59,45 81,64l-32 69c19,18 81,54 105,67l-21 102 132 15c15,15 34,50 45,73l27 60c6,13 6,13 13,22 220,-53 452,-251 537,-290 16,16 32,41 47,61l84 79c12,8 21,13 34,21 25,16 51,29 85,32 12,-11 6,-5 15,-20l32 -71c89,16 304,118 413,152 -20,-75 -86,-129 -71,-319 242,2 315,21 289,-195 -10,-86 37,-59 70,-97 7,-17 -59,-180 -75,-247 -23,-98 -15,-108 -131,-193 -292,-213 -727,-226 -1086,-199 -99,7 -193,21 -288,41 -126,26 -168,50 -255,70z"></path> <path class="fil4" d="M4078 2980c36,-37 195,-94 248,-99l9 40c-138,14 -144,31 -257,59zm-35 -60c47,-43 190,-97 265,-109l7 44c-52,3 -97,12 -143,25l-129 40zm-47 -78c49,-38 221,-87 300,-89 5,26 9,23 -3,43 -52,8 -104,7 -158,16 -49,7 -97,24 -139,30zm-24 -81c37,-26 258,-94 316,-80l0 44c-59,2 -110,2 -169,10 -52,6 -100,19 -147,26zm38 -106c82,-27 186,-52 272,-50 6,62 -6,50 -60,50 -134,-2 -188,23 -290,32l78 -32zm-87 -54c44,-35 271,-73 361,-72l-3 53c-138,-5 -223,0 -358,19zm-30 -74c105,-44 265,-80 399,-78l-6 54 -210 2c-58,4 -130,21 -183,22zm-15 -95c29,-18 155,-48 199,-57 65,-13 167,-27 235,-19l-14 58c-78,-1 -148,-7 -229,-3 -27,1 -188,22 -191,21zm-3 -88c89,-49 353,-85 470,-79l-26 64c-80,-1 -149,-13 -233,-5 -66,5 -152,19 -211,20zm10 -118c63,0 186,-75 516,-59 -8,18 -32,55 -44,66 -38,0 -79,-9 -119,-10 -42,-2 -82,-5 -125,-4 -79,2 -168,17 -239,16 20,-9 5,-4 11,-9zm46 -82c46,-23 207,-50 251,-55 103,-14 184,-8 286,-7 -13,26 -36,39 -51,66 -36,2 -81,-9 -120,-11 -138,-9 -228,-2 -366,7zm0 -92c53,-25 237,-56 307,-64 121,-13 236,-12 354,1 -18,11 -32,21 -47,33l-47 37c-43,0 -96,-11 -141,-15 -48,-3 -97,-5 -146,-5 -36,0 -278,13 -280,13zm-46 174c-15,0 -17,-1 -33,10l-5 6c11,11 14,12 25,27 -13,14 -22,10 -35,27 24,16 20,13 27,28l-37 22 32 27 -34 26c15,16 15,10 31,23 -12,11 -25,20 -35,31l32 22c-16,16 -14,16 -35,26 6,5 3,4 10,9 4,3 7,4 11,6 9,5 8,4 16,10 -14,16 -22,18 -33,32l36 21 -31 32 34 16 -29 36 38 10c-11,25 -11,10 -26,43l35 9c-4,13 1,1 -4,11 -8,13 -8,5 -18,29l37 7 -22 42 38 5c-5,16 -14,27 -20,43l41 0 -21 45 43 0 -16 44 40 -3 -14 47 40 -7 -11 48 40 -10 -10 46c78,-7 289,-113 357,-156 -11,-72 -52,-136 -57,-283 -7,-204 64,-431 209,-559 33,-28 52,-51 99,-75 17,-9 36,-15 51,-28 -100,-29 -309,-21 -416,-11 -175,17 -246,50 -370,70 8,19 14,22 24,40l-37 14c6,15 11,21 23,33 -11,10 -24,13 -39,18l29 35 -39 14c8,20 0,8 15,24 9,10 6,4 14,18z"></path> <path class="fil5" d="M4429 2915l-36 0 14 -36 35 0 -13 36zm25 -57l-35 0 12 -36 36 -1 -13 37zm-53 -41l-37 0 13 -35 37 -1 -13 36zm37 -50l-36 0 13 -37 37 0 -14 37zm-53 -42l-37 2 12 -37 38 -1 -13 36zm44 -59l-36 2 11 -37 40 0 -15 35zm-54 -40l-36 1 13 -36 38 -1 -15 36zm64 -48l-37 0c4,-18 5,-26 20,-36l29 0 -12 36zm-90 -40c4,-20 3,-18 14,-36l35 -1c-5,18 -6,25 -19,37l-30 0zm85 -49c0,-19 7,-31 17,-44l42 1 -19 43 -40 0zm-52 -92l48 1 -20 42 -42 0 14 -43zm77 -1c10,-34 6,-44 39,-44l22 1 -15 42 -46 1zm-46 -92l41 0 -12 44 -49 -3 20 -41zm109 -33l42 -1c-2,17 -8,29 -17,44l-43 -2 18 -41zm-64 -49l43 1c-4,17 -7,27 -19,42l-42 -3 18 -40zm108 20c5,-19 8,-35 25,-45l37 2 -16 42 -46 1zm-48 -94l47 2 -18 42 -44 0 15 -44zm137 -21l46 0 -17 44 -45 -1 16 -43zm-64 -48l47 -1 -20 43 -42 -1 15 -41zm157 -17l45 0 -19 43 -44 -1 18 -42zm-67 -50l48 1 -20 43 -21 0 -21 -1 14 -43zm141 36c12,-46 10,-47 60,-43 -5,18 -9,29 -20,42l-40 1zm-937 178c-8,-14 -5,-8 -14,-18 -15,-16 -7,-4 -15,-24l39 -14 -29 -35c15,-5 28,-8 39,-18 -12,-12 -17,-18 -23,-33l37 -14c-10,-18 -16,-21 -24,-40 124,-20 195,-53 370,-70 107,-10 316,-18 416,11 -15,13 -34,19 -51,28 -47,24 -66,47 -99,75 -145,128 -216,355 -209,559 5,147 46,211 57,283 -68,43 -279,149 -357,156l10 -46 -40 10 11 -48 -40 7 14 -47 -40 3 16 -44 -43 0 21 -45 -41 0c6,-16 15,-27 20,-43l-38 -5 22 -42 -37 -7c10,-24 10,-16 18,-29 5,-10 0,2 4,-11l-35 -9c15,-33 15,-18 26,-43l-38 -10 29 -36 -34 -16 31 -32 -36 -21c11,-14 19,-16 33,-32 -8,-6 -7,-5 -16,-10 -4,-2 -7,-3 -11,-6 -7,-5 -4,-4 -10,-9 21,-10 19,-10 35,-26l-32 -22c10,-11 23,-20 35,-31 -16,-13 -16,-7 -31,-23l34 -26 -32 -27 37 -22c-7,-15 -3,-12 -27,-28 13,-17 22,-13 35,-27 -11,-15 -14,-16 -25,-27l5 -6c16,-11 18,-10 33,-10zm891 -270l43 0 -15 43 -48 0 20 -43zm-1033 84l19 83c-14,6 -42,27 -49,36 14,35 47,60 60,95l-83 34c7,18 50,69 62,87 -39,22 -63,23 -92,51 11,18 38,37 51,49 15,13 42,38 49,55l-91 47c12,27 60,51 91,66 -23,25 -53,27 -74,60 16,20 87,57 120,63 -13,22 -22,26 -35,40 -25,24 -27,22 -33,38 26,27 86,27 115,54 -4,36 -34,43 -28,87 29,27 79,15 121,11l61 127c2,4 4,8 6,11 7,11 4,5 8,10 85,-23 432,-207 492,-273 -5,-19 -19,-46 -26,-70 -22,-75 -39,-206 -5,-272 30,-4 52,15 67,-24 19,-47 -10,-55 0,-99l32 -7c-47,-78 -44,-50 12,-112 51,-55 246,-214 315,-260 17,-11 42,-26 57,-41 -21,-20 -107,-32 -135,-37 -51,-10 -105,-15 -157,-19 -219,-16 -586,0 -797,65l-133 45z"></path> <path class="fil6" d="M5267 2375c14,-34 48,-37 82,-29 31,6 51,21 58,49 -68,8 -88,6 -140,-20zm-34 -23c-14,8 -37,13 -57,24 -22,13 -35,23 -50,38 -20,21 -12,25 -48,38 -139,54 -105,232 -42,284 75,61 166,69 271,69 52,0 114,1 124,-49 20,-92 -35,-69 -87,-83 5,-45 35,-17 86,-25l-1 -57c-35,-10 -37,3 -59,-13l1 -24c53,0 87,13 118,-21 3,-44 -41,-117 -53,-170 -17,-78 -13,-131 -64,-166 -22,11 -23,16 -41,30l-60 50c-46,37 -17,23 -38,75z"></path> <path class="fil6" d="M4516 2568c-29,110 -1,215 49,297 30,49 123,181 203,166 60,-32 -18,-394 -101,-476l-151 13z"></path> <path class="fil6" d="M4833 2965c107,40 219,89 327,116 -4,-31 -22,-77 -30,-115 -8,-43 -9,-91 -10,-137 -22,-17 -48,-24 -73,-40 -13,-9 -16,-16 -29,-25 -12,-10 -20,-18 -33,-27 -65,-47 -102,-33 -190,-30 -6,25 17,91 23,122 9,46 7,90 15,136z"></path> <path class="fil6" d="M4666 2421l27 72 91 -3 27 -121c30,-6 101,20 136,22l18 -131 155 21 16 -135c27,-6 58,3 86,5 -13,-24 -54,-60 -72,-74 -37,-13 -329,178 -386,235 -13,13 -12,13 -25,24 -30,26 -50,52 -73,85z"></path> <path class="fil5" d="M4589 2334l44 76c13,-5 42,-41 54,-56 64,-80 221,-198 315,-244 42,-20 111,-56 155,-66 -17,-15 -52,-27 -78,-34 -54,-14 -51,-11 -94,13 -80,47 -104,65 -171,116l-131 108c-11,11 -19,20 -30,30 -22,19 -42,34 -64,57z"></path> <path class="fil5" d="M5140 2302l-150 -17 -21 141 -136 -26c-8,26 -21,64 -16,87 119,8 97,13 213,-83l278 -211c14,-13 6,-1 7,-13l-158 -10 -17 132z"></path> <path class="fil5" d="M3931 2052c2,0 244,-13 280,-13 49,0 98,2 146,5 45,4 98,15 141,15l47 -37c15,-12 29,-22 47,-33 -118,-13 -233,-14 -354,-1 -70,8 -254,39 -307,64z"></path> <path class="fil5" d="M3931 2144c138,-9 228,-16 366,-7 39,2 84,13 120,11 15,-27 38,-40 51,-66 -102,-1 -183,-7 -286,7 -44,5 -205,32 -251,55z"></path> <path class="fil5" d="M3885 2226c-6,5 9,0 -11,9 71,1 160,-14 239,-16 43,-1 83,2 125,4 40,1 81,10 119,10 12,-11 36,-48 44,-66 -330,-16 -453,59 -516,59z"></path> <path class="fil7" d="M3875 2344c59,-1 145,-15 211,-20 84,-8 153,4 233,5l26 -64c-117,-6 -381,30 -470,79z"></path> <path class="fil5" d="M3878 2432c3,1 164,-20 191,-21 81,-4 151,2 229,3l14 -58c-68,-8 -170,6 -235,19 -44,9 -170,39 -199,57z"></path> <path class="fil5" d="M3893 2527c53,-1 125,-18 183,-22l210 -2 6 -54c-134,-2 -294,34 -399,78z"></path> <path class="fil7" d="M3923 2601c135,-19 220,-24 358,-19l3 -53c-90,-1 -317,37 -361,72z"></path> <path class="fil7" d="M3932 2687c102,-9 156,-34 290,-32 54,0 66,12 60,-50 -86,-2 -190,23 -272,50l-78 32z"></path> <path class="fil5" d="M3972 2761c47,-7 95,-20 147,-26 59,-8 110,-8 169,-10l0 -44c-58,-14 -279,54 -316,80z"></path> <path class="fil8" d="M3996 2842c42,-6 90,-23 139,-30 54,-9 106,-8 158,-16 12,-20 8,-17 3,-43 -79,2 -251,51 -300,89z"></path> <path class="fil8" d="M4043 2920l129 -40c46,-13 91,-22 143,-25l-7 -44c-75,12 -218,66 -265,109z"></path> <path class="fil8" d="M4078 2980c113,-28 119,-45 257,-59l-9 -40c-53,5 -212,62 -248,99z"></path> <path class="fil4" d="M5267 2375c52,26 72,28 140,20 -7,-28 -27,-43 -58,-49 -34,-8 -68,-5 -82,29z"></path> <path class="fil8" d="M5332 2158c-12,-23 -45,-40 -70,-56 -24,-15 -48,-31 -78,-39 7,9 17,24 25,32 61,61 34,58 123,63z"></path> <path class="fil7" d="M4595 2528c26,5 42,-2 61,-9 9,-41 -26,-55 -68,-66l7 75z"></path> <polygon class="fil4" points="4639,2170 4684,2171 4701,2127 4655,2127 "></polygon> <path class="fil9" d="M4459 2396l46 -1 15 -42 -22 -1c-33,0 -29,10 -39,44z"></path> <path class="fil4" d="M4822 2048l40 -1c11,-13 15,-24 20,-42 -50,-4 -48,-3 -60,43z"></path> <path class="fil4" d="M4566 2242l46 -1 16 -42 -37 -2c-17,10 -20,26 -25,45z"></path> <polygon class="fil4" points="4756,1999 4804,1999 4819,1956 4776,1956 "></polygon> <polygon class="fil4" points="4503,2192 4547,2192 4565,2150 4518,2148 "></polygon> <polygon class="fil10" points="4393,2345 4442,2348 4454,2304 4413,2304 "></polygon> <polygon class="fil4" points="4667,2055 4688,2056 4709,2056 4729,2013 4681,2012 "></polygon> <polygon class="fil9" points="4368,2440 4410,2440 4430,2398 4382,2397 "></polygon> <path class="fil11" d="M4504 2312l43 2c9,-15 15,-27 17,-44l-42 1 -18 41z"></path> <polygon class="fil4" points="4730,2104 4774,2105 4793,2062 4748,2062 "></polygon> <path class="fil4" d="M4434 2489l40 0 19 -43 -42 -1c-10,13 -17,25 -17,44z"></path> <polygon class="fil4" points="4576,2120 4618,2121 4638,2078 4591,2079 "></polygon> <path class="fil9" d="M4440 2262l42 3c12,-15 15,-25 19,-42l-43 -1 -18 40z"></path> <polygon class="fil11" points="4444,2631 4404,2631 4393,2668 4429,2666 "></polygon> <polygon class="fil11" points="4398,2689 4360,2690 4348,2727 4385,2725 "></polygon> <polygon class="fil12" points="4452,2730 4415,2730 4402,2767 4438,2767 "></polygon> <polygon class="fil10" points="4390,2590 4352,2591 4339,2627 4375,2626 "></polygon> <path class="fil13" d="M4451 2542l-29 0c-15,10 -16,18 -20,36l37 0 12 -36z"></path> <path class="fil10" d="M4349 2538l30 0c13,-12 14,-19 19,-37l-35 1c-11,18 -10,16 -14,36z"></path> <polygon class="fil11" points="4414,2781 4377,2782 4364,2817 4401,2817 "></polygon> <polygon class="fil14" points="4467,2821 4431,2822 4419,2858 4454,2858 "></polygon> <polygon class="fil10" points="4442,2879 4407,2879 4393,2915 4429,2915 "></polygon> <path class="fil3" d="M4766 2513l126 0c13,0 23,11 23,24l0 0c0,13 -10,23 -23,23l-126 0c-13,0 -23,-10 -23,-23l0 0c0,-13 10,-24 23,-24z"></path> <path class="fil3" d="M4785 2575l88 0c13,0 24,11 24,24l0 0c0,13 -11,23 -24,23l-88 0c-13,0 -24,-10 -24,-23l0 0c0,-13 11,-24 24,-24z"></path> <path class="fil3" d="M4802 2633l54 0c13,0 24,11 24,24l0 0c0,13 -11,24 -24,24l-54 0c-13,0 -24,-11 -24,-24l0 0c0,-13 11,-24 24,-24z"></path> </g> </g> </svg> 