<?xml version="1.0" encoding="UTF-8"?> <svg xmlns="http://www.w3.org/2000/svg" xmlns:xlink="http://www.w3.org/1999/xlink" xml:space="preserve" width="172.206mm" height="45.1556mm" version="1.1" style="shape-rendering:geometricPrecision; text-rendering:geometricPrecision; image-rendering:optimizeQuality; fill-rule:evenodd; clip-rule:evenodd" viewBox="0 0 8894 2332"> <defs> <style type="text/css"> .fil0 {fill:none} .fil14 {fill:#00A0E3} .fil1 {fill:#2B2A29} .fil10 {fill:#2E2F2C} .fil8 {fill:#30302E} .fil7 {fill:#31312E} .fil6 {fill:#35312E} .fil9 {fill:#35322F} .fil11 {fill:#353230} .fil13 {fill:#E31E24} .fil5 {fill:#FAFAFA} .fil2 {fill:#FBFBFB} .fil4 {fill:#FCFBFA} .fil3 {fill:#FCFCFC} .fil12 {fill:#FEFEFE} </style> </defs> <rect class="fil0" width="8894" height="2332"></rect> <g id="_1746039492704"> <g> <path class="fil1" d="M2670 1769c-121,-31 -245,-85 -364,-130 -10,-51 -8,-100 -18,-152 -6,-33 -32,-107 -25,-135 98,-3 140,-18 212,33 15,11 23,20 37,30 15,11 17,18 32,28 28,18 56,26 81,45 2,51 2,105 12,152 8,43 29,94 33,129zm-550 -586c93,91 180,494 114,530 -90,17 -194,-130 -227,-185 -55,-92 -87,-209 -54,-330l167 -15zm631 -226c24,-58 -9,-43 43,-84l66 -55c20,-16 21,-22 46,-33 57,38 52,97 72,183 13,60 62,141 58,191 -34,37 -72,22 -132,23l-1 26c25,18 27,4 66,15l2 64c-57,8 -90,-23 -96,27 58,16 118,-10 97,93 -11,55 -80,54 -138,54 -117,0 -219,-9 -303,-77 -70,-57 -108,-256 47,-315 40,-16 32,-19 54,-43 17,-17 31,-29 55,-42 22,-13 48,-18 64,-27zm-718 112c46,12 85,28 75,74 -20,8 -38,15 -67,10l-8 -84zm634 -315l176 11c-2,14 7,0 -9,15l-308 235c-130,107 -106,101 -238,92 -6,-26 8,-68 18,-97l151 29 23 -157 167 19 20 -147zm-548 279c26,-37 49,-65 82,-94 14,-12 13,-13 28,-27 64,-63 388,-276 429,-262 20,16 66,56 81,83 -32,-2 -66,-12 -96,-6l-17 150 -173 -23 -20 146c-39,-2 -119,-31 -151,-24l-31 134 -101 4 -31 -81zm742 -292c-98,-6 -69,-3 -136,-70 -10,-10 -21,-26 -28,-36 32,9 59,27 86,44 28,17 65,36 78,62zm-827 195c25,-25 46,-42 71,-63 13,-10 21,-22 33,-33l146 -120c75,-57 101,-77 191,-129 48,-28 45,-31 104,-16 30,8 68,22 87,38 -48,12 -125,51 -172,74 -105,52 -280,183 -351,272 -13,17 -46,57 -60,62l-49 -85zm-794 -377c235,-72 643,-90 888,-72 58,4 118,10 175,21 31,5 126,19 150,42 -17,16 -45,33 -64,45 -77,51 -294,228 -350,290 -63,68 -66,38 -14,124l-35 7c-12,50 20,59 0,111 -18,43 -42,22 -76,26 -37,74 -18,221 6,304 8,26 24,57 29,78 -66,73 -453,278 -548,303 -5,-5 0,2 -8,-10 -3,-4 -5,-8 -7,-12l-68 -142c-47,4 -103,18 -135,-12 -6,-49 27,-57 32,-97 -33,-30 -99,-31 -129,-60 7,-18 10,-16 37,-43 14,-15 25,-19 39,-44 -36,-7 -116,-48 -133,-70 23,-37 56,-39 82,-67 -35,-17 -88,-44 -101,-74l101 -52c-8,-19 -38,-47 -55,-61 -15,-13 -44,-35 -56,-55 31,-32 58,-33 102,-57 -13,-20 -62,-76 -69,-97l93 -37c-15,-39 -52,-67 -68,-107 9,-9 39,-33 55,-40l-21 -92 148 -50zm-203 21l24 103c-11,15 -50,44 -66,52 11,21 48,68 66,86 -18,25 -59,35 -85,55 11,36 38,62 51,97 -21,25 -57,36 -78,61 32,34 57,74 87,110 -15,12 -19,18 -37,31 -15,10 -30,24 -45,32 6,11 1,3 8,12 18,20 49,35 72,62 -17,28 -45,52 -53,81 28,14 66,50 90,72l-34 76c21,20 90,61 116,75l-24 114 147 16c17,17 38,55 51,81l30 67c6,15 7,15 14,25 246,-60 504,-279 598,-324 18,18 36,47 53,69l94 88c13,9 23,14 37,23 28,18 57,32 94,36 15,-13 8,-5 18,-22l36 -79c98,17 338,131 458,168 -22,-83 -95,-143 -78,-355 269,2 350,24 322,-217 -12,-96 40,-66 78,-108 8,-19 -66,-200 -84,-275 -25,-108 -16,-121 -146,-215 -325,-237 -809,-251 -1209,-222 -110,9 -215,24 -320,46 -141,29 -188,56 -285,79z"></path> <path class="fil1" d="M1465 1656c40,-41 217,-105 276,-111l11 46c-154,14 -161,34 -287,65zm-40 -67c53,-47 213,-107 296,-122l8 49c-58,4 -108,14 -160,29l-144 44zm-51 -87c54,-42 245,-96 334,-99 5,30 10,26 -3,49 -58,8 -116,7 -177,16 -54,9 -107,28 -154,34zm-27 -90c41,-29 288,-105 352,-89l0 49c-66,3 -122,2 -189,11 -57,7 -111,21 -163,29zm42 -118c91,-30 207,-58 303,-56 6,69 -7,56 -67,56 -149,-3 -209,26 -323,36l87 -36zm-97 -60c49,-39 302,-81 402,-81l-3 60c-154,-6 -249,0 -399,21zm-33 -82c117,-50 295,-90 444,-87l-7 59 -234 3c-64,4 -144,23 -203,25zm-17 -107c33,-20 173,-53 222,-63 72,-14 185,-30 261,-21l-15 65c-87,-2 -165,-9 -255,-4 -30,2 -210,24 -213,23zm-4 -98c100,-54 394,-94 524,-87l-28 71c-90,-1 -167,-14 -260,-6 -73,6 -170,21 -236,22zm12 -131c70,0 207,-83 574,-65 -8,20 -35,61 -48,73 -43,0 -88,-10 -133,-11 -47,-2 -92,-5 -139,-4 -88,2 -187,19 -266,18 22,-11 6,-5 12,-11zm52 -91c50,-25 229,-55 279,-62 115,-15 205,-8 318,-6 -14,28 -40,43 -57,72 -39,3 -90,-9 -133,-12 -154,-10 -255,-2 -407,8zm0 -103c59,-28 264,-61 341,-70 135,-16 263,-14 395,1 -21,12 -36,23 -53,36l-52 42c-48,0 -108,-13 -157,-17 -54,-4 -108,-6 -163,-6 -40,0 -309,15 -311,14zm-52 194c-17,0 -19,-1 -36,12l-6 6c11,13 15,13 28,30 -15,16 -25,11 -40,31 27,17 23,13 30,30l-41 25 36 30 -38 29c16,18 17,11 34,26 -12,12 -27,22 -38,34l35 25c-18,17 -15,18 -38,28 5,7 2,5 11,11 3,3 7,4 12,7 9,5 9,4 18,10 -16,18 -25,21 -38,36l40 24 -34 35 38 18 -32 40 42 11c-12,28 -12,12 -29,48l39 10c-4,15 2,1 -4,13 -9,14 -9,5 -20,31l41 9 -25 46 43 6c-6,17 -16,30 -23,48l46 0 -23 50 47 -1 -17 50 44 -3 -15 52 44 -8 -12 53 45 -11 -11 51c86,-7 321,-125 397,-174 -12,-80 -58,-151 -64,-315 -7,-227 72,-480 234,-622 36,-32 58,-57 109,-83 19,-10 41,-17 58,-31 -112,-33 -345,-24 -464,-12 -194,18 -274,55 -412,77 9,21 16,24 27,44l-42 16c7,17 13,23 26,37 -12,12 -27,15 -43,20l32 39 -44 15c9,23 0,9 17,27 10,11 7,4 16,20z"></path> <path class="fil2" d="M1856 1584l-40 0 16 -41 38 0 -14 41zm27 -64l-39 0 14 -40 40 -1 -15 41zm-58 -45l-42 -1 15 -39 41 -1 -14 41zm41 -56l-40 0 14 -41 42 0 -16 41zm-59 -47l-41 3 13 -42 43 -1 -15 40zm49 -65l-40 1 12 -41 44 0 -16 40zm-60 -45l-41 1 15 -40 42 -2 -16 41zm71 -53l-42 -1c6,-20 6,-28 23,-40l33 1 -14 40zm-101 -46c5,-21 4,-19 16,-39l39 -2c-5,21 -6,28 -21,41l-34 0zm95 -54c1,-21 8,-34 20,-48l46 0 -21 48 -45 0zm-57 -103l53 2 -22 46 -48 0 17 -48zm85 -1c12,-37 7,-49 44,-48l24 1 -17 47 -51 0zm-51 -102l46 0 -14 49 -54 -3 22 -46zm121 -37l47 -1c-2,19 -8,33 -19,49l-48 -2 20 -46zm-71 -54l48 1c-4,19 -8,30 -21,47l-47 -3 20 -45zm121 22c5,-20 8,-39 27,-50l41 2 -18 47 -50 1zm-54 -104l52 2 -20 47 -49 -1 17 -48zm153 -24l51 1 -19 48 -51 -1 19 -48zm-72 -53l53 -1 -23 48 -47 -1 17 -46zm175 -20l50 0 -21 48 -49 0 20 -48zm-74 -55l52 1 -21 48 -23 0 -24 -1 16 -48zm156 40c14,-52 12,-52 67,-48 -5,21 -10,32 -22,47l-45 1zm-1043 198c-9,-16 -6,-9 -16,-20 -17,-18 -8,-4 -17,-27l44 -15 -32 -39c16,-5 31,-8 43,-20 -13,-14 -19,-20 -26,-37l42 -16c-11,-20 -18,-23 -27,-44 138,-22 218,-59 412,-77 119,-12 352,-21 464,12 -17,14 -39,21 -58,31 -51,26 -73,51 -109,83 -162,142 -241,395 -234,622 6,164 52,235 64,315 -76,49 -311,167 -397,174l11 -51 -45 11 12 -53 -44 8 15 -52 -44 3 17 -50 -47 1 23 -50 -46 0c7,-18 17,-31 23,-48l-43 -6 25 -46 -41 -9c11,-26 11,-17 20,-31 6,-12 0,2 4,-13l-39 -10c17,-36 17,-20 29,-48l-42 -11 32 -40 -38 -18 34 -35 -40 -24c13,-15 22,-18 38,-36 -9,-6 -9,-5 -18,-10 -5,-3 -9,-4 -12,-7 -9,-6 -6,-4 -11,-11 23,-10 20,-11 38,-28l-35 -25c11,-12 26,-22 38,-34 -17,-15 -18,-8 -34,-26l38 -29 -36 -30 41 -25c-7,-17 -3,-13 -30,-30 15,-20 25,-15 40,-31 -13,-17 -17,-17 -28,-30l6 -6c17,-13 19,-12 36,-12zm992 -300l48 0 -17 47 -53 0 22 -47zm-1150 93l21 92c-16,7 -46,31 -55,40 16,40 53,68 68,107l-93 37c7,21 56,77 69,97 -44,24 -71,25 -102,57 12,20 41,42 56,55 17,14 47,42 55,61l-101 52c13,30 66,57 101,74 -26,28 -59,30 -82,67 17,22 97,63 133,70 -14,25 -25,29 -39,44 -27,27 -30,25 -37,43 30,29 96,30 129,60 -5,40 -38,48 -32,97 32,30 88,16 135,12l68 142c2,4 4,8 7,12 8,12 3,5 8,10 95,-25 482,-230 548,-303 -5,-21 -21,-52 -29,-78 -24,-83 -43,-230 -6,-304 34,-4 58,17 76,-26 20,-52 -12,-61 0,-111l35 -7c-52,-86 -49,-56 14,-124 56,-62 273,-239 350,-290 19,-12 47,-29 64,-45 -24,-23 -119,-37 -150,-42 -57,-11 -117,-17 -175,-21 -245,-18 -653,0 -888,72l-148 50z"></path> <path class="fil3" d="M2789 982c15,-38 54,-41 92,-32 34,7 56,23 64,55 -76,8 -98,6 -156,-23zm-38 -25c-16,9 -42,14 -64,27 -24,13 -38,25 -55,42 -22,24 -14,27 -54,43 -155,59 -117,258 -47,315 84,68 186,77 303,77 58,0 127,1 138,-54 21,-103 -39,-77 -97,-93 6,-50 39,-19 96,-27l-2 -64c-39,-11 -41,3 -66,-15l1 -26c60,-1 98,14 132,-23 4,-50 -45,-131 -58,-191 -20,-86 -15,-145 -72,-183 -25,11 -26,17 -46,33l-66 55c-52,41 -19,26 -43,84z"></path> <path class="fil3" d="M1953 1198c-33,121 -1,238 54,330 33,55 137,202 227,185 66,-36 -21,-439 -114,-530l-167 15z"></path> <path class="fil3" d="M2306 1639c119,45 243,99 364,130 -4,-35 -25,-86 -33,-129 -10,-47 -10,-101 -12,-152 -25,-19 -53,-27 -81,-45 -15,-10 -17,-17 -32,-28 -14,-10 -22,-19 -37,-30 -72,-51 -114,-36 -212,-33 -7,28 19,102 25,135 10,52 8,101 18,152z"></path> <path class="fil3" d="M2119 1033l31 81 101 -4 31 -134c32,-7 112,22 151,24l20 -146 173 23 17 -150c30,-6 64,4 96,6 -15,-27 -61,-67 -81,-83 -41,-14 -365,199 -429,262 -15,14 -14,15 -28,27 -33,29 -56,57 -82,94z"></path> <path class="fil2" d="M2034 936l49 85c14,-5 47,-45 60,-62 71,-89 246,-220 351,-272 47,-23 124,-62 172,-74 -19,-16 -57,-30 -87,-38 -59,-15 -56,-12 -104,16 -90,52 -116,72 -191,129l-146 120c-12,11 -20,23 -33,33 -25,21 -46,38 -71,63z"></path> <path class="fil2" d="M2647 901l-167 -19 -23 157 -151 -29c-10,29 -24,71 -18,97 132,9 108,15 238,-92l308 -235c16,-15 7,-1 9,-15l-176 -11 -20 147z"></path> <path class="fil2" d="M1302 622c2,1 271,-14 311,-14 55,0 109,2 163,6 49,4 109,17 157,17l52 -42c17,-13 32,-24 53,-36 -132,-15 -260,-17 -395,-1 -77,9 -282,42 -341,70z"></path> <path class="fil2" d="M1302 725c152,-10 253,-18 407,-8 43,3 94,15 133,12 17,-29 43,-44 57,-72 -113,-2 -203,-9 -318,6 -50,7 -229,37 -279,62z"></path> <path class="fil2" d="M1250 816c-6,6 10,0 -12,11 79,1 178,-16 266,-18 47,-1 92,2 139,4 45,1 90,11 133,11 13,-12 40,-53 48,-73 -367,-18 -504,65 -574,65z"></path> <path class="fil4" d="M1238 947c66,-1 163,-16 236,-22 93,-8 170,5 260,6l28 -71c-130,-7 -424,33 -524,87z"></path> <path class="fil2" d="M1242 1045c3,1 183,-21 213,-23 90,-5 168,2 255,4l15 -65c-76,-9 -189,7 -261,21 -49,10 -189,43 -222,63z"></path> <path class="fil2" d="M1259 1152c59,-2 139,-21 203,-25l234 -3 7 -59c-149,-3 -327,37 -444,87z"></path> <path class="fil4" d="M1292 1234c150,-21 245,-27 399,-21l3 -60c-100,0 -353,42 -402,81z"></path> <path class="fil4" d="M1302 1330c114,-10 174,-39 323,-36 60,0 73,13 67,-56 -96,-2 -212,26 -303,56l-87 36z"></path> <path class="fil2" d="M1347 1412c52,-8 106,-22 163,-29 67,-9 123,-8 189,-11l0 -49c-64,-16 -311,60 -352,89z"></path> <path class="fil5" d="M1374 1502c47,-6 100,-25 154,-34 61,-9 119,-8 177,-16 13,-23 8,-19 3,-49 -89,3 -280,57 -334,99z"></path> <path class="fil5" d="M1425 1589l144 -44c52,-15 102,-25 160,-29l-8 -49c-83,15 -243,75 -296,122z"></path> <path class="fil5" d="M1465 1656c126,-31 133,-51 287,-65l-11 -46c-59,6 -236,70 -276,111z"></path> <path class="fil1" d="M2789 982c58,29 80,31 156,23 -8,-32 -30,-48 -64,-55 -38,-9 -77,-6 -92,32z"></path> <path class="fil5" d="M2861 741c-13,-26 -50,-45 -78,-62 -27,-17 -54,-35 -86,-44 7,10 18,26 28,36 67,67 38,64 136,70z"></path> <path class="fil4" d="M2041 1153c29,5 47,-2 67,-10 10,-46 -29,-62 -75,-74l8 84z"></path> <polygon class="fil1" points="2089,754 2140,755 2159,707 2108,706 "></polygon> <path class="fil6" d="M1889 1005l51 0 17 -47 -24 -1c-37,-1 -32,11 -44,48z"></path> <path class="fil1" d="M2293 618l45 -1c12,-15 17,-26 22,-47 -55,-4 -53,-4 -67,48z"></path> <path class="fil1" d="M2009 834l50 -1 18 -47 -41 -2c-19,11 -22,30 -27,50z"></path> <polygon class="fil1" points="2220,563 2273,563 2290,516 2242,516 "></polygon> <polygon class="fil1" points="1938,778 1987,779 2007,732 1955,730 "></polygon> <polygon class="fil7" points="1816,949 1870,952 1884,903 1838,903 "></polygon> <polygon class="fil1" points="2121,626 2145,627 2168,627 2189,579 2137,578 "></polygon> <polygon class="fil6" points="1787,1054 1835,1054 1857,1008 1804,1006 "></polygon> <path class="fil8" d="M1939 912l48 2c11,-16 17,-30 19,-49l-47 1 -20 46z"></path> <polygon class="fil1" points="2191,681 2240,681 2261,633 2211,633 "></polygon> <path class="fil1" d="M1861 1109l45 0 21 -48 -46 0c-12,14 -19,27 -20,48z"></path> <polygon class="fil1" points="2019,699 2066,700 2089,652 2036,653 "></polygon> <path class="fil6" d="M1868 857l47 3c13,-17 17,-28 21,-47l-48 -1 -20 45z"></path> <polygon class="fil8" points="1872,1267 1828,1267 1816,1308 1856,1307 "></polygon> <polygon class="fil8" points="1822,1332 1779,1333 1766,1375 1807,1372 "></polygon> <polygon class="fil9" points="1882,1378 1840,1378 1826,1419 1866,1419 "></polygon> <polygon class="fil7" points="1812,1221 1770,1223 1755,1263 1796,1262 "></polygon> <path class="fil10" d="M1881 1169l-33 -1c-17,12 -17,20 -23,40l42 1 14 -40z"></path> <path class="fil7" d="M1766 1163l34 0c15,-13 16,-20 21,-41l-39 2c-12,20 -11,18 -16,39z"></path> <polygon class="fil8" points="1839,1434 1798,1435 1783,1474 1825,1475 "></polygon> <polygon class="fil11" points="1898,1479 1858,1480 1844,1520 1883,1520 "></polygon> <polygon class="fil7" points="1870,1543 1832,1543 1816,1584 1856,1584 "></polygon> <path class="fil12" d="M2232 1136l139 0c14,0 26,12 26,26l0 0c0,15 -12,27 -26,27l-139 0c-15,0 -27,-12 -27,-27l0 0c0,-14 12,-26 27,-26z"></path> <path class="fil12" d="M2252 1205l99 0c14,0 26,12 26,27l0 0c0,14 -12,26 -26,26l-99 0c-15,0 -26,-12 -26,-26l0 0c0,-15 11,-27 26,-27z"></path> <path class="fil12" d="M2271 1270l61 0c14,0 26,12 26,26l0 0c0,15 -12,27 -26,27l-61 0c-14,0 -26,-12 -26,-27l0 0c0,-14 12,-26 26,-26z"></path> </g> <rect class="fil13" x="3292" y="676" width="2078" height="981"></rect> <rect class="fil14" x="5370" y="676" width="2575" height="981"></rect> <path class="fil12" d="M3410 1465l176 -40 0 -164 249 196 77 -134 -199 -158c332,46 312,-340 74,-340l-372 0c0,0 -8,639 -5,640zm168 -508l164 0c32,0 58,26 58,59l0 0c0,32 -26,59 -58,59l-164 0 0 -118zm510 -130l0 635 399 0 37 -136 -263 0 0 -113 214 0 0 -139 -212 0 0 -108 227 0 37 -137 -439 -2zm575 0l0 636 398 0c333,-40 299,-612 5,-635 0,0 -403,-4 -403,-1zm138 140l0 349 177 0c200,0 218,-352 10,-348l-187 -1z"></path> <path class="fil12" d="M5809 1086l161 -36 0 -123 -166 -104 -175 0 -169 105 0 425 174 110 172 0 168 -110 0 -136 -164 0c-39,123 -177,79 -180,14l0 -178c-7,-82 154,-103 179,-3l0 36zm239 -224l0 597 180 -42 0 -196 114 -38 0 274 175 -41 0 -600 -176 47 0 140 -113 46 -1 -231 -179 44zm567 0l0 597 180 -42c0,-200 0,-399 -1,-599l-179 44zm273 -38l0 641 402 0 42 -145 -268 0 0 -111 215 0 0 -139 -216 0 0 -108 223 0 45 -141 -443 3zm524 0l0 641 176 -51 0 -205 180 0 0 -139 -181 0 0 -108 223 0 45 -141 -443 3z"></path> </g> </svg> 