<?xml version="1.0" encoding="UTF-8"?> <svg xmlns="http://www.w3.org/2000/svg" xmlns:xlink="http://www.w3.org/1999/xlink" xml:space="preserve" width="91.44mm" height="50.8mm" version="1.1" style="shape-rendering:geometricPrecision; text-rendering:geometricPrecision; image-rendering:optimizeQuality; fill-rule:evenodd; clip-rule:evenodd" viewBox="0 0 9144 5080"> <defs> <style type="text/css"> .fil0 {fill:none} .fil1 {fill:#2B2C2B} .fil3 {fill:#D01931} .fil2 {fill:#D01931} </style> </defs> <g id="Layer_x0020_1"> <metadata id="CorelCorpID_0Corel-Layer"></metadata> <rect class="fil0" width="9144" height="5080"></rect> <path class="fil1" d="M2042 1270c175,0 350,0 526,0 90,1 181,33 246,95 55,51 90,124 88,200 2,68 -20,138 -64,190 -35,44 -84,73 -136,92 54,15 107,45 139,93 25,36 35,80 35,124 0,80 0,160 0,240 -74,-1 -148,0 -222,0 0,-65 0,-129 0,-193 -2,-46 -12,-95 -46,-129 -35,-35 -86,-45 -134,-47 -51,-1 -101,-1 -151,-1 0,-59 0,-119 1,-179 72,1 144,0 216,1 51,0 100,-32 121,-77 30,-61 21,-143 -33,-188 -30,-25 -70,-34 -108,-34 -89,0 -179,0 -268,0 0,221 0,441 0,661 -70,0 -140,0 -211,0 0,-283 0,-565 1,-848z"></path> <path class="fil1" d="M4706 1270c72,0 145,0 217,0 0,223 0,445 0,668 56,0 111,0 167,0 71,1 135,-60 142,-130 12,-74 -39,-155 -114,-168 -40,-5 -80,-1 -121,-2 0,-61 0,-121 0,-181 47,0 94,0 140,0 98,-2 194,49 251,128 58,78 77,181 58,275 -26,118 -127,208 -241,242 -56,19 -117,18 -176,18 -108,0 -216,0 -323,0 0,-284 0,-567 0,-850z"></path> <path class="fil1" d="M6414 1270c73,0 146,0 219,0 0,135 0,270 0,405 46,-2 92,4 137,-5 43,-8 77,-41 92,-81 18,-43 16,-89 18,-134 72,1 143,0 215,1 -2,69 -1,144 -38,206 -31,55 -90,85 -147,103 68,19 134,61 165,127 35,70 23,150 25,226 -72,0 -145,0 -217,0 -5,-63 12,-131 -21,-188 -26,-47 -81,-71 -133,-74 -32,-2 -64,0 -96,-1 0,88 0,175 0,263 -73,0 -146,0 -219,0 0,-283 0,-565 0,-848z"></path> <g> <path class="fil1" d="M5829 1455c108,-19 223,-9 321,42 74,40 132,109 156,190 30,100 18,215 -43,301 -52,74 -134,122 -221,142 -102,22 -211,15 -306,-30 -90,-42 -165,-123 -189,-221 -26,-101 -7,-215 59,-297 55,-69 137,-111 223,-127l0 0zm54 168c-79,20 -137,98 -131,179 3,57 36,113 86,142 49,31 114,33 166,8 80,-37 123,-139 89,-222 -30,-82 -126,-132 -210,-107z"></path> </g> <path class="fil1" d="M3026 1611c57,-92 161,-152 270,-154 140,0 281,0 421,0 -1,65 3,130 -1,194 -46,73 -93,145 -139,218 -70,-1 -139,0 -209,-1 46,-76 92,-153 138,-230 -56,-1 -113,0 -169,-1 -51,-1 -101,28 -127,71 -32,50 -30,119 5,167 29,41 78,65 128,64 125,0 250,0 374,0 0,61 1,121 0,181 -120,0 -240,0 -360,0 -50,0 -100,0 -148,-15 -94,-27 -173,-100 -209,-191 -40,-98 -31,-214 26,-303z"></path> <path class="fil1" d="M3954 1521c55,-41 123,-63 192,-64 138,0 276,0 415,0 0,65 -1,129 0,194 -47,72 -93,145 -140,218 -69,0 -139,0 -209,0 46,-78 92,-154 138,-231 -61,0 -123,-1 -184,0 -82,6 -147,90 -133,171 9,70 72,128 143,130 129,1 257,0 386,0 0,61 0,121 0,181 -138,-1 -277,1 -415,-1 -86,0 -171,-34 -230,-96 -71,-68 -107,-171 -96,-269 9,-92 58,-179 133,-233z"></path> <path class="fil2" d="M5677 2570c474,-52 950,-90 1426,-120 -258,65 -516,129 -771,204 -358,102 -707,232 -1052,372 -180,-107 -361,-212 -542,-319 311,-61 625,-101 939,-137z"></path> <path class="fil3" d="M2248 2479c593,1 1187,-1 1780,1 129,65 254,139 381,211 490,281 977,567 1462,857 117,70 233,140 349,212 25,16 52,31 75,50 -524,-220 -1043,-452 -1574,-654 -453,-174 -916,-322 -1386,-441 -259,-67 -521,-125 -784,-177 -101,-21 -203,-37 -303,-59z"></path> <path class="fil2" d="M2899 3347c246,-162 518,-280 795,-379 165,45 328,100 490,152 -216,86 -424,195 -611,334 -120,90 -235,188 -326,308 -269,0 -537,0 -806,0 128,-163 285,-302 458,-415z"></path> <path class="fil2" d="M3719 3580c185,-168 401,-301 630,-403 129,45 257,93 385,142 -110,79 -220,160 -312,260 -53,57 -100,119 -143,183 -243,0 -486,0 -729,0 49,-67 108,-125 169,-182z"></path> </g> </svg> 