<?xml version="1.0" encoding="UTF-8"?> <svg xmlns="http://www.w3.org/2000/svg" xmlns:xlink="http://www.w3.org/1999/xlink" xml:space="preserve" width="172.206mm" height="45.1556mm" version="1.1" style="shape-rendering:geometricPrecision; text-rendering:geometricPrecision; image-rendering:optimizeQuality; fill-rule:evenodd; clip-rule:evenodd" viewBox="0 0 8894 2332"> <defs> <style type="text/css"> .fil0 {fill:none} .fil1 {fill:#2B2C2B} .fil3 {fill:#D01931} .fil2 {fill:#D01931} </style> </defs> <rect class="fil0" width="8894" height="2332"></rect> <g id="_1745933528432"> <path class="fil1" d="M2487 182c136,0 271,0 407,0 70,1 140,26 191,74 43,39 70,96 68,155 2,52 -15,106 -49,147 -27,34 -66,57 -106,71 42,12 83,35 108,72 19,28 27,62 27,96 0,62 0,124 0,186 -57,0 -115,0 -172,0 0,-50 0,-100 0,-149 -1,-36 -10,-74 -35,-100 -27,-27 -68,-35 -105,-37 -38,0 -77,0 -116,0 0,-46 -1,-93 0,-139 56,1 112,0 168,0 39,0 77,-24 94,-59 22,-47 16,-111 -26,-146 -23,-19 -54,-26 -84,-26 -69,0 -138,0 -207,0 0,171 0,342 0,512 -55,0 -109,0 -163,0 0,-219 0,-438 0,-657z"></path> <path class="fil1" d="M4551 182c56,0 112,0 168,0 0,173 0,345 0,518 43,0 86,0 129,0 56,0 105,-47 110,-101 10,-57 -30,-120 -88,-130 -31,-4 -62,-1 -93,-2 0,-47 0,-93 0,-140 36,0 72,0 108,0 76,-1 150,38 194,99 45,61 60,140 45,214 -20,91 -99,160 -186,187 -44,14 -91,14 -137,14 -83,0 -167,0 -250,0 0,-220 0,-439 0,-659z"></path> <path class="fil1" d="M5874 182c56,0 113,0 170,0 0,105 0,209 0,314 35,-2 71,3 106,-4 33,-6 60,-32 71,-63 14,-33 13,-69 14,-103 55,0 111,0 167,0 -2,54 -1,112 -29,160 -25,42 -70,66 -115,80 53,15 104,47 128,98 27,54 18,117 20,175 -57,0 -113,0 -169,0 -3,-48 10,-101 -16,-146 -20,-36 -62,-54 -103,-57 -24,-1 -49,0 -74,-1 0,68 0,136 0,204 -57,0 -114,0 -170,0 0,-219 0,-438 0,-657z"></path> <g> <path class="fil1" d="M5421 325c83,-14 173,-7 248,33 58,31 103,84 121,147 23,78 14,167 -33,233 -40,58 -104,95 -171,110 -79,18 -164,12 -237,-22 -70,-33 -128,-96 -147,-172 -20,-78 -5,-166 46,-230 42,-54 107,-86 173,-99l0 0zm41 131c-60,15 -105,76 -101,138 3,45 28,88 67,110 38,24 88,26 129,6 62,-28 94,-107 68,-171 -23,-64 -97,-102 -163,-83z"></path> </g> <path class="fil1" d="M3249 447c44,-72 125,-118 209,-120 109,0 218,0 327,0 -1,50 2,101 -1,150 -36,57 -72,113 -108,169 -54,0 -108,0 -162,0 36,-60 72,-119 107,-179 -44,0 -87,0 -131,0 -39,-1 -78,21 -98,55 -25,39 -23,92 4,129 22,32 60,51 99,50 97,0 193,0 290,0 0,46 0,93 0,140 -93,0 -186,0 -279,0 -39,0 -78,0 -115,-12 -73,-21 -134,-77 -162,-148 -31,-75 -24,-166 20,-234z"></path> <path class="fil1" d="M3968 377c43,-32 96,-49 149,-50 107,0 214,0 321,0 0,50 0,100 0,150 -36,56 -72,113 -108,169 -54,0 -108,0 -162,0 36,-60 72,-119 107,-179 -47,0 -95,0 -143,0 -63,5 -113,70 -103,133 7,54 56,99 111,101 100,0 200,0 299,0 1,46 0,93 1,140 -108,-1 -215,0 -322,-1 -66,0 -132,-27 -179,-74 -54,-53 -82,-133 -74,-209 7,-71 45,-138 103,-180z"></path> <path class="fil2" d="M5303 1189c367,-40 736,-69 1104,-93 -199,51 -399,100 -596,158 -278,79 -548,180 -815,288 -140,-82 -281,-164 -420,-246 240,-47 483,-79 727,-107z"></path> <path class="fil3" d="M2646 1119c460,0 920,-1 1379,0 101,51 198,109 296,164 379,218 757,439 1132,664 91,54 181,108 270,164 20,13 41,24 59,39 -406,-171 -808,-350 -1220,-507 -351,-134 -709,-249 -1073,-342 -201,-51 -404,-96 -607,-136 -79,-17 -158,-29 -236,-46z"></path> <path class="fil2" d="M3151 1791c191,-125 402,-217 616,-293 128,34 254,77 380,118 -168,66 -329,151 -474,258 -93,70 -182,146 -252,239 -209,0 -417,0 -625,0 99,-127 221,-234 355,-322z"></path> <path class="fil2" d="M3786 1972c144,-131 311,-234 488,-313 100,35 200,72 298,111 -85,60 -170,123 -241,201 -41,44 -78,92 -111,142 -188,0 -376,0 -565,0 38,-52 84,-97 131,-141z"></path> </g> </svg> 