<?xml version="1.0" encoding="UTF-8"?> <svg xmlns="http://www.w3.org/2000/svg" xmlns:xlink="http://www.w3.org/1999/xlink" xml:space="preserve" width="91.44mm" height="50.8mm" version="1.1" style="shape-rendering:geometricPrecision; text-rendering:geometricPrecision; image-rendering:optimizeQuality; fill-rule:evenodd; clip-rule:evenodd" viewBox="0 0 9144 5080"> <defs> <style type="text/css"> .fil0 {fill:none} .fil1 {fill:#313B84} .fil2 {fill:#F9B101} </style> </defs> <g id="Layer_x0020_1"> <metadata id="CorelCorpID_0Corel-Layer"></metadata> <g id="_1745933581872"> <rect class="fil0" width="9144" height="5080"></rect> <path class="fil1" d="M4566 2618l0 0c0,0 -112,-33 -194,23 -11,7 -21,15 -28,25 0,0 0,0 -1,0l1 0c-1,1 -2,2 -2,3l-83 105c-16,17 -31,29 -54,32 -1,0 -1,0 -2,0 -2,0 -4,1 -6,1l-95 1c-7,0 -14,0 -21,0 -49,0 -46,-36 -13,-96 11,-26 23,-51 35,-77 64,-138 225,-503 225,-503 5,-11 -2,-17 -16,-17 -2,0 -136,-1 -161,-1 -2,0 -4,0 -5,0 -4,1 -7,1 -10,1 -1,0 -1,0 -1,0 0,0 0,0 -1,0 -5,0 -11,0 -16,3 -7,3 -14,7 -18,13 -2,2 -3,3 -4,4 0,1 0,1 -1,2 0,0 0,1 0,1 -2,3 -3,5 -4,8 -46,98 -259,553 -368,780 -2,4 -3,8 -4,12 -2,3 -4,8 -5,14 0,0 -6,26 29,28 0,0 281,1 469,2l0 0 125 0c23,0 43,-10 58,-25 3,-4 7,-8 10,-13 19,-30 43,-74 71,-125 37,-64 109,-194 110,-195 -7,-2 -13,-4 -20,-6z"></path> <path class="fil1" d="M6877 2536c-11,43 -27,84 -49,122 -22,38 -49,69 -82,92 -32,24 -69,36 -110,36 -40,0 -70,-12 -91,-36 -21,-24 -33,-56 -36,-94 -3,-39 1,-79 11,-120 20,-77 53,-137 99,-181 20,-18 43,-33 67,-44 25,-11 49,-17 72,-17 40,0 70,11 92,34 21,22 34,52 37,89 4,37 0,77 -10,119zm233 -178c-5,-54 -19,-101 -44,-142 -25,-41 -59,-72 -102,-95 -43,-22 -94,-33 -153,-33 -104,0 -200,35 -291,106 -54,42 -99,92 -136,151 -37,60 -63,122 -80,189 -35,138 -26,249 26,331 26,42 61,74 106,95 44,21 94,32 149,32 50,0 99,-8 148,-26 50,-17 96,-43 140,-77 56,-44 102,-96 139,-158 37,-62 64,-127 82,-197 16,-63 21,-122 16,-176z"></path> <path class="fil1" d="M4594 2915l-11 19 0 0c0,0 -10,16 -4,29 0,0 4,17 24,18 1,0 2,0 3,0l0 0 129 0 29 0c0,0 19,-2 31,-18l4 -7 112 -206c-4,1 -30,5 -39,6 -88,15 -175,16 -278,159z"></path> <path class="fil1" d="M5025 2534l79 -144 30 149c27,1 54,1 83,2 43,0 89,-6 131,-20l-85 -385c-2,-13 -7,-22 -20,-23l-158 1c0,0 0,0 0,0 -1,0 -2,-1 -3,-1 -13,0 -23,7 -29,17 -2,1 -3,3 -4,6l-245 417c74,-19 144,-21 221,-19z"></path> <path class="fil1" d="M3730 2496c10,-32 -12,-39 -28,-40l-70 0c-4,0 -9,0 -13,0 -43,0 -67,0 -97,0l0 0c-1,0 -2,0 -2,0 -5,0 -10,0 -15,0 -4,-1 -7,-1 -10,-1 -15,-3 -26,-14 -31,-28 0,0 0,-1 0,-1 -3,-10 -1,-20 2,-27 11,-23 21,-45 29,-67 15,-37 38,-54 76,-55l0 -1 321 0c13,1 30,-5 35,-18l47 -100c10,-32 -15,-40 -24,-41 -3,-1 -6,-1 -9,-1 -32,0 -64,0 -95,0 -147,-1 -288,-1 -435,-1 -30,4 -47,25 -55,38 -4,8 -6,13 -6,13l-83 177c-1,3 -3,7 -4,10 -5,10 -9,19 -14,28 -70,151 -142,302 -211,453l0 0 -2 5 -9 20 -40 91c-1,6 -2,13 1,19 0,0 4,11 26,12l564 0c1,0 9,0 13,0 1,0 2,0 3,0 0,0 1,0 1,0 11,0 20,-7 25,-16 0,0 0,0 0,0 17,-34 34,-69 50,-103 7,-33 -15,-40 -24,-41 -99,-1 -212,-1 -310,-4 -18,0 -34,-12 -39,-29 0,0 0,0 0,0 -3,-8 -2,-16 0,-22 1,-2 1,-4 2,-6 15,-36 32,-69 48,-104 13,-29 35,-46 67,-46 19,0 35,0 50,-1l0 0 180 0 0 0c0,0 0,0 1,0l7 0c11,-1 27,-5 34,-23l0 0 44 -90 0 0z"></path> <path class="fil1" d="M2876 2753c0,0 0,0 0,0 -6,-77 -67,-130 -67,-130 71,-12 135,-36 186,-78 3,-3 5,-5 7,-8 35,-35 58,-71 74,-105 0,0 55,-116 51,-187 -2,-61 -31,-133 -159,-133l-152 0 0 0 -139 0c-7,0 -14,0 -20,0l-176 0c-31,0 -47,16 -54,28 -5,6 -6,12 -6,12l-66 135c0,0 0,0 0,0l-119 245 -13 27 -71 144c-36,75 -78,162 -115,237l0 1c-1,1 -1,3 -2,5 -4,10 -9,35 26,35l164 0c7,0 18,-2 24,-9 6,-8 10,-19 15,-29 21,-44 42,-90 63,-135l0 0 54 -110 110 -228c0,-1 0,-2 0,-2l1 -1 0 0 89 -185c3,-7 12,-16 29,-16 9,0 19,0 29,0l149 0c0,0 3,0 8,0l29 0c89,-2 88,49 75,79 -6,13 -35,68 -35,68l0 0c-5,8 -10,15 -16,21 0,0 0,0 0,0 0,0 0,0 0,1 -7,7 -15,14 -24,19 -49,30 -136,29 -136,29l-22 0c-3,0 -7,0 -12,0 -2,0 -4,0 -5,0l-53 -1c-25,2 -31,18 -31,18l0 0 -57 118 0 0 -5 10c-1,4 -6,20 18,25 0,0 0,1 0,1 15,-1 31,0 46,0 82,3 92,31 96,115 2,51 -2,110 -1,162 0,7 0,15 1,22 2,7 8,24 32,28l192 0c3,0 10,-2 10,-13 -6,-44 -15,-94 -16,-138 -1,-26 -2,-52 -6,-77z"></path> <path class="fil1" d="M6181 2935l-12 -29c-30,-76 -86,-234 -131,-361l333 -382c2,-3 5,-5 7,-8l0 0c8,-9 4,-22 2,-28 -4,-11 -14,-14 -22,-15l-180 0c-6,0 -13,2 -19,6 -6,4 -11,9 -16,16l-177 204c-27,-79 -56,-161 -70,-201 -9,-19 -18,-24 -28,-26 -2,0 -8,0 -8,0l-164 0 0 0c-23,-1 -28,12 -28,12 -3,7 -2,14 -1,20 1,4 29,87 29,87l30 88c2,5 4,11 6,17 5,16 35,106 65,195l-349 398c-4,4 -7,8 -11,13l-23 -108 -24 -112c-74,33 -140,39 -218,43 16,83 36,185 38,194 2,8 4,14 9,17 4,3 11,5 20,5l403 -1c7,0 13,-2 20,-6 6,-3 11,-9 16,-15l190 -222c25,72 48,136 60,170 3,10 6,17 7,21 1,3 2,5 3,7l9 23c7,17 23,22 33,23l177 0c23,1 28,-12 28,-12 4,-9 2,-18 0,-24l-4 -9z"></path> <path class="fil2" d="M5548 2362c0,-6 0,-57 0,-57 0,0 -13,38 -15,43 -36,92 -106,146 -185,173 -42,14 -88,20 -131,20 -29,-1 -56,-1 -83,-2 -38,-2 -74,-4 -109,-5 -77,-2 -147,0 -221,19 -3,1 -5,1 -8,2 -147,39 -217,143 -237,245 -8,40 -9,80 -3,116 39,-119 113,-214 317,-217 263,-1 667,67 675,-337z"></path> </g> </g> </svg> 