<?xml version="1.0" encoding="UTF-8"?> <svg xmlns="http://www.w3.org/2000/svg" xmlns:xlink="http://www.w3.org/1999/xlink" xml:space="preserve" width="172.206mm" height="45.1556mm" version="1.1" style="shape-rendering:geometricPrecision; text-rendering:geometricPrecision; image-rendering:optimizeQuality; fill-rule:evenodd; clip-rule:evenodd" viewBox="0 0 8894 2332"> <defs> <style type="text/css"> .fil0 {fill:none} .fil1 {fill:#313B84} .fil2 {fill:#F9B101} </style> </defs> <rect class="fil0" width="8894" height="2332"></rect> <g id="_1746037092496"> <path class="fil1" d="M4440 1251l0 0c0,0 -122,-36 -210,25 -13,7 -23,17 -31,27 0,0 0,0 -1,0l0 0c0,1 -1,2 -1,3l-91 115c-17,18 -33,32 -59,34 0,0 -1,0 -1,1 -2,0 -5,0 -7,0l-103 1c-8,0 -16,0 -23,0 -53,1 -50,-39 -15,-104 13,-28 26,-55 39,-83 69,-151 245,-547 245,-547 5,-13 -2,-20 -18,-19 -2,0 -148,-1 -175,-1 -2,0 -4,0 -6,0 -4,0 -7,0 -11,0 0,0 0,0 0,0 -1,0 -1,0 -1,0 -6,1 -12,1 -18,4 -8,3 -15,8 -20,14 -2,2 -3,3 -4,5 0,0 0,1 -1,1 0,1 0,2 0,2 -2,3 -3,5 -4,8 -50,107 -282,602 -401,849 -2,5 -3,9 -5,13 -1,3 -3,8 -4,15 0,0 -7,29 31,31 0,0 306,1 511,2l0 0 136 0c24,0 46,-11 62,-27 4,-4 8,-9 11,-14 21,-33 48,-81 78,-136 40,-70 118,-212 119,-213 -7,-2 -14,-4 -22,-6z"></path> <path class="fil1" d="M6955 1161c-12,48 -30,92 -54,134 -23,41 -53,74 -88,100 -36,26 -75,39 -120,39 -44,0 -77,-13 -100,-40 -22,-26 -35,-60 -38,-102 -4,-42 1,-85 12,-131 21,-83 57,-148 108,-196 21,-20 46,-36 72,-48 27,-12 53,-19 78,-19 44,0 77,13 100,37 24,25 37,57 41,97 4,41 0,84 -11,129zm254 -193c-6,-59 -22,-110 -49,-155 -27,-44 -63,-78 -110,-102 -47,-25 -103,-37 -167,-37 -113,0 -218,39 -316,115 -59,46 -109,101 -149,165 -39,65 -68,133 -87,205 -37,151 -28,271 29,361 28,45 66,80 115,103 48,23 102,35 162,35 54,0 108,-9 162,-28 53,-19 104,-47 152,-84 60,-48 110,-105 151,-172 40,-67 70,-139 89,-215 17,-68 23,-132 18,-191z"></path> <path class="fil1" d="M4471 1574l-12 21 0 0c0,0 -11,17 -4,32 0,0 4,17 26,19 1,0 2,0 3,0l0 0 140 0 32 0c0,0 21,-3 33,-19l5 -8 122 -225c-4,2 -33,6 -43,8 -95,16 -190,17 -302,172z"></path> <path class="fil1" d="M4940 1160l86 -157 33 162c28,1 58,2 89,2 48,1 97,-6 144,-22l-93 -418c-2,-14 -8,-25 -22,-25l-172 0c0,0 0,0 0,0 -1,0 -2,0 -4,0 -13,0 -25,7 -31,18 -2,2 -3,4 -4,6l-267 454c81,-20 157,-22 241,-20z"></path> <path class="fil1" d="M3531 1118c11,-34 -14,-42 -31,-44l-75 0c-5,0 -10,0 -15,0 -46,0 -73,0 -106,0l0 0c0,0 -1,0 -2,0 -5,0 -11,0 -16,0 -4,0 -7,0 -10,0 -17,-4 -30,-16 -35,-31 0,0 0,0 0,-1 -3,-11 0,-22 2,-29 12,-25 23,-49 32,-73 16,-40 42,-59 83,-60l0 -1 349 0c15,1 33,-6 38,-19l51 -110c11,-34 -16,-43 -25,-45 -4,0 -7,0 -11,0 -35,0 -69,0 -103,-1 -160,0 -313,-1 -473,0 -33,4 -51,27 -60,41 -5,8 -6,14 -6,14l-91 193c-1,4 -3,7 -4,11 -5,10 -10,20 -15,31 -77,164 -155,327 -230,493l0 -1 -2 6 -10 21 -44 99c-1,6 -2,14 2,21 0,0 4,12 27,13l614 0c2,0 11,0 14,0 1,0 3,0 4,-1 0,0 1,1 1,1 12,0 22,-7 27,-17 0,0 0,0 0,-1 19,-37 37,-74 55,-112 7,-36 -17,-43 -26,-44 -108,-1 -232,-2 -338,-4 -20,-1 -36,-14 -43,-32 0,0 0,0 0,0 -2,-9 -1,-18 1,-24 1,-3 1,-5 2,-7 16,-38 35,-75 52,-113 14,-31 38,-49 73,-50 21,0 39,0 55,-1l0 0 195 0 0 0c0,0 0,0 1,0l8 0c12,0 29,-5 37,-25l0 0 48 -98 0 0z"></path> <path class="fil1" d="M2602 1398c0,0 0,0 0,0 -7,-84 -74,-142 -74,-142 79,-12 148,-39 203,-85 3,-2 6,-5 8,-8 38,-39 63,-77 80,-114 0,0 61,-126 56,-204 -2,-66 -34,-144 -173,-144l-166 0 0 0 -151 0c-7,0 -15,0 -22,0l-191 0c-34,0 -51,17 -59,29 -5,8 -6,14 -6,14l-72 147c0,0 0,0 0,0l-130 266 -14 29 -77 158c-39,81 -85,176 -125,258l0 0c-1,2 -2,4 -3,6 -4,10 -9,38 29,38l178 0c8,0 20,-2 27,-9 6,-10 11,-21 16,-32 23,-48 46,-99 68,-147l1 0 58 -120 120 -249c0,0 0,-1 0,-2l1 0 0 0 96 -202c4,-7 14,-18 32,-17 11,-1 21,-1 32,0l162 0c0,0 3,0 9,0l32 0c96,-2 95,53 81,86 -7,14 -38,74 -38,74l0 -1c-6,9 -11,17 -18,24 0,0 0,0 0,0 0,0 0,0 0,0 -8,9 -16,16 -25,22 -55,32 -149,31 -149,31l-23 0c-4,0 -9,0 -14,0 -2,0 -4,0 -6,0l-57 -1c-27,2 -33,20 -33,20l0 0 -62 128 0 0 -5 11c-3,5 -8,22 18,28 1,0 1,0 1,0 16,0 33,0 49,0 90,4 100,34 105,125 2,56 -2,120 -2,176 1,8 1,16 2,24 2,8 9,27 34,31l210 0c3,0 11,-2 10,-15 -6,-47 -15,-102 -17,-149 -1,-29 -2,-57 -6,-84z"></path> <path class="fil1" d="M6198 1596l-14 -32c-32,-83 -93,-254 -142,-392l363 -416c2,-3 4,-6 7,-8l0 0c8,-11 4,-25 2,-32 -4,-11 -15,-14 -24,-15l-195 0c-7,0 -14,2 -21,6 -7,4 -13,10 -18,17l-192 222c-30,-85 -61,-175 -76,-218 -10,-21 -20,-26 -31,-28 -2,0 -9,-1 -9,-1l-178 0 0 0c-25,-1 -31,14 -31,14 -3,7 -2,14 -1,21 1,5 32,95 32,95l33 96c2,6 4,11 6,18 6,18 38,116 71,212l-380 433c-4,5 -8,9 -11,14l-26 -117 -26 -122c-81,36 -153,43 -237,47 17,90 39,202 41,211 2,9 5,15 10,18 5,4 12,6 22,6l438 -1c8,0 15,-2 22,-6 6,-5 12,-10 17,-17l208 -241c27,78 51,147 64,184 4,11 7,19 8,24 1,2 2,5 4,7l9 25c8,19 25,24 36,25l193 0c25,1 30,-14 30,-14 4,-9 2,-19 0,-26l-4 -9z"></path> <path class="fil2" d="M5508 973c1,-7 0,-62 0,-62 0,0 -13,41 -15,46 -39,100 -116,159 -201,188 -47,16 -96,23 -144,22 -31,0 -60,-1 -89,-2 -42,-2 -81,-4 -119,-5 -84,-2 -160,0 -241,20 -2,1 -5,2 -8,2 -160,43 -236,156 -258,267 -9,43 -10,87 -4,126 43,-129 123,-233 345,-236 287,-1 726,73 734,-366z"></path> </g> </svg> 