<?xml version="1.0" encoding="UTF-8"?> <svg xmlns="http://www.w3.org/2000/svg" xmlns:xlink="http://www.w3.org/1999/xlink" xmlns:xodm="http://www.corel.com/coreldraw/odm/2003" xml:space="preserve" width="35.56mm" height="35.56mm" version="1.1" style="shape-rendering:geometricPrecision; text-rendering:geometricPrecision; image-rendering:optimizeQuality; fill-rule:evenodd; clip-rule:evenodd" viewBox="0 0 54.24 54.24"> <defs> <style type="text/css"> .fil0 {fill:none} .fil1 {fill:#B6292F} </style> </defs> <g id="Layer_x0020_1"> <metadata id="CorelCorpID_0Corel-Layer"></metadata> <g id="_2654413234336"> <path class="fil0" d="M27.12 0l0 0c14.98,0 27.12,12.14 27.12,27.12l0 0c-0,14.98 -12.14,27.12 -27.12,27.12l0 0c-14.98,-0 -27.12,-12.14 -27.12,-27.12l-0 0c0,-14.98 12.14,-27.12 27.12,-27.12z"></path> <g> <g> <path class="fil1" d="M11.62 27.12c0,1.34 0.92,2 2.26,2l26.43 0c3.07,0 3.07,-4 0,-4l-26.43 0c-1.34,0 -2.26,0.66 -2.26,2z"></path> <path class="fil1" d="M11.62 36.84c0,1.05 0.76,1.91 1.72,1.91l15.92 0c2.23,0 2.46,-3.9 -0.27,-3.9l-15.38 0c-1.19,0 -2,0.81 -2,2z"></path> <path class="fil1" d="M23.22 17.31c0,1.27 0.75,2.09 1.98,2.09l15.39 0c2.73,0 2.49,-3.9 0.27,-3.9l-15.94 0c-0.95,0 -1.71,0.88 -1.71,1.82z"></path> </g> </g> </g> </g> </svg> 