<?xml version="1.0" encoding="UTF-8"?> <svg xmlns="http://www.w3.org/2000/svg" xmlns:xlink="http://www.w3.org/1999/xlink" xmlns:xodm="http://www.corel.com/coreldraw/odm/2003" xml:space="preserve" width="366.387mm" height="112.732mm" version="1.1" style="shape-rendering:geometricPrecision; text-rendering:geometricPrecision; image-rendering:optimizeQuality; fill-rule:evenodd; clip-rule:evenodd" viewBox="0 0 12318.43 3790.19"> <defs> <style type="text/css"> .fil0 {fill:#FEFEFE} </style> </defs> <g id="Layer_x0020_1"> <metadata id="CorelCorpID_0Corel-Layer"></metadata> <g id="_1754311772960"> <path class="fil0" d="M1777.12 3790.19c38.57,-12.33 741.36,-422.53 796.52,-454.04l788.5 -454.97c3.16,-605.31 7.4,-1210.71 -1.81,-1815.96 -28.81,-4.72 -136.69,66.3 -167.85,84 -52.15,29.64 -104.85,58.88 -159.46,94.97l-2.47 1446.5c-39.56,28.36 -251.35,155.16 -296.57,161.96l-2.26 -1425.31c-61.34,15.62 -277.9,148.09 -328.49,183.89l-0.63 1384.19c-0.12,56.45 -6.25,66.88 -45.21,89.75 -44.86,26.33 -218.62,126.09 -250.41,130.82l-0.56 -241.67c-0.83,-347.27 8.85,-860.97 -2.7,-1186.19 -60.63,28.45 -110.2,55.67 -166.52,89.21 -40.98,24.4 -126.05,68.98 -161.92,98.3l1.85 1814.56z"></path> <path class="fil0" d="M713.53 547.93c21.72,21.41 572.7,335.43 612.3,358.05l611.01 366.35c-34.23,36.75 -169.57,103.52 -223.09,135.33 -79.87,47.48 -66.15,26.28 -239.7,-72.86 -154.61,-88.33 -305.69,-176.25 -458.24,-266.18 -156.44,-92.21 -417.64,-250.23 -573.76,-333.9 -61.86,-33.16 -171.44,59.34 -243.44,100.09 -31.52,17.84 -96.59,44.21 -109.73,71.79 27.32,32.39 1551.01,907.97 1569.06,909.95 16.69,1.82 865.44,-495.35 943.9,-547.6l-1225.44 -721.03c40.3,-50.35 154.19,-103.07 221.77,-142.36 87.35,-50.78 78.49,-21.06 240.79,71.66 300.3,171.57 627.87,371.02 925.57,537.4 175.05,97.83 120.53,96.46 234.12,31.78 58.27,-33.18 191.83,-101.84 225.64,-139.79l-1248.43 -734.78c-42.09,-24.76 -281.68,-176 -318.89,-171.74l-790.06 448.16c-34.7,19.18 -139.3,68.11 -153.39,99.68z"></path> <path class="fil0" d="M333.48 3064.84l1.98 -702.81c25.35,5.35 853.97,476.04 945.23,530.33 48.36,28.77 278.24,164.84 317.22,174.42l1.33 -373.14 -1258.57 -718.7 -1.24 -336.15c49.21,20.2 108.92,58 155.32,84.32l782.45 441.14c59.51,32.84 276.97,163.36 316.72,177.43 14.97,-428.74 55.01,-340.37 -210.19,-494.67 -137.67,-80.09 -1282.1,-763.4 -1380.6,-786.37 -9.59,580.94 6.75,1172.99 -0.93,1751.96 -1.07,80.54 -11.88,69.62 138.31,150.88 54.9,29.7 131.63,86.85 192.98,101.33z"></path> </g> <g id="_1754311794560"> <path class="fil0" d="M7982.66 2046.99c83.78,-2.45 163.83,-94.04 163.74,-168.13l-1.9 -964.83 -283.67 -1.5c-9.96,267.99 -1.1,619.94 -2.58,904.47l-166.4 -0.23 -3.12 -904.79 -278.28 0.09 -0.69 905.63 -167.87 0.91 -2.69 -906.56 -274.01 0.77 1.37 1132.14 1016.1 2.02z"></path> <path class="fil0" d="M5378.69 1141.03l227.2 -0.87 -0.34 447.05 -226.81 2.61 -0.04 -448.78zm0.06 672.34l226.26 2.88 3.55 229.78 275.27 0.18c21.09,-224.16 3.29,-539.17 3.28,-773.1 -0.01,-242.98 27.12,-218.28 -70.33,-319.03 -66.35,-68.58 -144.12,-42.27 -330.79,-42.27 -215.22,0 -252.11,-27.07 -331.88,53.46 -48.98,49.42 -58.42,41.22 -58.45,137.64 -0.1,263.28 -16.5,730.82 3.68,943.08l277.83 -0.77 1.57 -231.85z"></path> <path class="fil0" d="M9514.84 1139.6l222.24 0.63 -0.63 675.95 -220.61 2.77 -1 -679.35zm-280.54 903.93c144,12.6 331.05,2.65 479.75,2.69 86.35,0.03 163.38,16.3 211.42,-28.79 53.55,-50.24 96.14,-61.78 96.2,-150.68l0.03 -763.23c0,-107.06 -80.99,-191.92 -186.51,-191.91l-602.74 2.72c-13.34,272.95 -5.41,821.85 1.86,1129.21z"></path> <path class="fil0" d="M8576.29 1139.53l226.75 3.08 -0.46 444.06 -45.6 3.33 -60.57 0.07 -84.82 0.33 -34.89 -2.22 -0.29 -97 -0.04 -254.41 -0.08 -97.24zm1.97 690.81c11.19,-30.71 -20.49,-22.21 106,-20.85 39.34,0.43 76.63,-0.7 116.03,1.82l12.69 233.55 268.25 0.4c19.57,-229.2 2.89,-534.72 2.87,-772.14 0,-259.33 25.54,-213.79 -70.44,-317.44 -65.45,-70.67 -139.2,-43.84 -329.37,-43.86 -223.39,0 -250.59,-27.12 -332.09,53.24 -51.17,50.48 -60.01,39.48 -59.76,137.89 0.69,262.72 -17.27,734.16 4.34,943.03l278.82 -0.01 2.66 -215.63z"></path> <path class="fil0" d="M6319.7 1139.6l223.82 -0.17 -2.66 229.24 -221.17 -0.31 0.01 -228.76zm379.76 315.24c24.15,-38.15 59.28,-65.38 93.13,-98.9 46.96,-46.53 33.73,-55.73 33.08,-143.15 -1.38,-189.02 21.56,-170.14 -87.56,-270.96 -47.79,-44.17 -78.8,-30.45 -161.75,-30.05l-542.6 2.03c-6.57,239.54 -13.11,898.22 1.63,1129.85 58.81,5.47 118.68,1.96 177.86,2.89 105.5,1.69 106.76,21.88 106.61,-70.77l2.82 -386.33 215.32 1.1 4.52 455.89 281.47 -4.64c6.88,-115.16 0.47,-240.59 1.76,-357.22 1.79,-163.79 -53.11,-131.27 -126.3,-229.76z"></path> <path class="fil0" d="M10452.45 1139.5l229.97 1.39 -0.36 447.85 -229.09 0.64 -0.16 -401.06 -0.37 -48.82zm-0.19 673.34l229.5 2.85 3.75 230.57 272.85 -2.15c11.23,-257.41 2.48,-689.24 2.49,-964.83 0,-74.62 -23.2,-75.41 -63.22,-117.56 -42.04,-44.29 -34.87,-49.92 -117.5,-50.01 -133.09,0.49 -267.11,1.32 -400.14,-0.23 -97.4,-1.13 -93.88,-5.95 -144.17,47.45 -49.92,52.98 -64.83,39.48 -65.02,132.45l3.65 954.8 276.44 -1.76 1.83 -141.34 -0.46 -90.25z"></path> <path class="fil0" d="M11391.08 1144.85l227.7 -6.08 -0.9 229.96 -225.75 -1.37 -1.05 -222.5zm-8.71 903.24l6.51 -456.66 227.19 -7.01 7.69 460.96 275.73 -4.18c8.5,-111.41 1.27,-242.59 2.22,-356.63 1.4,-167.21 -59.94,-129.95 -127.66,-229.73 93.15,-145.48 129.08,-44.07 127.53,-242.02 -1.52,-196.81 22.59,-163.92 -88.37,-270.31 -47.9,-45.93 -76.31,-31.26 -160.74,-30.75 -154.04,0.98 -412.31,-7.47 -542.32,2.53l0.23 1131.38 272 2.42z"></path> <path class="fil0" d="M4384.27 1140.06l566.15 -3.03 -2.16 -223.58 -673.74 -1.77c-80.46,0 -91.68,33.65 -136.33,79.71 -49.38,50.9 -32.64,94.31 -32.64,184.81l0.77 306.94c105.53,98.43 68.6,106.17 252.99,106.2l304.29 0.6 1.46 228.43 -559.53 1.03 2.73 225.78 614.49 1.16c105.17,0.01 109.53,2.92 170.99,-57.08 59.55,-58.15 57.21,-43.02 57.25,-134.63l0.01 -314.98c0.01,-95.01 -21.93,-90.37 -72.82,-143.39 -50.13,-52.24 -72.85,-36.99 -167.54,-36.99l-326.67 -1.2 0.42 -169.74 -0.13 -48.27z"></path> <polygon class="fil0" points="12042.26,2046.48 12318.43,2044.89 12316.4,911.96 12039.73,912.11 "></polygon> <path class="fil0" d="M8597.73 2717.13c-37.69,-76.41 -59.67,-338.59 -85.19,-447.72l-120.36 2.06 122.64 612.64 143.9 -1.3 72.5 -373.36 71.46 375.29 142.97 -5.06 111.71 -610.53 -115.03 1.52 -68.21 429.02 -96.87 -430.78 -97.77 3.23 -81.75 444.99z"></path> <path class="fil0" d="M11995.23 2355.52c63.28,-3.74 97.37,1.16 146.78,15.71 46.46,142.3 -2.48,166.41 -148.18,159.23l1.4 -174.94zm203.6 213c45.99,-32.08 73.09,-44.29 78.11,-122.51 13.49,-210.48 -181.01,-179.7 -396.83,-176.67l-0.52 614.82 114.04 -0.18 0.39 -265.96c223.79,-22 149.26,84.72 173.38,264.46l137.58 -1.13c-67.72,-121.25 28.59,-232.7 -106.16,-312.82z"></path> <path class="fil0" d="M6388.73 2569.39c-0.76,-96.77 -13.67,-224.45 90.7,-220.94 93.36,3.15 83.3,128.64 83.51,208.84 0.17,98.03 16.78,258.56 -94.1,251.21 -96.18,-6.38 -79.33,-139.68 -80.11,-239.1zm-119.82 109.03c15.98,161.23 106.59,271.41 295.52,207.1 129.35,-44.01 130.14,-250.74 116.87,-411.28 -13.44,-162.55 -119.88,-271.65 -295.65,-204.4 -130.96,50.11 -131.91,255.53 -116.75,408.57z"></path> <path class="fil0" d="M5268.31 2581.51c-0.25,-132.03 -25.34,-249.39 131.08,-228.28 51.28,68.41 65.72,290.57 29.76,402.13 -18.77,58.24 -94.68,73.63 -132.93,28.53 -37.9,-44.7 -27.8,-140.14 -27.92,-202.38zm-116.13 133.26c14.87,78.43 27.76,130.14 97.74,163.39 62.3,29.62 168.5,27.34 221.93,-7.84 104.84,-69.04 103.71,-277.2 84.64,-432.35 -26.87,-218.69 -235.91,-203.36 -319.63,-153.86 -99.12,58.6 -112.68,282.94 -84.68,430.67z"></path> <path class="fil0" d="M10970.17 2387.56l49.49 252.3 -101.93 0.57 52.44 -252.88zm-69.01 340.56l136.88 2.27 32.29 153.39 127.64 -0.57 -144.16 -613.69 -161.82 2.06 -144.52 610.79 120.04 1.36 33.65 -155.61z"></path> <polygon class="fil0" points="9869.11,2372.66 10079.14,2372.36 10077.51,2268.61 9752.14,2271.23 9751.68,2884.33 10088.64,2881.98 10083.21,2780.73 9868.17,2779.54 9875.91,2610.75 10065.61,2609.43 10065.93,2516.24 9870.99,2516.18 "></polygon> <polygon class="fil0" points="4240.33,2371.27 4454.59,2369.99 4453.58,2268.64 4120.89,2272.96 4120.43,2881.6 4240.6,2884.09 4240.4,2615.32 4443.08,2613.52 4445.53,2518.13 4241.3,2515.43 "></polygon> <polygon class="fil0" points="7492.41,2371.54 7493.17,2883.99 7609.33,2883.6 7614.02,2371.79 7749.5,2365.98 7747.36,2269.02 7353.84,2270.07 7353.67,2368.94 "></polygon> </g> </g> </svg> 