<?xml version="1.0" encoding="UTF-8"?> <svg xmlns="http://www.w3.org/2000/svg" xmlns:xlink="http://www.w3.org/1999/xlink" xmlns:xodm="http://www.corel.com/coreldraw/odm/2003" xml:space="preserve" width="20.3175mm" height="15.24mm" version="1.1" style="shape-rendering:geometricPrecision; text-rendering:geometricPrecision; image-rendering:optimizeQuality; fill-rule:evenodd; clip-rule:evenodd" viewBox="0 0 17.82 13.37"> <defs> <style type="text/css"> .fil0 {fill:#B6292F} </style> </defs> <g id="Layer_x0020_1"> <metadata id="CorelCorpID_0Corel-Layer"></metadata> <g id="_2654413234336"> <g> <g> <path class="fil0" d="M-0 6.68c0,0.77 0.53,1.15 1.3,1.15l15.2 0c1.76,0 1.76,-2.3 0,-2.3l-15.2 0c-0.77,0 -1.3,0.38 -1.3,1.15z"></path> <path class="fil0" d="M-0 12.27c0,0.61 0.44,1.1 0.99,1.1l9.16 0c1.28,0 1.41,-2.25 -0.16,-2.25l-8.84 0c-0.68,0 -1.15,0.46 -1.15,1.15z"></path> <path class="fil0" d="M6.67 1.04c0,0.73 0.43,1.2 1.14,1.2l8.85 0c1.57,0 1.43,-2.25 0.16,-2.25l-9.17 0c-0.54,0 -0.98,0.51 -0.98,1.04z"></path> </g> </g> </g> </g> </svg> 