<?xml version="1.0" encoding="UTF-8"?> <svg xmlns="http://www.w3.org/2000/svg" xmlns:xlink="http://www.w3.org/1999/xlink" xml:space="preserve" width="172.206mm" height="45.1556mm" version="1.1" style="shape-rendering:geometricPrecision; text-rendering:geometricPrecision; image-rendering:optimizeQuality; fill-rule:evenodd; clip-rule:evenodd" viewBox="0 0 8894 2332"> <defs> <style type="text/css"> .fil0 {fill:none} .fil1 {fill:#062849} </style> </defs> <rect class="fil0" width="8894" height="2332"></rect> <g> <path class="fil1" d="M1520 1144c46,-100 -17,-139 -166,-139l-249 0c-54,0 -66,-5 -54,-31l18 -39c11,-25 27,-30 81,-30l327 0c67,0 95,9 132,23l32 -138 -651 0c-124,0 -220,57 -270,165l-70 155c-54,116 -15,150 125,150l286 0c55,0 64,6 52,31l-22 47c-11,26 -25,31 -80,31l-339 0c-70,0 -97,-13 -126,-26l-35 141 634 0c168,0 247,-61 297,-170l78 -170 0 0zm1699 38c81,0 117,10 151,18l69 -151c-42,8 -86,18 -167,18l-250 0 74 -162 286 0c82,0 118,9 152,18l32 -133 -797 0c5,27 4,53 -26,119l-208 455c-19,41 -35,66 -52,87 -21,-37 -36,-79 -47,-110l-112 -346 233 -137c66,-39 102,-51 152,-68l-321 0c-3,9 -5,17 -9,26 -10,23 -27,40 -83,75l-337 210 88 -192c30,-66 54,-92 83,-119l-409 0c6,28 5,53 -25,119l-208 455c-30,66 -53,92 -83,120l408 0c-4,-28 -4,-54 26,-120l48 -104 115 -70 72 294 1189 -1 93 -133c-40,8 -85,18 -167,18l-305 0 86 -186 249 0 0 0zm1052 133c0,0 -111,26 -251,26 0,0 -136,0 -164,0 -36,0 -47,-10 -33,-44 13,-34 149,-326 149,-326 5,-10 22,-39 65,-39l258 0c64,0 122,21 122,21l41 -159 -2 0 1 -4 -553 0c-150,0 -258,54 -326,204l-131 286c-68,148 -9,203 140,203l567 0 117 -168 0 0zm1004 48l208 -455c30,-66 53,-91 83,-119l-409 1c5,27 5,52 -26,118l-72 159 -262 0 73 -159c30,-66 53,-91 83,-118l-408 0c5,27 4,52 -27,118l-207 456c-31,65 -54,91 -84,119l409 0c-5,-28 -5,-54 26,-119l83 -182 262 -1 -83 183c-31,65 -54,91 -84,119l408 0c-4,-28 -4,-54 27,-120l0 0zm737 5l-305 0 85 -187 250 0c80,0 117,10 150,19l69 -151c-41,8 -86,18 -166,18l-251 0 75 -163 286 0c82,0 118,10 151,19l32 -134 -796 1c5,27 4,52 -26,118l-208 455c-31,66 -54,92 -83,120l810 0 93 -134c-39,9 -85,19 -166,19l0 0zm1032 -425l-38 85c-15,33 -31,38 -76,39l-198 0 75 -163 198 0c44,0 55,5 39,39l0 0zm102 238c77,-4 145,-9 192,-111l58 -128c53,-116 -8,-153 -169,-153l-756 0c13,28 13,53 -18,119l-208 456c-30,65 -53,91 -83,119l408 0c-4,-28 -4,-54 26,-120l83 -182 108 0 29 302 393 0c-19,-27 -19,-63 -28,-107l-35 -195 0 0zm651 -247c12,-25 27,-30 82,-30l326 0c68,0 95,9 132,23l46 -138 -665 0c-124,0 -219,56 -269,165l-70 155c-54,116 -15,150 124,150l287 0c54,0 64,5 52,31l-22 47c-11,26 -25,30 -81,30l-339 0c-68,0 -97,-13 -126,-25l-34 141 633 0c169,-1 248,-62 298,-171l77 -169c47,-101 -16,-140 -166,-140l-249 0c-55,0 -66,-4 -54,-30l18 -39 0 0zm469 533l17 0c13,0 19,-4 19,-11 0,-8 -6,-12 -17,-12l-19 0 0 23zm21 -34c18,0 28,8 28,22 0,6 -1,10 -8,15l1 4 3 4c1,1 1,2 2,5 1,1 1,3 1,5l1 6 0 4 0 3c0,2 0,2 2,7l-13 0c-2,-4 -2,-4 -3,-13 -1,-15 -3,-18 -18,-18l-16 0 0 30 -14 0 0 -74 34 0 0 0zm-63 38c0,33 26,60 60,60 32,0 59,-27 59,-60 0,-33 -26,-59 -59,-59 -34,0 -60,26 -60,59l0 0zm132 0c0,40 -32,72 -72,72 -41,0 -74,-32 -74,-72 0,-40 33,-72 74,-72 40,0 72,32 72,72l0 0zm0 0l0 0 0 0z"></path> </g> </svg> 