<?xml version="1.0" encoding="UTF-8"?> <svg xmlns="http://www.w3.org/2000/svg" xmlns:xlink="http://www.w3.org/1999/xlink" xml:space="preserve" width="91.44mm" height="50.8mm" version="1.1" style="shape-rendering:geometricPrecision; text-rendering:geometricPrecision; image-rendering:optimizeQuality; fill-rule:evenodd; clip-rule:evenodd" viewBox="0 0 9144 5080"> <defs> <style type="text/css"> .fil0 {fill:none} .fil1 {fill:#062849} </style> </defs> <g id="Layer_x0020_1"> <metadata id="CorelCorpID_0Corel-Layer"></metadata> <rect class="fil0" width="9144" height="5080"></rect> <g> <path class="fil1" d="M1945 2521c41,-91 -15,-126 -149,-126l-224 0c-48,0 -58,-4 -48,-27l16 -35c10,-23 25,-27 73,-27l293 0c61,0 86,8 119,20l29 -123 -584 0c-112,0 -198,50 -243,148l-62 139c-49,104 -14,134 111,135l257 0c49,0 57,4 47,27l-20 43c-10,23 -23,27 -71,27l-305 0c-62,0 -87,-12 -113,-23l-31 126 569 0c151,0 221,-55 266,-152l70 -152 0 0zm1525 33c73,0 105,9 135,17l62 -136c-37,7 -77,16 -149,16l-225 0 67 -145 256 0c74,0 106,8 136,16l29 -120 -715 0c5,25 4,48 -23,107l-187 409c-17,36 -31,59 -46,77 -19,-33 -33,-70 -43,-98l-100 -311 209 -122c59,-35 92,-46 136,-62l-288 1c-2,8 -4,15 -8,23 -9,21 -24,36 -74,67l-303 189 79 -173c27,-59 48,-82 75,-107l-367 1c5,24 4,47 -23,106l-187 409c-27,59 -47,82 -74,107l366 0c-4,-25 -4,-48 23,-107l43 -94 104 -63 64 264 1067 0 84 -120c-36,7 -76,16 -150,16l-274 0 77 -167 224 0 0 0zm944 120c0,0 -100,23 -225,23 0,0 -122,0 -148,0 -32,0 -41,-9 -29,-40 12,-30 134,-292 134,-292 4,-9 19,-35 58,-35l232 0c57,0 109,19 109,19l37 -143 -2 0 1 -4 -496 0c-135,0 -232,49 -293,183l-117 257c-62,133 -9,183 125,183l509 0 105 -151 0 0zm901 43l187 -408c26,-59 48,-82 74,-107l-367 0c5,25 5,48 -23,107l-64 142 -236 0 66 -142c27,-60 47,-82 75,-107l-367 0c4,25 4,48 -24,107l-186 408c-28,59 -49,83 -76,108l367 -1c-4,-24 -4,-48 24,-107l75 -163 234 0 -74 163c-27,59 -48,82 -75,107l366 0c-4,-25 -4,-48 24,-107l0 0zm661 4l-273 0 76 -167 225 0c72,0 104,8 134,16l62 -136c-37,8 -77,17 -149,17l-225 0 67 -146 257 0c74,0 105,9 136,16l28 -119 -715 0c5,25 4,48 -23,107l-186 408c-28,59 -49,82 -75,107l727 0 84 -120c-36,8 -76,17 -150,17l0 0zm927 -381l-34 76c-14,30 -28,35 -69,35l-178 0 68 -146 177 0c41,0 50,4 36,35l0 0zm91 213c69,-3 130,-8 172,-99l52 -115c48,-104 -6,-137 -151,-137l-679 0c12,24 12,47 -16,107l-186 408c-27,59 -48,82 -75,107l367 0c-5,-25 -4,-48 23,-107l74 -163 97 -1 26 271 353 0c-17,-23 -18,-56 -25,-95l-32 -176 0 0zm585 -221c10,-23 24,-27 73,-27l293 0c61,0 85,8 118,20l41 -124 -596 1c-111,0 -197,50 -242,148l-63 139c-48,104 -13,134 112,134l257 0c48,0 57,5 47,28l-20 43c-10,23 -23,27 -72,27l-305 0c-61,0 -87,-12 -113,-24l-30 127 568 0c151,0 222,-55 267,-153l70 -152c41,-90 -15,-125 -150,-125l-223 0c-49,0 -59,-4 -48,-27l16 -35 0 0zm421 478l15 0c11,0 17,-4 17,-10 0,-7 -5,-10 -16,-10l-16 0 0 20zm18 -30c17,0 26,6 26,19 0,6 -2,9 -8,14l1 3 3 4c0,1 1,2 1,4 1,2 1,3 1,5l1 5 0 4 1 3c0,1 0,2 1,6l-12 0c-1,-3 -2,-4 -2,-11 -1,-14 -3,-17 -16,-17l-15 0 0 27 -13 0 0 -66 31 0 0 0zm-57 34c0,29 24,53 54,53 30,0 53,-24 53,-53 0,-30 -23,-54 -53,-54 -30,0 -54,24 -54,54l0 0zm119 0c0,36 -29,65 -65,65 -36,0 -66,-29 -66,-65 0,-36 30,-65 66,-65 36,0 65,29 65,65l0 0zm0 0l0 0 0 0z"></path> </g> </g> </svg> 