<?xml version="1.0" encoding="UTF-8"?> <svg xmlns="http://www.w3.org/2000/svg" xmlns:xlink="http://www.w3.org/1999/xlink" xml:space="preserve" width="430px" height="440px" version="1.1" style="shape-rendering:geometricPrecision; text-rendering:geometricPrecision; image-rendering:optimizeQuality; fill-rule:evenodd; clip-rule:evenodd" viewBox="0 0 430 440"> <defs> <style type="text/css"> .fil0 {fill:#B6292F} </style> </defs> <g id="Layer_x0020_1"> <metadata id="CorelCorpID_0Corel-Layer"></metadata> <g id="_2639498286640"> <path class="fil0" d="M21 385l0 -220c0,-21 18,-42 39,-42l308 0c12,0 21,6 28,11 6,6 13,17 13,27l0 224c0,17 -17,34 -34,34l-320 0c-17,0 -34,-16 -34,-34zm12 -277c0,0 3,-2 3,-2 34,-25 54,-25 96,-37 35,-10 73,-20 108,-30 11,-3 24,-7 36,-10 16,-4 24,-8 42,-8 8,0 9,10 9,18l0 43 21 0c0,-20 3,-57 -7,-70 -13,-17 -35,-12 -53,-8l-136 37c-7,2 -15,5 -23,7 -13,3 -52,13 -66,19 -7,3 -14,6 -20,9 -11,6 -25,16 -32,27 -7,12 -11,26 -11,46l0 237c0,27 27,54 54,54l322 0c27,0 54,-27 54,-54l0 -229c0,-26 -30,-55 -59,-55l-314 0c-5,0 -9,1 -13,3 -3,0 -8,2 -10,4l-1 -1z"></path> <path class="fil0" d="M327 271c0,12 11,26 26,26 15,0 26,-11 26,-28 0,-20 -28,-32 -44,-16 -4,3 -8,12 -8,18z"></path> </g> </g> </svg> 