<?xml version="1.0" encoding="UTF-8"?> <svg xmlns="http://www.w3.org/2000/svg" xmlns:xlink="http://www.w3.org/1999/xlink" xml:space="preserve" width="172.206mm" height="45.1556mm" version="1.1" style="shape-rendering:geometricPrecision; text-rendering:geometricPrecision; image-rendering:optimizeQuality; fill-rule:evenodd; clip-rule:evenodd" viewBox="0 0 269839 70757"> <defs> <style type="text/css"> .fil0 {fill:none} .fil1 {fill:#00652D} </style> </defs> <g id="Layer_x0020_1"> <metadata id="CorelCorpID_0Corel-Layer"></metadata> <rect class="fil0" width="269839" height="70757"></rect> <g id="_1745934052192"> <path class="fil1" d="M182387 61365c52,207 71,399 -86,538 -18,405 -422,777 -779,935 -445,197 -1028,143 -1561,166l-14 662c2011,79 4177,8 6180,6 1233,-2 3262,76 4444,-173 350,-74 1011,-306 1275,-295 66,-63 25,-35 128,-92l1079 -445c828,-413 1386,-757 2052,-1374 263,-245 607,-729 842,-890 155,-292 327,-486 508,-779 2489,-4009 2236,-10472 -468,-14089 -1284,-1717 -3247,-3017 -6402,-3302 -1077,-98 -8398,-112 -9641,-58l3 650c2199,113 2526,307 2526,2794 1,1756 -4,3512 -6,5268 0,288 117,10136 -80,10478zm9581 -1283c747,-796 1161,-3932 1234,-4837 257,-3157 65,-7533 -1806,-10097 -952,-1304 -2215,-1718 -4488,-1677l-17 16218c45,1657 -401,3144 2309,2651 723,-131 1270,-449 1711,-792 261,-203 990,-1041 1057,-1466zm-120307 -17266c1144,342 1134,485 1652,1898 841,2295 1884,5887 2660,8325 218,687 3339,10789 3531,11114l496 11 4521 -13605c217,277 1798,5832 2096,6772 395,1247 1795,5783 2042,6825l570 11c453,-1800 1096,-3699 1630,-5510 548,-1857 1116,-3693 1651,-5550 799,-2772 1632,-5555 2496,-8300 318,-1009 546,-1792 1600,-1960l25 -651c-461,-110 -3814,-69 -4445,-27l-15 667c1597,122 1979,728 1510,2661 -443,1823 -1493,5092 -2073,7049l-1013 3366c-51,94 -39,72 -91,130 -1050,-3449 -2227,-7215 -3210,-10676 -529,-1860 -591,-2453 1459,-2527l-7 -675 -8193 4 -14 663c872,44 1266,178 1659,740 485,693 1035,2630 1314,3563 176,593 562,1350 356,1968 -206,616 -2234,7091 -2445,7461l-183 -415 -998 -3174c-742,-2328 -1599,-4913 -2283,-7231 -616,-2085 -712,-2728 1058,-2918l-7 -640 -7343 -20 -6 651zm39587 10319c299,269 445,1120 1538,2186 1147,1119 1804,1097 2297,1414 10,7 30,20 43,32 468,-22 1223,340 2782,146 5667,-705 7248,-9318 3304,-13213 -1030,-1017 -2373,-1568 -4423,-1574 -5043,-15 -7075,5588 -5883,9891 96,343 347,867 342,1118zm5229 -10199c-2394,585 -2671,4429 -2627,7105 42,2562 693,6652 3700,6006 3227,-692 2905,-8758 1889,-11268 -421,-1042 -1345,-2238 -2962,-1843zm-14947 -759c-3994,572 -5653,4684 -5248,8463 401,3744 3116,6926 7467,6234 7532,-1197 7106,-16033 -2219,-14697zm622 753c-2398,537 -2721,4372 -2668,7046 51,2559 605,6647 3636,6082 3265,-608 2948,-8781 1968,-11232 -429,-1070 -1334,-2255 -2936,-1896zm29064 13627l199 -103c901,-342 1916,-431 2966,-1585 2187,-2403 2393,-6471 1005,-9339 -327,-674 -645,-965 -988,-1484 -368,-225 -574,-694 -1727,-1193 -1944,-842 -6183,-549 -8528,-537l-26 454c1945,31 1678,786 1684,2524 4,1222 126,9726 -130,10287 -261,570 -739,577 -1515,605l-27 455 5383 10c487,-5 1381,-120 1704,-94zm-2369 -13342c-137,105 -104,-137 -117,193 -2,2407 0,4812 3,7219 2,1192 4,2384 4,3576 -1,545 -74,1215 349,1457 421,241 1186,126 1608,-38 884,-342 1342,-1016 1698,-1921 821,-2089 865,-6489 -200,-8625 -55,-111 -100,-210 -150,-301 -16,-30 -59,-103 -77,-125 -122,-151 -34,-60 -156,-142 -85,-351 -694,-865 -1093,-1040 -468,-204 -1337,-315 -1869,-253zm35884 12922l-478 21 -70 463 4829 17 6 -446c-865,-16 -1439,-184 -1784,-712 -482,-1137 -289,-3545 -292,-4919 -3,-1749 3,-3499 14,-5249 310,121 205,101 495,479 878,1148 5477,7016 5656,7436 153,86 2276,2875 2700,3447 189,257 149,308 568,292 187,-499 53,-6760 55,-7835 3,-1322 -4,-2645 3,-3967 11,-2347 551,-2075 1737,-2406l-8 -417 -4485 1 0 388c495,124 729,18 1181,265 289,159 485,367 605,708 297,849 208,6339 163,7301 -280,-159 -4409,-5797 -4990,-6549 -316,-409 -541,-713 -831,-1099 -247,-329 -519,-756 -809,-1043l-4797 3 -13 377c152,94 12,31 228,88 44,12 183,30 246,41 509,92 687,254 1032,661 576,680 460,579 467,1616l3 8194c3,1354 143,2662 -1431,2844zm-9336 -12094c-8,349 -1107,2957 -1343,3549 -118,294 -1218,3274 -1448,3507 -3,318 -1345,3628 -1825,4313 -477,679 -845,614 -1232,808l46 420 4181 -10c57,-230 57,-261 -22,-427 -392,-126 -938,-78 -1257,-315 -898,-669 393,-3171 484,-3290l4325 -4c1360,3225 1474,3478 -455,3597l26 449 6110 4 25 -450c-271,-59 -452,-64 -634,-206 -678,-322 -1259,-2009 -1557,-2825 -386,-1059 -802,-2060 -1202,-3107 -300,-783 -2391,-5920 -2351,-6218 -91,-84 -23,3 -113,-133l-145 -336c-143,-378 -385,-1196 -599,-1342 -463,120 -636,1691 -1014,2016zm-2118 7692l3695 7c-134,-506 -1025,-2714 -1320,-3469l-394 -1003c-108,-180 -34,-77 -141,-176l-1840 4641zm-14602 -6383c70,957 5,2146 -1,3129 -5,1039 -5,2081 -1,3121 4,1024 33,2105 2,3122 -40,1352 -377,1385 -1668,1468l-14 445 10716 -23 48 -721 386 -4320c-772,-14 -272,53 -1005,1891 -265,665 -679,1397 -1103,1715 -647,485 -1222,598 -2263,593 -585,-4 -2285,177 -2046,-817 -66,-110 -81,-181 -98,-359 -48,-495 -6,-4851 -7,-5400 0,-774 -156,-5331 120,-5628 34,-828 889,-725 1687,-812l-1 -431 -6421 -12 -23 445c735,69 1265,28 1547,575 232,448 102,1468 145,2019z"></path> <path class="fil1" d="M133829 34459c-2810,-782 -3976,-1773 -5064,1568 656,429 1462,113 2451,1273 827,972 695,1445 904,2856l8135 11c67,-2457 930,-3840 3290,-3987 -174,-513 -368,-989 -551,-1486 -715,-1937 -3420,-507 -4487,-225l-39 -3289 -4612 0 -27 3279z"></path> <path class="fil1" d="M130976 65216l10333 13c-335,-972 -707,-1207 -928,-2531 -170,-1020 -167,-2113 -201,-3169l-8110 3c-56,1119 15,2102 -148,3201 -195,1307 -560,1549 -946,2483z"></path> <path class="fil1" d="M132213 22108c1686,-1105 3239,-5004 1619,-8354 -265,-548 -1016,-2026 -1616,-2297 -2571,2781 -3050,6343 -875,9510 314,456 636,765 872,1141z"></path> <path class="fil1" d="M111386 19963c503,1346 2362,3193 3631,3831 2308,1160 4046,688 6395,82 -1701,-4233 -7176,-5570 -10026,-3913z"></path> <path class="fil1" d="M144765 34551c1246,5024 6992,6269 9366,5121 -470,-1758 -2035,-3480 -3195,-4281 -1645,-1134 -3844,-1220 -6171,-840z"></path> <path class="fil1" d="M150704 33327c3014,2809 7233,2379 10221,-182 372,-319 251,-105 429,-493 -5244,-4129 -10275,-321 -10650,675z"></path> <path class="fil1" d="M128073 32788c-385,-2070 -1640,-3780 -2802,-4664 -1665,-1265 -3556,-1564 -6138,-1383 509,1982 1510,3558 2782,4595 1680,1369 3422,1536 6158,1452z"></path> <path class="fil1" d="M150891 23832c4809,1848 8489,-544 10047,-3869 -1401,-917 -4885,-670 -6381,65 -1883,926 -2647,2070 -3666,3804z"></path> <path class="fil1" d="M111964 32607c277,603 1386,1291 2124,1698 3023,1668 6306,1078 8613,-1039 -1237,-894 -2277,-2296 -4926,-2506 -2546,-202 -4239,943 -5811,1847z"></path> <path class="fil1" d="M143918 24019c2529,141 4359,-18 6040,-1302 1033,-788 2698,-2914 2921,-4752 -4442,-183 -8014,1419 -8961,6054z"></path> <path class="fil1" d="M144659 32601c2355,271 4556,-165 6027,-1323 1099,-867 2609,-2982 2887,-4718 -2537,-20 -4368,90 -6090,1383 -899,675 -2839,2955 -2824,4658z"></path> <path class="fil1" d="M144957 18589c1700,170 4202,-1931 4792,-2690 1258,-1617 1574,-3505 1495,-6039 -1950,402 -3870,1718 -4741,2792 -1422,1754 -1596,3203 -1546,5937z"></path> <path class="fil1" d="M136671 16176c1060,-1037 2247,-3142 2237,-5258 -12,-2209 -1227,-4124 -2193,-5390 -1273,718 -3396,4794 -1673,8375 211,440 437,829 687,1202l641 837c325,317 46,95 301,234z"></path> <path class="fil1" d="M138138 29276c2335,650 3822,1275 6292,204 1678,-729 3100,-2292 3931,-3713 -1303,-940 -4789,-848 -6361,-208 -1509,615 -3284,2322 -3862,3717z"></path> <path class="fil1" d="M124813 25767c624,1269 2422,3028 3857,3684 2220,1013 4195,575 6358,-199 -539,-1294 -2380,-3071 -3820,-3693 -1521,-657 -5133,-713 -6395,208z"></path> <path class="fil1" d="M128834 24002c-935,-4111 -3889,-6323 -8886,-6028 153,1792 1897,3979 2801,4706 1564,1257 3659,1562 6085,1322z"></path> <path class="fil1" d="M141530 22230c1118,-684 2369,-3297 2334,-5240 -33,-1841 -1312,-4655 -2334,-5287 -1031,989 -2233,3298 -2253,5292 -24,2274 1156,4011 2253,5235z"></path> <path class="fil1" d="M136642 29084c3182,-3855 2910,-6879 5,-10711 -1012,966 -2293,3351 -2299,5368 -7,2149 1181,4301 2294,5343z"></path> <path class="fil1" d="M117910 39778c3182,196 5964,437 8163,-2736 576,-831 790,-1593 1247,-2447 -2214,-592 -4549,-282 -6162,771 -1037,677 -2981,2780 -3248,4412z"></path> <path class="fil1" d="M128446 18910c63,-2519 -119,-4399 -1490,-5968 -902,-1032 -2795,-2473 -4726,-2731 15,2538 167,4276 1479,5970 849,1096 2718,2447 4737,2729z"></path> </g> </g> </svg> 