<?xml version="1.0" encoding="UTF-8"?> <svg xmlns="http://www.w3.org/2000/svg" xmlns:xlink="http://www.w3.org/1999/xlink" xml:space="preserve" width="91.44mm" height="50.8mm" version="1.1" style="shape-rendering:geometricPrecision; text-rendering:geometricPrecision; image-rendering:optimizeQuality; fill-rule:evenodd; clip-rule:evenodd" viewBox="0 0 9144 5080"> <defs> <style type="text/css"> .fil0 {fill:none} .fil1 {fill:#00652D} </style> </defs> <g id="Layer_x0020_1"> <metadata id="CorelCorpID_0Corel-Layer"></metadata> <g id="_1745932618672"> <rect class="fil0" width="9144" height="5080"></rect> <path class="fil1" d="M6592 3646c2,8 3,17 -4,22 -1,18 -18,34 -33,40 -19,9 -44,6 -67,7l0 28c85,4 177,1 263,1 52,0 138,3 189,-8 15,-3 43,-13 54,-12 3,-3 1,-2 5,-4l46 -19c36,-18 59,-32 88,-58 11,-11 25,-31 35,-38 7,-13 14,-21 22,-33 106,-171 95,-446 -20,-600 -55,-73 -138,-128 -272,-140 -46,-5 -358,-5 -410,-3l0 28c93,5 107,13 107,119 0,74 0,149 0,224 0,12 5,431 -3,446zm407 -55c32,-34 50,-167 53,-206 11,-134 2,-320 -77,-429 -41,-56 -94,-73 -191,-72l-1 690c2,71 -17,134 98,113 31,-6 54,-19 73,-34 11,-8 42,-44 45,-62zm-5118 -735c48,15 48,21 70,81 36,98 80,251 113,354 9,30 142,459 150,473l21 1 193 -579c9,12 76,248 89,288 17,53 76,246 87,290l24 1c19,-77 47,-158 69,-235 24,-79 48,-157 71,-236 34,-118 69,-236 106,-353 13,-43 23,-76 68,-83l1 -28c-20,-5 -162,-3 -189,-1l-1 28c68,5 84,31 64,114 -18,77 -63,216 -88,299l-43 144c-2,4 -1,3 -4,5 -44,-147 -94,-307 -136,-454 -23,-79 -25,-104 62,-108l0 -28 -349 0 -1 28c37,2 54,8 71,32 21,29 44,111 56,151 7,25 24,58 15,84 -9,26 -95,302 -104,317l-8 -17 -42 -135c-32,-99 -68,-209 -97,-308 -27,-89 -31,-116 45,-124l-1 -27 -312 -1 0 27zm1684 439c13,12 19,48 65,93 49,48 77,47 98,61 0,0 1,0 2,1 20,-1 52,14 118,6 241,-30 309,-396 141,-562 -44,-43 -101,-67 -188,-67 -215,-1 -301,238 -251,421 4,15 15,37 15,47zm222 -433c-101,24 -113,188 -111,302 1,109 29,283 157,255 137,-29 124,-372 80,-479 -18,-44 -57,-95 -126,-78zm-636 -33c-169,25 -240,200 -223,360 17,160 133,295 318,266 320,-51 302,-683 -95,-626zm27 32c-102,23 -116,186 -114,300 3,109 26,283 155,259 139,-26 126,-374 84,-478 -18,-46 -57,-96 -125,-81zm1236 580l9 -4c38,-15 81,-19 126,-68 93,-102 102,-275 43,-397 -14,-29 -28,-41 -42,-63 -16,-10 -25,-30 -74,-51 -82,-36 -263,-23 -362,-23l-2 19c83,2 72,34 72,108 0,52 5,414 -5,438 -12,24 -32,24 -65,25l-1 20 229 0c21,0 59,-5 72,-4zm-100 -568c-6,5 -5,-5 -5,9 0,102 0,204 0,307 0,50 0,101 0,152 0,23 -3,52 15,62 18,10 50,5 68,-2 38,-14 57,-43 72,-81 35,-89 37,-277 -8,-367 -2,-5 -4,-9 -6,-13 -1,-1 -3,-5 -4,-6 -5,-6 -1,-2 -6,-6 -4,-14 -30,-36 -47,-44 -20,-8 -57,-13 -79,-11zm1526 550l-20 1 -3 20 205 0 1 -18c-37,-1 -61,-8 -76,-31 -21,-48 -12,-151 -13,-209 0,-74 1,-149 1,-223 13,5 9,4 21,20 37,49 233,299 241,316 6,4 97,123 115,147 8,11 6,13 24,12 8,-21 2,-287 2,-333 0,-56 0,-112 0,-169 1,-100 24,-88 74,-102l0 -18 -191 0 0 17c21,5 31,1 50,11 12,7 21,16 26,30 13,36 9,270 7,311 -12,-7 -188,-247 -212,-279 -14,-17 -23,-30 -36,-47 -10,-14 -22,-32 -34,-44l-204 0 -1 16c7,4 1,2 10,4 2,0 8,1 10,2 22,4 30,10 44,28 25,29 20,24 20,69l0 348c0,58 6,113 -61,121zm-397 -514c0,14 -47,125 -57,151 -5,12 -52,139 -62,149 0,13 -57,154 -77,183 -21,29 -36,26 -53,35l2 18 178 -1c3,-10 3,-11 -1,-18 -16,-5 -40,-3 -53,-13 -38,-29 16,-135 20,-140l184 -1c58,138 63,148 -19,153l1 20 260 0 1 -19c-11,-3 -19,-3 -27,-9 -29,-14 -53,-86 -66,-120 -17,-45 -34,-88 -51,-133 -13,-33 -102,-251 -100,-264 -4,-4 -1,0 -5,-6l-6 -14c-6,-16 -17,-51 -26,-57 -19,5 -27,72 -43,86zm-90 327l157 0c-5,-21 -43,-115 -56,-147l-17 -43c-4,-8 -1,-3 -6,-8l-78 198zm-621 -272c3,41 0,92 0,133 0,45 0,89 0,133 0,44 1,90 0,133 -2,58 -16,59 -71,63l-1 18 456 -1 2 -30 17 -184c-33,-1 -12,2 -43,80 -11,29 -29,60 -47,73 -28,21 -52,26 -96,26 -25,-1 -98,7 -87,-35 -3,-5 -4,-8 -5,-15 -2,-21 0,-207 0,-230 0,-33 -7,-227 5,-240 2,-35 38,-30 72,-34l0 -18 -273 -1 -1 19c31,3 54,1 66,24 9,19 4,63 6,86z"></path> <path class="fil1" d="M4526 2501c-120,-33 -170,-76 -216,67 28,18 62,4 104,54 36,41 30,61 39,121l346 1c3,-105 40,-164 140,-170 -7,-22 -16,-42 -23,-63 -31,-83 -146,-22 -191,-10l-2 -140 -196 0 -1 140z"></path> <path class="fil1" d="M4404 3809l440 1c-14,-41 -30,-51 -40,-108 -7,-43 -7,-90 -8,-135l-345 1c-3,47 0,89 -7,136 -8,55 -23,66 -40,105z"></path> <path class="fil1" d="M4457 1975c72,-47 138,-212 69,-355 -12,-23 -43,-86 -69,-98 -109,119 -130,270 -37,405 13,19 27,32 37,48z"></path> <path class="fil1" d="M3571 1884c21,57 100,136 154,163 98,49 172,29 272,4 -72,-180 -305,-237 -426,-167z"></path> <path class="fil1" d="M4991 2505c53,214 297,267 398,218 -20,-75 -86,-148 -136,-182 -70,-49 -163,-52 -262,-36z"></path> <path class="fil1" d="M5244 2453c128,119 307,101 434,-8 16,-14 11,-4 19,-21 -223,-176 -437,-14 -453,29z"></path> <path class="fil1" d="M4281 2430c-17,-88 -70,-161 -120,-199 -70,-53 -151,-66 -261,-58 22,84 65,151 119,195 71,58 145,65 262,62z"></path> <path class="fil1" d="M5252 2049c204,78 361,-23 427,-165 -60,-39 -208,-28 -272,3 -80,39 -112,88 -155,162z"></path> <path class="fil1" d="M3595 2422c12,26 59,55 91,72 128,71 268,46 366,-44 -52,-38 -97,-98 -209,-106 -109,-9 -181,40 -248,78z"></path> <path class="fil1" d="M4955 2057c107,6 185,-1 257,-56 44,-33 115,-124 124,-202 -189,-8 -341,60 -381,258z"></path> <path class="fil1" d="M4986 2422c101,11 194,-7 257,-56 47,-37 111,-127 123,-201 -108,-1 -186,4 -259,59 -39,28 -121,125 -121,198z"></path> <path class="fil1" d="M4999 1826c72,7 179,-82 204,-115 53,-69 67,-149 64,-257 -83,17 -165,73 -202,119 -61,75 -68,136 -66,253z"></path> <path class="fil1" d="M4647 1723c45,-44 95,-134 95,-224 -1,-94 -52,-175 -94,-229 -54,31 -144,204 -71,356 9,19 19,36 29,51l28 36c14,14 2,4 13,10z"></path> <path class="fil1" d="M4709 2280c99,28 163,55 268,9 71,-31 131,-97 167,-158 -56,-40 -204,-36 -271,-9 -64,26 -139,99 -164,158z"></path> <path class="fil1" d="M4142 2131c27,54 103,129 164,157 95,43 179,24 271,-9 -23,-55 -102,-130 -163,-157 -65,-28 -218,-30 -272,9z"></path> <path class="fil1" d="M4313 2056c-40,-175 -165,-269 -378,-256 7,76 81,169 119,200 67,53 156,66 259,56z"></path> <path class="fil1" d="M4853 1981c48,-29 101,-141 100,-223 -2,-79 -56,-198 -100,-225 -44,42 -95,140 -96,225 -1,97 50,171 96,223z"></path> <path class="fil1" d="M4645 2272c136,-164 124,-292 1,-456 -44,42 -98,143 -98,229 -1,91 50,183 97,227z"></path> <path class="fil1" d="M3848 2727c136,9 254,19 348,-116 24,-36 33,-68 53,-104 -95,-26 -194,-12 -262,32 -45,29 -127,119 -139,188z"></path> <path class="fil1" d="M4297 1839c2,-107 -5,-187 -64,-254 -38,-43 -119,-105 -201,-116 1,108 7,182 63,254 36,47 116,104 202,116z"></path> </g> </g> </svg> 