<?xml version="1.0" encoding="UTF-8"?> <svg xmlns="http://www.w3.org/2000/svg" width="60" height="42" viewBox="0 0 60 42" fill="#a76d50" fill-rule="evenodd"><metadata><?xpacket begin="﻿" id="W5M0MpCehiHzreSzNTczkc9d"?><?xpacket end="w"?></metadata><path id="v-sh-rq-shape-3" class="cls-1" d="M211.1,3159.83h0v-14.52h13.125l1.3,5.14h5.4v4.69h3.515v-4.69h5.948V3129H190.635v5.14H184v16.31h2.724v12.57l1.621,7.98h54.511L244,3159.83H211.1Zm-23.344-12.85h-0.121v-9.38h3v6.54Zm2.486,2.45,3.911-3.85v-13.12h42.723v14.52h-8.6l-1.3-5.14H207.583v17.99H190.24v-10.4Zm49.381,18.11H191.227l-0.861-4.25H239.98Zm-45.816-14.78h3.516v3.47h-3.516v-3.47Zm6.68,0H204v3.47h-3.515v-3.47Zm0.524-18.2a4.441,4.441,0,1,0,4.508,4.44A4.479,4.479,0,0,0,201.009,3134.56Zm0,5.42A0.98,0.98,0,1,1,202,3139,0.987,0.987,0,0,1,201.009,3139.98Z" transform="translate(-184 -3129)"></path></svg> 