<?xml version="1.0" encoding="UTF-8"?> <svg xmlns="http://www.w3.org/2000/svg" width="43" height="51" viewBox="0 0 43 51" fill="#f7f3ec" fill-rule="evenodd"><metadata><?xpacket begin="﻿" id="W5M0MpCehiHzreSzNTczkc9d"?><?xpacket end="w"?></metadata><defs> </defs><path id="v-sh-banner-2-ico" class="cls-1" d="M982.71,5235.86a0.678,0.678,0,0,0,.258-0.76v-0.09a12.042,12.042,0,0,0-4.637-7.23,0.78,0.78,0,0,0-.859-0.08c-3.006,1.02-5.41,1.02-7.3-.09-3.006-1.78-3.521-6.04-3.521-6.04a0.727,0.727,0,0,0-.6-0.68,12.269,12.269,0,0,0-9.188,0,0.746,0.746,0,0,0-.515.68s-0.516,4.17-3.521,6.04c-1.889,1.19-4.379,1.19-7.385.09a0.658,0.658,0,0,0-.773.08,12.042,12.042,0,0,0-4.637,7.23v0.09a1.174,1.174,0,0,0,.258.76,15.585,15.585,0,0,1,0,20.93,0.686,0.686,0,0,0-.258.77v0.08a12.013,12.013,0,0,0,4.637,7.23,0.868,0.868,0,0,0,.773.17c0.515-.17,11.335-3.82,15.285,5.45a0.751,0.751,0,0,0,.773.51,0.734,0.734,0,0,0,.773-0.6c4.036-9.18,14.855-5.61,15.285-5.44a0.659,0.659,0,0,0,.772-0.09,12.009,12.009,0,0,0,4.637-7.23v-0.08a1.181,1.181,0,0,0-.257-0.77C977.386,5251.52,977.386,5241.14,982.71,5235.86Zm-5.066,27.31c-2.233-.59-11.593-2.72-16.144,5.02-2.748-4.59-7.213-5.7-10.82-5.7a19.386,19.386,0,0,0-5.324.77,10.582,10.582,0,0,1-3.521-5.62,16.418,16.418,0,0,0,4.208-11.31,16.794,16.794,0,0,0-4.208-11.4,10.582,10.582,0,0,1,3.521-5.62c3.349,1.11,6.183,1.02,8.415-.34,3.006-1.87,3.951-5.44,4.208-6.8a11.022,11.022,0,0,1,7.042,0c0.257,1.36,1.2,4.93,4.207,6.8,2.233,1.36,5.067,1.45,8.416.34a10.085,10.085,0,0,1,3.52,5.62c-5.581,5.95-5.581,16.67,0,22.63A10.027,10.027,0,0,1,977.644,5263.17Zm-15.028-1.1c-0.343.34-.773,0.59-1.116,0.93a10.178,10.178,0,0,0-1.116-.93,0.853,0.853,0,1,0-1.031,1.36,7.209,7.209,0,0,1,1.546,1.27,0.825,0.825,0,0,0,1.2,0c0.515-.42,1.03-0.85,1.546-1.27a0.908,0.908,0,0,0,.171-1.19A0.924,0.924,0,0,0,962.616,5262.07Zm-6.268-2.04a12.631,12.631,0,0,0-3.693-.77,0.931,0.931,0,0,0-.944.77,0.857,0.857,0,0,0,.773.93,13.976,13.976,0,0,1,3.348.68h0.258a0.861,0.861,0,0,0,.773-0.51A0.839,0.839,0,0,0,956.348,5260.03Zm-8.158-.77c-0.6.08-1.2,0.17-1.718,0.25a4.5,4.5,0,0,1-.772-1.19c0.343-.42.687-0.93,1.03-1.44a0.933,0.933,0,0,0-.343-1.19,0.952,0.952,0,0,0-1.2.34,11.926,11.926,0,0,1-1.116,1.7,0.992,0.992,0,0,0-.086.85,7.6,7.6,0,0,0,1.546,2.47,0.669,0.669,0,0,0,.6.25H946.3a18.441,18.441,0,0,1,2.061-.34,0.843,0.843,0,0,0,.773-0.93A0.8,0.8,0,0,0,948.19,5259.26Zm0.343-19.06a0.76,0.76,0,0,0-1.03-.59,0.751,0.751,0,0,0-.6,1.02,22.808,22.808,0,0,1,.687,3.49,0.91,0.91,0,0,0,.859.76,0.085,0.085,0,0,1,.085.09,0.85,0.85,0,0,0,.773-0.94A30.039,30.039,0,0,0,948.533,5240.2Zm-0.085,7.57a0.868,0.868,0,0,0-.945.77,15.374,15.374,0,0,1-.687,3.57,0.919,0.919,0,0,0,.6,1.02h0.258a0.688,0.688,0,0,0,.772-0.59,27.332,27.332,0,0,0,.773-3.83A0.936,0.936,0,0,0,948.448,5247.77Zm-1.8-11.99a8.644,8.644,0,0,0-.944-1.45,4.847,4.847,0,0,1,.687-1.1c0.6,0.08,1.2.17,1.717,0.25a0.853,0.853,0,1,0,.086-1.7,18.054,18.054,0,0,1-1.975-.34,0.768,0.768,0,0,0-.859.26,8.5,8.5,0,0,0-1.46,2.38,0.78,0.78,0,0,0,.086.85,11.392,11.392,0,0,1,1.117,1.7,1.016,1.016,0,0,0,.772.43,0.621,0.621,0,0,0,.43-0.09A0.858,0.858,0,0,0,946.644,5235.78Zm9.188-6.21a8.913,8.913,0,0,1-3.177,1.78,0.893,0.893,0,0,0-.515,1.11,1.04,1.04,0,0,0,.859.6h0.172a11.181,11.181,0,0,0,3.778-2.22,0.821,0.821,0,0,0,.086-1.19A0.841,0.841,0,0,0,955.832,5229.57Zm7.815-5.45a0.818,0.818,0,0,0-.687-0.59,8.919,8.919,0,0,0-3.006,0,0.818,0.818,0,0,0-.687.59,12.355,12.355,0,0,1-.687,1.88,0.836,0.836,0,0,0,.43,1.1,0.5,0.5,0,0,0,.343.09,0.52,0.52,0,0,0,.6-0.51,13.048,13.048,0,0,0,.687-1.62,3.981,3.981,0,0,1,1.46,0c0.258,0.6.429,1.11,0.687,1.62a0.858,0.858,0,0,0,1.116.42,0.836,0.836,0,0,0,.43-1.1A12.249,12.249,0,0,1,963.647,5224.12Zm6.354,8.94a0.828,0.828,0,0,0,.773-0.6,0.843,0.843,0,0,0-.515-1.1,7.87,7.87,0,0,1-3.177-1.79,0.849,0.849,0,1,0-1.117,1.28,10.111,10.111,0,0,0,3.778,2.21H970Zm4.895,0.42a12.691,12.691,0,0,0,1.717-.25,4.883,4.883,0,0,1,.687,1.1,8.644,8.644,0,0,0-.944,1.45,0.939,0.939,0,0,0,.343,1.19,0.745,0.745,0,0,0,.429.09,0.869,0.869,0,0,0,.687-0.43,11.392,11.392,0,0,1,1.117-1.7,1,1,0,0,0,.086-0.85,8.5,8.5,0,0,0-1.46-2.38,0.813,0.813,0,0,0-.859-0.26,15.11,15.11,0,0,1-1.975.34,0.851,0.851,0,0,0-.773.94A0.8,0.8,0,0,0,974.9,5233.48Zm-0.43,11.4h0.086a0.832,0.832,0,0,0,.859-0.76,15.564,15.564,0,0,1,.687-3.58,0.879,0.879,0,0,0-.6-1.02,0.939,0.939,0,0,0-1.031.6,27.331,27.331,0,0,0-.772,3.83A0.992,0.992,0,0,0,974.466,5244.88Zm0.859,8.25H975.5a0.751,0.751,0,0,0,.6-1.02,26.267,26.267,0,0,1-.687-3.57,0.816,0.816,0,0,0-.945-0.77,0.851,0.851,0,0,0-.773.94,30.389,30.389,0,0,0,.773,3.83A1.03,1.03,0,0,0,975.325,5253.13Zm1.031,3.75a8.171,8.171,0,0,0,.944,1.44,13.449,13.449,0,0,1-.773,1.19c-0.6-.08-1.116-0.17-1.717-0.25a0.932,0.932,0,0,0-.945.77,0.993,0.993,0,0,0,.773.93,18.441,18.441,0,0,1,2.061.34h0.172a0.979,0.979,0,0,0,.687-0.25,7.584,7.584,0,0,0,1.545-2.47,0.775,0.775,0,0,0-.085-0.85,11.931,11.931,0,0,1-1.117-1.7,0.865,0.865,0,0,0-1.2-.34A0.853,0.853,0,0,0,976.356,5256.88Zm-6.011,2.29a25.817,25.817,0,0,0-3.693.77,0.885,0.885,0,0,0-.515,1.11,1.028,1.028,0,0,0,.859.59,0.307,0.307,0,0,0,.171-0.08,13.523,13.523,0,0,1,3.349-.68,0.855,0.855,0,0,0,.773-0.94A0.867,0.867,0,0,0,970.345,5259.17Z" transform="translate(-940 -5220)"></path></svg> 