<?xml version="1.0" encoding="UTF-8"?> <svg xmlns="http://www.w3.org/2000/svg" width="57" height="49.97" viewBox="0 0 57 49.97" fill="#333" fill-rule="evenodd"><metadata><?xpacket begin="﻿" id="W5M0MpCehiHzreSzNTczkc9d"?><?xpacket end="w"?></metadata><defs> </defs><path id="v-sh-banner-1-ico" d="M459.707,5230.02a0.927,0.927,0,0,0-1.352,0c-3.334,3.2-6.08,3.58-8.943,1.07l0.927-.78a6.806,6.806,0,0,0,0-9.4,6.487,6.487,0,0,0-9.272.1l-0.743.91-1-1.01a6.575,6.575,0,0,0-9.272,0,6.685,6.685,0,0,0,0,9.4l1.908,1.86-13.631,16.71-3.247-3.29a6.6,6.6,0,0,0-9.272,9.4l4.139,4.17-6.747,8.27a0.942,0.942,0,0,0,.1,1.28,0.887,0.887,0,0,0,.676.29,1.01,1.01,0,0,0,.579-0.2l8.161-6.86,5.747,5.79a0.891,0.891,0,0,0,.677.29,1.744,1.744,0,0,0,.676-0.2,0.955,0.955,0,0,0,0-1.37l-5.65-5.73,12.194-10.25,2.921,3.05a6.216,6.216,0,0,0,4.443,1.86,8.043,8.043,0,0,0,4.925-1.86,6.8,6.8,0,0,0,0-9.4l-2.195-2.14,11.467-9.64a7.79,7.79,0,0,0,5.216,2.38c2.125,0,4.346-1.08,6.568-3.33A0.954,0.954,0,0,0,459.707,5230.02Zm-28.3-1.08a4.774,4.774,0,0,1,0-6.66,4.562,4.562,0,0,1,6.567,0l1.123,1.14-5.913,7.25Zm-24.243,24.68a4.777,4.777,0,0,1,0-6.66,4.563,4.563,0,0,1,6.568,0l3.375,3.42-5.946,7.3Zm4.057,7.05,0.106-.13,0.022,0.03Zm1.311-1.61,27.927-34.26,2.393,2.43-0.918.93a0.955,0.955,0,0,0,0,1.37,0.933,0.933,0,0,0,1.352,0l3.188-3.23a0.967,0.967,0,0,0,0-1.38,0.929,0.929,0,0,0-1.353,0l-0.917.93-2.521-2.55,0.831-1.02a4.571,4.571,0,0,1,3.283-1.37,4.357,4.357,0,0,1,3.188,1.37,4.7,4.7,0,0,1,1.352,3.33,4.62,4.62,0,0,1-1.256,3.23l-36.276,30.5Zm24.766-13.47a4.776,4.776,0,0,1,0,6.56c-1.738,1.47-4.732,1.86-6.568,0l-2.887-2.93,7.128-5.99Z" transform="translate(-403 -5219.03)"></path></svg> 